<svg width="35" height="35" viewBox="0 0 35 35" fill="none" xmlns="http://www.w3.org/2000/svg">
<g clip-path="url(#clip0_668_4519)">
<path d="M11.64 25.22H27.86C28.263 25.2081 28.651 25.0649 28.9651 24.8122C29.2792 24.5595 29.5021 24.2111 29.6 23.82L30.07 22.19L33.18 11.07C33.2912 10.6841 33.2493 10.2702 33.063 9.91446C32.8768 9.55869 32.5605 9.28846 32.18 9.16C31.9928 9.10768 31.7969 9.09381 31.6042 9.11921C31.4115 9.14461 31.2259 9.20877 31.0587 9.30781C30.8914 9.40686 30.7459 9.53874 30.631 9.69551C30.5161 9.85228 30.4341 10.0307 30.39 10.22L27.08 22.22H12.17L7 6L6.67 5L6.16 3.35C6.08068 3.09703 5.94362 2.86596 5.75966 2.67505C5.57569 2.48415 5.34986 2.33863 5.1 2.25L1.79 1.25C1.60404 1.20427 1.4108 1.19635 1.22172 1.22671C1.03265 1.25707 0.851601 1.3251 0.689318 1.42676C0.527035 1.52842 0.386824 1.66164 0.277001 1.81852C0.167179 1.97539 0.089984 2.15273 0.0499952 2.34C-0.0546289 2.72047 -0.00921834 3.12658 0.176857 3.47454C0.362933 3.8225 0.675475 4.08576 1.05 4.21L3.17 4.84C3.34439 4.89454 3.50246 4.99167 3.62991 5.12262C3.75736 5.25356 3.85018 5.41419 3.9 5.59L9.16 22.19L9.39 22.97L9.8 24.24L8.14999 26.4L7.57 27.15C7.20609 27.5696 6.97621 28.0886 6.91 28.64C6.87982 28.8389 6.87982 29.0411 6.91 29.24V30.59C6.89893 30.7279 6.91659 30.8666 6.96186 30.9973C7.00714 31.128 7.07904 31.2479 7.17303 31.3494C7.26701 31.4509 7.38104 31.5318 7.50789 31.587C7.63474 31.6422 7.77166 31.6704 7.91 31.67H12C11.7939 31.9635 11.6791 32.3114 11.67 32.67C11.6522 32.8982 11.6819 33.1275 11.757 33.3437C11.8321 33.5598 11.9511 33.7581 12.1065 33.9261C12.2619 34.0941 12.4504 34.2281 12.6601 34.3198C12.8698 34.4114 13.0962 34.4587 13.325 34.4587C13.5538 34.4587 13.7802 34.4114 13.9899 34.3198C14.1996 34.2281 14.388 34.0941 14.5435 33.9261C14.6989 33.7581 14.8179 33.5598 14.893 33.3437C14.9681 33.1275 14.9977 32.8982 14.98 32.67C14.9674 32.3105 14.8492 31.9627 14.64 31.67H25.45C25.2464 31.9655 25.1287 32.3116 25.11 32.67C25.11 32.888 25.1529 33.1039 25.2364 33.3053C25.3198 33.5067 25.4421 33.6897 25.5962 33.8438C25.7503 33.9979 25.9333 34.1202 26.1347 34.2036C26.3361 34.2871 26.552 34.33 26.77 34.33C26.988 34.33 27.2038 34.2871 27.4052 34.2036C27.6066 34.1202 27.7896 33.9979 27.9438 33.8438C28.0979 33.6897 28.2202 33.5067 28.3036 33.3053C28.3871 33.1039 28.43 32.888 28.43 32.67C28.4209 32.3114 28.3061 31.9635 28.1 31.67H30.78C30.9183 31.6704 31.0552 31.6422 31.1821 31.587C31.309 31.5318 31.423 31.4509 31.517 31.3494C31.6109 31.2479 31.6828 31.128 31.7281 30.9973C31.7734 30.8666 31.7911 30.7279 31.78 30.59C31.7909 30.3131 31.6918 30.0432 31.5045 29.839C31.3172 29.6348 31.0568 29.513 30.78 29.5H8.89V28.71L11.64 25.22Z" fill="#6DB746"/>
<path d="M33.44 2C33.9302 2.46697 34.3203 3.0286 34.587 3.65086C34.8536 4.27312 34.991 4.94303 34.991 5.62C34.991 6.29696 34.8536 6.96688 34.587 7.58913C34.3203 8.21139 33.9302 8.77303 33.44 9.24L24.94 17.44L16.43 9.24C15.9399 8.77303 15.5497 8.21139 15.2831 7.58913C15.0165 6.96688 14.879 6.29696 14.879 5.62C14.879 4.94303 15.0165 4.27312 15.2831 3.65086C15.5497 3.0286 15.9399 2.46697 16.43 2C17.4448 1.017 18.8022 0.467346 20.215 0.467346C21.6278 0.467346 22.9853 1.017 24 2L25 2.94L26 2C27.0082 1.0551 28.3382 0.529279 29.72 0.529279C31.1018 0.529279 32.4318 1.0551 33.44 2Z" fill="#6DB746"/>
</g>
<defs>
<clipPath id="clip0_668_4519">
<rect width="35" height="35" fill="white"/>
</clipPath>
</defs>
</svg>
