<svg width="35" height="35" viewBox="0 0 35 35" fill="none" xmlns="http://www.w3.org/2000/svg">
<path d="M34.75 5V34C34.5631 34.3245 34.2801 34.5831 33.94 34.74H33.34C32.9731 34.4757 32.6376 34.1704 32.34 33.83C30.56 32.0767 28.78 30.3167 27 28.55C26.9181 28.4601 26.8174 28.3894 26.705 28.3427C26.5927 28.296 26.4715 28.2746 26.35 28.28H5.65C4.23701 28.2881 2.87799 27.7379 1.86859 26.7491C0.859187 25.7603 0.281071 24.4129 0.260004 23C0.260004 17.2133 0.260004 11.4233 0.260004 5.63C0.257336 4.2119 0.81676 2.85052 1.81576 1.84402C2.81476 0.837526 4.17191 0.26794 5.59 0.260005C13.53 0.253338 21.4667 0.253338 29.4 0.260005C30.5998 0.265698 31.7633 0.672308 32.7055 1.4152C33.6477 2.15808 34.3146 3.19461 34.6 4.36C34.6287 4.57778 34.679 4.79216 34.75 5ZM32.59 31V5.83C32.6177 5.37366 32.5483 4.91662 32.3862 4.48912C32.2242 4.06161 31.9732 3.67338 31.6499 3.3501C31.3266 3.02682 30.9384 2.77585 30.5109 2.61379C30.0834 2.45173 29.6264 2.38227 29.17 2.41001H5.73C5.3018 2.39665 4.87525 2.46915 4.47551 2.62322C4.07576 2.7773 3.7109 3.00983 3.40242 3.30712C3.09395 3.60441 2.84811 3.96044 2.67938 4.35423C2.51066 4.74802 2.42247 5.1716 2.42 5.6C2.42 11.38 2.42 17.16 2.42 22.95C2.41418 23.603 2.61742 24.2408 3 24.77C3.31662 25.2094 3.73712 25.5636 4.22396 25.8009C4.7108 26.0382 5.24882 26.1513 5.79 26.13H27C27.2006 26.1207 27.4007 26.1563 27.5858 26.2341C27.7709 26.312 27.9363 26.4301 28.07 26.58L29.28 27.8L32.59 31Z" fill="#6DB746" stroke="#6DB746" stroke-width="0.5" stroke-miterlimit="10"/>
<path d="M9.99999 12.11C10.4258 12.1179 10.8398 12.2515 11.19 12.494C11.5401 12.7366 11.8107 13.0772 11.9677 13.4731C12.1248 13.869 12.1613 14.3025 12.0727 14.7191C11.9841 15.1356 11.7743 15.5167 11.4697 15.8144C11.1651 16.1121 10.7792 16.3131 10.3607 16.3921C9.94221 16.4711 9.50967 16.4247 9.11749 16.2585C8.72531 16.0924 8.39099 15.8141 8.15657 15.4585C7.92215 15.1029 7.7981 14.6859 7.79999 14.26C7.80127 13.9738 7.85941 13.6907 7.97105 13.4271C8.08268 13.1636 8.24558 12.9249 8.45028 12.7248C8.65497 12.5248 8.89738 12.3674 9.16342 12.2619C9.42947 12.1563 9.71383 12.1047 9.99999 12.11Z" fill="#6DB746" stroke="#6DB746" stroke-width="0.5" stroke-miterlimit="10"/>
<path d="M17.51 12.11C17.9372 12.11 18.3548 12.2367 18.71 12.474C19.0652 12.7114 19.3421 13.0487 19.5056 13.4434C19.6691 13.8381 19.7118 14.2724 19.6285 14.6914C19.5452 15.1104 19.3394 15.4953 19.0374 15.7973C18.7353 16.0994 18.3504 16.3051 17.9314 16.3885C17.5124 16.4718 17.0781 16.4291 16.6834 16.2656C16.2887 16.1021 15.9514 15.8252 15.714 15.47C15.4767 15.1148 15.35 14.6972 15.35 14.27C15.35 13.6971 15.5776 13.1477 15.9827 12.7426C16.3877 12.3376 16.9371 12.11 17.51 12.11Z" fill="#6DB746" stroke="#6DB746" stroke-width="0.5" stroke-miterlimit="10"/>
<path d="M27.2 14.28C27.198 14.7072 27.0694 15.1242 26.8304 15.4783C26.5914 15.8324 26.2528 16.1077 25.8574 16.2694C25.4619 16.431 25.0274 16.4718 24.6088 16.3865C24.1902 16.3012 23.8063 16.0937 23.5056 15.7902C23.2049 15.4868 23.001 15.101 22.9196 14.6816C22.8382 14.2622 22.883 13.8281 23.0483 13.4342C23.2136 13.0402 23.492 12.7042 23.8483 12.4685C24.2046 12.2328 24.6228 12.108 25.05 12.11C25.334 12.11 25.6153 12.1663 25.8774 12.2756C26.1396 12.3849 26.3775 12.545 26.5774 12.7468C26.7773 12.9486 26.9353 13.1879 27.0421 13.4511C27.149 13.7143 27.2026 13.996 27.2 14.28Z" fill="#6DB746" stroke="#6DB746" stroke-width="0.5" stroke-miterlimit="10"/>
</svg>
