<svg width="35" height="35" viewBox="0 0 35 35" fill="none" xmlns="http://www.w3.org/2000/svg">
<g clip-path="url(#clip0_668_4539)">
<path d="M31.66 21C31.4389 21 31.2202 21.0453 31.0173 21.133C30.8143 21.2207 30.6315 21.349 30.48 21.51C30.1685 21.8475 29.9969 22.2908 30 22.75V29.75C30.0034 30.2161 29.8239 30.6649 29.5 31C29.349 31.1589 29.1676 31.2859 28.9667 31.3735C28.7657 31.4611 28.5492 31.5075 28.33 31.51H5C4.77929 31.5077 4.56124 31.4614 4.35863 31.3739C4.15602 31.2863 3.9729 31.1592 3.82 31C3.50655 30.663 3.33159 30.2203 3.33 29.76V13L13.13 23.31C13.5811 23.7952 14.1274 24.1822 14.7348 24.4468C15.3421 24.7114 15.9975 24.848 16.66 24.848C17.3225 24.848 17.9779 24.7114 18.5853 24.4468C19.1926 24.1822 19.7389 23.7952 20.19 23.31L22.93 20.44C23.2435 20.103 23.4184 19.6603 23.42 19.2C23.4204 18.7394 23.2452 18.2959 22.93 17.96C22.7771 17.7973 22.5929 17.6674 22.3883 17.578C22.1838 17.4886 21.9632 17.4417 21.74 17.44C21.5183 17.4419 21.2993 17.489 21.0964 17.5784C20.8935 17.6678 20.711 17.7976 20.56 17.96L17.83 20.83C17.6797 20.9876 17.4989 21.1131 17.2986 21.1988C17.0984 21.2846 16.8828 21.3288 16.665 21.3288C16.4472 21.3288 16.2316 21.2846 16.0314 21.1988C15.8311 21.1131 15.6503 20.9876 15.5 20.83L5.68 10.49H16.68C16.8963 10.4899 17.1103 10.4465 17.3096 10.3623C17.5088 10.2782 17.6891 10.155 17.84 10C18.1552 9.66409 18.3304 9.22064 18.33 8.76001C18.3309 8.30226 18.1554 7.86176 17.84 7.53001C17.6899 7.36582 17.5078 7.2341 17.3048 7.14295C17.1019 7.0518 16.8824 7.00315 16.66 7.00001H5C4.33722 7.00291 3.68189 7.13996 3.0735 7.40291C2.46511 7.66586 1.91625 8.04926 1.46 8.53001C0.520509 9.53681 -0.00136975 10.863 1.06366e-06 12.24V29.75C-0.0033805 31.1275 0.518779 32.4543 1.46 33.46C1.91394 33.9444 2.46213 34.3309 3.07089 34.5958C3.67965 34.8606 4.33613 34.9982 5 35H28.33C28.9922 34.9968 29.6468 34.8586 30.2537 34.5938C30.8606 34.329 31.4072 33.9432 31.86 33.46C32.8056 32.4571 33.3285 31.1284 33.32 29.75V22.75C33.3241 22.2906 33.1524 21.8469 32.84 21.51C32.6878 21.3499 32.5048 21.2222 32.3021 21.1346C32.0993 21.0469 31.8809 21.0012 31.66 21ZM34.51 5.75001L29.51 0.500013C29.365 0.345437 29.1919 0.219869 29 0.130013C28.7988 0.0461226 28.583 0.00292969 28.365 0.00292969C28.147 0.00292969 27.9312 0.0461226 27.73 0.130013C27.5238 0.215357 27.3368 0.341168 27.18 0.500013L22.18 5.75001C21.8658 6.08847 21.6912 6.53321 21.6912 6.99501C21.6912 7.45682 21.8658 7.90155 22.18 8.24001C22.3334 8.40133 22.518 8.52973 22.7225 8.61741C22.9271 8.70509 23.1474 8.75021 23.37 8.75001C23.5911 8.75002 23.8098 8.70477 24.0128 8.61707C24.2157 8.52936 24.3985 8.40104 24.55 8.24001L26.66 6.00001V15.79C26.6622 16.2412 26.8376 16.6744 27.15 17C27.299 17.1635 27.4805 17.294 27.6828 17.3833C27.8851 17.4727 28.1038 17.5188 28.325 17.5188C28.5462 17.5188 28.7649 17.4727 28.9672 17.3833C29.1695 17.294 29.351 17.1635 29.5 17C29.8257 16.6661 30.0056 16.2165 30 15.75V6.00001L32.15 8.28001C32.3055 8.43837 32.4884 8.56714 32.69 8.66001C32.892 8.74716 33.11 8.79143 33.33 8.79001C33.5632 8.78416 33.7922 8.72607 34 8.62001C34.206 8.52987 34.3928 8.40085 34.55 8.24001C34.703 8.07299 34.8249 7.87995 34.91 7.67001C34.9823 7.45442 35.0128 7.22704 35 7.00001C35.0024 6.77019 34.9582 6.54226 34.87 6.33001C34.7885 6.11526 34.6663 5.91831 34.51 5.75001Z" fill="#5A6B6A"/>
</g>
<defs>
<clipPath id="clip0_668_4539">
<rect width="35" height="35" fill="white"/>
</clipPath>
</defs>
</svg>
