<svg width="35" height="35" viewBox="0 0 35 35" fill="none" xmlns="http://www.w3.org/2000/svg">
<path d="M16.41 0.25C16.688 0.347533 16.9768 0.411323 17.27 0.44C18.6936 0.784098 19.9683 1.57798 20.905 2.70384C21.8418 3.82971 22.3906 5.22757 22.47 6.69C22.47 6.91 22.54 6.97 22.76 6.97H26.36C26.5066 6.94609 26.6567 6.95516 26.7994 6.99653C26.9421 7.03791 27.0738 7.11056 27.1849 7.2092C27.296 7.30784 27.3837 7.43 27.4417 7.56679C27.4996 7.70358 27.5264 7.85157 27.52 8C27.8 11.15 28.07 14.31 28.35 17.46C28.63 20.61 28.92 23.76 29.2 26.91C29.29 27.91 29.43 28.97 29.46 30C29.4856 30.743 29.3141 31.4794 28.9628 32.1346C28.6115 32.7897 28.093 33.3402 27.46 33.73C26.4891 34.4106 25.3252 34.7612 24.14 34.73H12.49C10.69 34.73 8.89999 34.73 7.1 34.73C6.28928 34.7579 5.48308 34.5982 4.74418 34.2634C4.00528 33.9287 3.35363 33.4279 2.83999 32.8C2.47945 32.3751 2.20998 31.8808 2.04829 31.3475C1.8866 30.8143 1.83612 30.2535 1.9 29.7C2.16 27.06 2.36999 24.41 2.60999 21.76C2.84999 19.11 3.08999 16.46 3.31999 13.81C3.48999 11.92 3.66999 10.03 3.80999 8.14C3.86999 7.33 4.25 6.92 5.09 6.94C6.25 6.94 7.42 6.94 8.59 6.94C8.81 6.94 8.87 6.87 8.88 6.66C8.96813 5.1297 9.57146 3.67424 10.5918 2.53038C11.6122 1.38653 12.9896 0.621591 14.5 0.36C14.6 0.36 14.74 0.36 14.8 0.25H16.41ZM15.67 32.85H24.1C24.9574 32.8805 25.801 32.6275 26.5 32.13C26.8323 31.9151 27.1035 31.6181 27.2874 31.2678C27.4714 30.9174 27.5618 30.5255 27.55 30.13C27.44 28.4 27.26 26.66 27.11 24.93L26.39 17C26.13 14.3333 25.9033 11.7033 25.71 9.11C25.71 8.92 25.63 8.87 25.44 8.87C24.54 8.87 23.65 8.87 22.75 8.87C22.51 8.87 22.48 8.95 22.48 9.15C22.48 10 22.48 10.84 22.48 11.68C22.4883 11.8092 22.4698 11.9388 22.4256 12.0605C22.3814 12.1823 22.3126 12.2936 22.2234 12.3875C22.1342 12.4814 22.0266 12.5558 21.9073 12.6062C21.7879 12.6565 21.6595 12.6816 21.53 12.68C21.2753 12.6647 21.0361 12.5526 20.8614 12.3667C20.6866 12.1808 20.5895 11.9351 20.59 11.68C20.59 10.84 20.59 10 20.59 9.15C20.59 8.94 20.54 8.88 20.32 8.88C17.22 8.88 14.12 8.88 11.02 8.88C10.79 8.88 10.75 8.95 10.75 9.16C10.75 9.99 10.75 10.82 10.75 11.65C10.7596 11.7871 10.7409 11.9247 10.6949 12.0542C10.649 12.1837 10.5769 12.3024 10.483 12.4028C10.3892 12.5032 10.2757 12.5832 10.1496 12.6378C10.0234 12.6923 9.88742 12.7203 9.75 12.72C9.61769 12.7124 9.48822 12.6786 9.36911 12.6205C9.25 12.5624 9.14362 12.4812 9.05615 12.3816C8.96869 12.2821 8.90189 12.1661 8.85963 12.0405C8.81737 11.9149 8.8005 11.7822 8.81 11.65C8.81 10.81 8.81 9.97 8.81 9.13C8.81 8.94 8.80999 8.88 8.56999 8.88C7.66333 8.88 6.75333 8.88 5.84 8.88C5.65 8.88 5.59999 8.94 5.57999 9.12C5.31999 12.26 5.04 15.4 4.76 18.55C4.43333 22.33 4.09999 26.1167 3.75999 29.91C3.71274 30.3371 3.78053 30.7691 3.95635 31.1612C4.13218 31.5533 4.40964 31.8912 4.76 32.14C5.45629 32.643 6.3018 32.8967 7.16 32.86L15.67 32.85ZM15.65 7H20.3C20.54 7 20.6 6.94 20.57 6.7C20.5263 6.27465 20.4358 5.85544 20.3 5.45C19.9241 4.39193 19.1968 3.49468 18.2395 2.90782C17.2822 2.32097 16.1526 2.07997 15.0392 2.225C13.9257 2.37003 12.8956 2.89233 12.1205 3.70483C11.3455 4.51733 10.8724 5.57093 10.78 6.69C10.78 6.97 10.84 7 11.08 7H15.65Z" fill="#6DB746" stroke="#6DB746" stroke-width="0.5" stroke-miterlimit="10"/>
<path d="M31.65 16.65C32.1138 17.0918 32.4831 17.6231 32.7354 18.2119C32.9877 18.8006 33.1177 19.4345 33.1177 20.075C33.1177 20.7155 32.9877 21.3494 32.7354 21.9381C32.4831 22.5269 32.1138 23.0582 31.65 23.5L23.65 31.24L15.65 23.5C15.1862 23.0582 14.8169 22.5269 14.5646 21.9381C14.3123 21.3494 14.1823 20.7155 14.1823 20.075C14.1823 19.4345 14.3123 18.8006 14.5646 18.2119C14.8169 17.6231 15.1862 17.0918 15.65 16.65C16.6074 15.739 17.8784 15.231 19.2 15.231C20.5216 15.231 21.7926 15.739 22.75 16.65L23.68 17.55L24.61 16.65C25.5643 15.7565 26.8227 15.2593 28.13 15.2593C29.4373 15.2593 30.6957 15.7565 31.65 16.65Z" fill="#6DB746"/>
</svg>
