<svg width="35" height="35" viewBox="0 0 35 35" fill="none" xmlns="http://www.w3.org/2000/svg">
<path d="M17.4999 19.5068C15.2745 19.5068 13.0991 18.9347 11.2487 17.863C9.39836 16.7913 7.95618 15.268 7.10455 13.4858C6.25292 11.7037 6.0301 9.74257 6.46425 7.8506C6.89841 5.95863 7.97005 4.22074 9.54365 2.85671C11.1173 1.49267 13.1221 0.563749 15.3048 0.187413C17.4874 -0.188924 19.7498 0.00422596 21.8058 0.742437C23.8618 1.48065 25.6191 2.73076 26.8555 4.3347C28.0919 5.93864 28.7518 7.82435 28.7518 9.75339C28.7447 12.3383 27.5569 14.8155 25.4483 16.6433C23.3397 18.471 20.4819 19.5006 17.4999 19.5068ZM17.4999 3.17335C15.9974 3.16874 14.5272 3.55072 13.2753 4.27093C12.0234 4.99114 11.0463 6.01718 10.4676 7.21911C9.88894 8.42104 9.73477 9.74479 10.0246 11.0227C10.3145 12.3007 11.0353 13.4753 12.0958 14.3979C13.1564 15.3204 14.5089 15.9494 15.9821 16.2052C17.4554 16.461 18.9831 16.3321 20.3717 15.8348C21.7603 15.3374 22.9475 14.4941 23.7828 13.4115C24.6181 12.3289 25.064 11.0558 25.064 9.75339C25.064 8.01229 24.2679 6.34216 22.8502 5.10883C21.4324 3.87551 19.5085 3.17953 17.4999 3.17335Z" fill="#6DB746"/>
<path d="M34.997 34.9998H0.00302236V33.4131C-0.0838756 29.3028 1.70609 25.3291 4.98317 22.3574C8.26025 19.3856 12.7591 17.6565 17.5 17.5464C22.2409 17.6565 26.7397 19.3856 30.0168 22.3574C33.2939 25.3291 35.0839 29.3028 34.997 33.4131V34.9998ZM3.74468 31.8264H31.2553C30.9214 28.8389 29.3384 26.0604 26.8047 24.0146C24.271 21.9688 20.9615 20.7969 17.5 20.7197C14.0385 20.7969 10.729 21.9688 8.19533 24.0146C5.66162 26.0604 4.07864 28.8389 3.74468 31.8264Z" fill="#6DB746"/>
</svg>
