<svg width="35" height="35" viewBox="0 0 35 35" fill="none" xmlns="http://www.w3.org/2000/svg">
<g clip-path="url(#clip0_668_4445)">
<path d="M24.22 24.5H10.78C10.5681 24.5576 10.3811 24.6833 10.2478 24.8576C10.1145 25.032 10.0422 25.2455 10.0422 25.465C10.0422 25.6845 10.1145 25.898 10.2478 26.0724C10.3811 26.2468 10.5681 26.3724 10.78 26.43H24.22C24.4318 26.3724 24.6188 26.2468 24.7522 26.0724C24.8855 25.898 24.9577 25.6845 24.9577 25.465C24.9577 25.2455 24.8855 25.032 24.7522 24.8576C24.6188 24.6833 24.4318 24.5576 24.22 24.5Z" fill="#6DB746"/>
<path d="M24.22 26.84H10.78C10.5984 26.8413 10.4183 26.8065 10.2503 26.7377C10.0823 26.6688 9.92963 26.5672 9.80122 26.4388C9.67281 26.3103 9.57121 26.1577 9.50233 25.9897C9.43345 25.8216 9.39866 25.6416 9.39999 25.46C9.39678 25.2751 9.43051 25.0914 9.4992 24.9197C9.56788 24.748 9.67014 24.5917 9.79999 24.46C10.0679 24.2005 10.4271 24.0568 10.8 24.06H24.22C24.5929 24.0568 24.9521 24.2005 25.22 24.46C25.3498 24.5917 25.4521 24.748 25.5208 24.9197C25.5895 25.0914 25.6232 25.2751 25.62 25.46C25.6213 25.6416 25.5865 25.8216 25.5177 25.9897C25.4488 26.1577 25.3472 26.3103 25.2188 26.4388C25.0904 26.5672 24.9377 26.6688 24.7697 26.7377C24.6016 26.8065 24.4216 26.8413 24.24 26.84H24.22ZM10.78 24.94C10.7012 24.9201 10.6188 24.9201 10.54 24.94C10.4671 24.959 10.3989 24.9931 10.34 25.04C10.276 25.0909 10.2247 25.1559 10.19 25.23C10.1568 25.3021 10.1396 25.3806 10.1396 25.46C10.1396 25.5394 10.1568 25.6179 10.19 25.69C10.2217 25.7658 10.2736 25.8315 10.34 25.88C10.3984 25.93 10.4665 25.9674 10.54 25.99C10.6188 26.0099 10.7012 26.0099 10.78 25.99H24.22C24.2988 26.0099 24.3812 26.0099 24.46 25.99C24.5335 25.9674 24.6016 25.93 24.66 25.88C24.7235 25.8286 24.7747 25.7637 24.81 25.69C24.8432 25.6179 24.8604 25.5394 24.8604 25.46C24.8604 25.3806 24.8432 25.3021 24.81 25.23C24.7721 25.1579 24.7213 25.0935 24.66 25.04C24.601 24.9931 24.5329 24.959 24.46 24.94C24.3812 24.9201 24.2988 24.9201 24.22 24.94H10.78Z" fill="#6DB746"/>
<path d="M24.22 18.8099H10.78C10.5681 18.8675 10.3811 18.9932 10.2478 19.1676C10.1145 19.342 10.0422 19.5554 10.0422 19.7749C10.0422 19.9945 10.1145 20.2079 10.2478 20.3823C10.3811 20.5567 10.5681 20.6824 10.78 20.7399H24.22C24.4318 20.6824 24.6188 20.5567 24.7522 20.3823C24.8855 20.2079 24.9577 19.9945 24.9577 19.7749C24.9577 19.5554 24.8855 19.342 24.7522 19.1676C24.6188 18.9932 24.4318 18.8675 24.22 18.8099Z" fill="#6DB746"/>
<path d="M24.22 21.1599H10.78C10.598 21.1599 10.4177 21.1239 10.2496 21.0539C10.0815 20.984 9.92895 20.8814 9.80068 20.7522C9.6724 20.623 9.57096 20.4697 9.5022 20.3011C9.43344 20.1325 9.39872 19.952 9.40004 19.7699C9.39569 19.5849 9.4289 19.4009 9.49765 19.229C9.56639 19.0571 9.66926 18.9009 9.80004 18.7699C9.9309 18.6383 10.0868 18.5342 10.2586 18.4638C10.4303 18.3933 10.6144 18.358 10.8 18.3599H24.22C24.4057 18.358 24.5898 18.3933 24.7615 18.4638C24.9333 18.5342 25.0892 18.6383 25.22 18.7699C25.4759 19.0299 25.6193 19.3801 25.6193 19.7449C25.6193 20.1097 25.4759 20.4599 25.22 20.7199C25.0892 20.8516 24.9333 20.9557 24.7615 21.0261C24.5898 21.0965 24.4057 21.1318 24.22 21.1299V21.1599ZM10.78 19.2499C10.7104 19.2402 10.6397 19.2402 10.57 19.2499C10.4428 19.3102 10.3403 19.4127 10.28 19.5399C10.265 19.6058 10.265 19.6741 10.28 19.7399C10.2774 19.8126 10.2903 19.885 10.3179 19.9522C10.3455 20.0195 10.3871 20.0801 10.44 20.1299C10.5412 20.2305 10.6774 20.2879 10.82 20.2899H24.22C24.3627 20.2879 24.4989 20.2305 24.6 20.1299C24.653 20.0801 24.6946 20.0195 24.7222 19.9522C24.7498 19.885 24.7627 19.8126 24.76 19.7399C24.775 19.6741 24.775 19.6058 24.76 19.5399C24.6997 19.4127 24.5973 19.3102 24.47 19.2499C24.4004 19.2402 24.3297 19.2402 24.26 19.2499H10.78Z" fill="#6DB746"/>
<path d="M24.2199 13.13H10.7799C10.5722 13.1905 10.3898 13.3169 10.2599 13.49C10.1301 13.6631 10.0599 13.8736 10.0599 14.09C10.0599 14.3063 10.1301 14.5169 10.2599 14.69C10.3898 14.8631 10.5722 14.9894 10.7799 15.05H24.2199C24.369 15.0934 24.5261 15.1016 24.6788 15.0738C24.8316 15.0461 24.9757 14.9831 25.0999 14.89C25.2241 14.7968 25.3249 14.676 25.3944 14.5372C25.4638 14.3983 25.4999 14.2452 25.4999 14.09C25.4999 13.9347 25.4638 13.7816 25.3944 13.6428C25.3249 13.5039 25.2241 13.3831 25.0999 13.29C24.9757 13.1968 24.8316 13.1339 24.6788 13.1061C24.5261 13.0783 24.369 13.0865 24.2199 13.13Z" fill="#6DB746"/>
<path d="M24.22 15.47H10.78C10.407 15.4732 10.0478 15.3295 9.77997 15.07C9.65012 14.9383 9.54786 14.782 9.47918 14.6103C9.41049 14.4386 9.37677 14.2549 9.37997 14.07C9.37865 13.8879 9.41337 13.7074 9.48213 13.5388C9.55089 13.3702 9.65233 13.2169 9.78061 13.0877C9.90889 12.9585 10.0615 12.856 10.2295 12.786C10.3976 12.716 10.5779 12.68 10.76 12.68H24.22C24.4958 12.6772 24.7662 12.7564 24.9968 12.9077C25.2274 13.059 25.4077 13.2755 25.515 13.5296C25.6222 13.7837 25.6514 14.0639 25.5988 14.3347C25.5463 14.6054 25.4144 14.8544 25.22 15.05C24.9521 15.3095 24.5929 15.4532 24.22 15.45V15.47ZM10.78 13.54C10.7073 13.5424 10.6359 13.5594 10.57 13.59C10.5057 13.6133 10.4475 13.6509 10.4 13.7C10.3488 13.7518 10.3081 13.8129 10.28 13.88C10.2657 13.9493 10.2657 14.0207 10.28 14.09C10.265 14.1558 10.265 14.2242 10.28 14.29C10.3054 14.3556 10.3467 14.414 10.4 14.46C10.4499 14.5087 10.5073 14.5492 10.57 14.58H10.78H24.22H24.43C24.4926 14.5492 24.55 14.5087 24.6 14.46C24.6533 14.414 24.6945 14.3556 24.72 14.29C24.735 14.2242 24.735 14.1558 24.72 14.09C24.7214 14.0175 24.7079 13.9455 24.6804 13.8784C24.6529 13.8113 24.6119 13.7506 24.56 13.7C24.4588 13.5994 24.3226 13.542 24.18 13.54H10.78Z" fill="#6DB746"/>
<path d="M25.58 4.19993C25.464 4.19945 25.3502 4.16841 25.25 4.10993C25.1445 4.04774 25.058 3.95782 25 3.84993L24.14 2.34993L23.51 1.22993C23.3942 0.992256 23.2184 0.788895 23 0.639929C22.7608 0.497902 22.4882 0.421979 22.21 0.419929H12.83C12.5383 0.414711 12.2508 0.490893 12 0.639929C11.7632 0.782067 11.5696 0.986038 11.44 1.22993L10.81 2.34993L9.99999 3.84993C9.94669 3.95745 9.86378 4.04751 9.76103 4.10952C9.65828 4.17152 9.53996 4.20289 9.41999 4.19993H4.71999C4.34509 4.20633 3.98702 4.35671 3.71999 4.61993C3.45483 4.88653 3.30108 5.24407 3.28999 5.61993V33.8999C3.28866 33.9879 3.30577 34.0752 3.34022 34.1561C3.37467 34.2371 3.42568 34.3099 3.48999 34.3699C3.54952 34.4356 3.62204 34.4881 3.70294 34.5243C3.78385 34.5604 3.87138 34.5794 3.95999 34.5799H31.06C31.1486 34.5794 31.2361 34.5604 31.317 34.5243C31.3979 34.4881 31.4705 34.4356 31.53 34.3699C31.5943 34.3099 31.6453 34.2371 31.6798 34.1561C31.7142 34.0752 31.7313 33.9879 31.73 33.8999V5.63993C31.7287 5.44951 31.6899 5.26122 31.6158 5.08579C31.5417 4.91037 31.4338 4.75126 31.2982 4.61754C31.1627 4.48383 31.0021 4.37812 30.8256 4.30647C30.6492 4.23481 30.4604 4.19861 30.27 4.19993H25.58ZM12.84 2.69993C12.8994 2.59572 12.9858 2.50938 13.09 2.44993C13.1867 2.38272 13.3022 2.34772 13.42 2.34993H21.58C21.6978 2.34772 21.8132 2.38272 21.91 2.44993C22.0136 2.50686 22.0973 2.59408 22.15 2.69993L23 4.19993H12L12.84 2.69993ZM29.75 31.9999C29.7507 32.1754 29.6824 32.3442 29.56 32.4699C29.4973 32.5336 29.4226 32.584 29.3402 32.6184C29.2578 32.6527 29.1693 32.6703 29.08 32.6699H5.85999C5.69429 32.6526 5.54098 32.5742 5.42999 32.4499C5.37176 32.3905 5.32588 32.3202 5.29498 32.2429C5.26409 32.1657 5.2488 32.0831 5.24999 31.9999V6.78993C5.24932 6.61442 5.31754 6.44566 5.43999 6.31993C5.56741 6.2001 5.73509 6.13232 5.90999 6.12993H29.19C29.277 6.12858 29.3635 6.14473 29.4441 6.17742C29.5248 6.21011 29.5981 6.25867 29.6597 6.32023C29.7212 6.38179 29.7698 6.45508 29.8025 6.53577C29.8352 6.61645 29.8513 6.70288 29.85 6.78993L29.75 31.9999Z" fill="#6DB746"/>
<path d="M31.06 35H3.93998C3.79603 34.9996 3.65364 34.9702 3.52134 34.9135C3.38903 34.8568 3.26953 34.7739 3.16998 34.67C2.96818 34.4641 2.85356 34.1883 2.84998 33.9V5.63998C2.84997 5.1431 3.04667 4.66643 3.39707 4.31414C3.74748 3.96186 4.2231 3.76262 4.71998 3.75998H9.40998C9.43026 3.76973 9.45247 3.7748 9.47498 3.7748C9.49748 3.7748 9.51969 3.76973 9.53998 3.75998C9.55917 3.75188 9.57631 3.73959 9.59015 3.72402C9.60399 3.70845 9.61418 3.68999 9.61998 3.66998L11.11 0.99998C11.2852 0.688333 11.5407 0.429346 11.85 0.24998C12.1538 0.073727 12.4987 -0.0193962 12.85 -0.0200195H22.2C22.5512 -0.0193962 22.8961 0.073727 23.2 0.24998C23.5313 0.420564 23.8084 0.68033 24 0.99998L25.48 3.61998C25.4994 3.65898 25.531 3.69058 25.57 3.70998C25.5887 3.71888 25.6092 3.72349 25.63 3.72349C25.6507 3.72349 25.6712 3.71888 25.69 3.70998H30.31C30.8086 3.70998 31.2868 3.90805 31.6393 4.26062C31.9919 4.61319 32.19 5.09137 32.19 5.58998V33.9C32.1864 34.1883 32.0718 34.4641 31.87 34.67C31.7704 34.7739 31.6509 34.8568 31.5186 34.9135C31.3863 34.9702 31.2439 34.9996 31.1 35H31.06ZM4.71998 4.61998C4.58599 4.6192 4.4532 4.64535 4.32952 4.69689C4.20583 4.74842 4.09377 4.82429 3.99998 4.91998C3.80843 5.11155 3.69751 5.36918 3.68998 5.63998V33.9C3.69351 33.9629 3.71817 34.0228 3.75998 34.07C3.78349 34.0935 3.81164 34.1118 3.84262 34.1239C3.87361 34.1359 3.90676 34.1414 3.93998 34.14H31.06C31.0932 34.1414 31.1263 34.1359 31.1573 34.1239C31.1883 34.1118 31.2165 34.0935 31.24 34.07C31.2818 34.0228 31.3064 33.9629 31.31 33.9V5.63998C31.3024 5.36918 31.1915 5.11155 31 4.91998C30.905 4.82307 30.7913 4.74649 30.6658 4.69492C30.5403 4.64334 30.4056 4.61785 30.27 4.61998H25.58C25.3764 4.62568 25.1753 4.57367 25 4.46998C24.8305 4.37058 24.6894 4.22942 24.59 4.05998L23.15 1.43998C23.0617 1.25472 22.9186 1.1011 22.74 0.99998C22.5666 0.900436 22.3699 0.848676 22.17 0.84998H12.83C12.6301 0.848676 12.4334 0.900436 12.26 0.99998C12.0829 1.09847 11.9399 1.24842 11.85 1.42998L10.38 4.05998C10.2806 4.22942 10.1394 4.37058 9.96998 4.46998C9.80027 4.56962 9.60676 4.62145 9.40998 4.61998H4.71998ZM29.22 33.08H5.85998C5.57169 33.0764 5.29589 32.9618 5.08998 32.76C4.98721 32.6616 4.90509 32.5437 4.84843 32.4132C4.79176 32.2827 4.76169 32.1422 4.75998 32V6.78998C4.76048 6.49518 4.87517 6.21203 5.07998 5.99998C5.18256 5.89797 5.30426 5.8172 5.4381 5.76229C5.57195 5.70738 5.71531 5.67941 5.85998 5.67998H29.14C29.2846 5.67941 29.428 5.70738 29.5618 5.76229C29.6957 5.8172 29.8174 5.89797 29.92 5.99998C30.1224 6.20954 30.2369 6.48864 30.24 6.77998V32C30.2396 32.1439 30.2102 32.2863 30.1535 32.4186C30.0968 32.5509 30.0139 32.6704 29.91 32.77C29.7041 32.9718 29.4283 33.0864 29.14 33.09L29.22 33.08ZM5.85998 6.54998C5.82835 6.54933 5.79693 6.55521 5.76768 6.56726C5.73843 6.5793 5.71197 6.59725 5.68998 6.61998C5.66674 6.64159 5.64845 6.66797 5.63637 6.69732C5.62428 6.72666 5.61869 6.75827 5.61998 6.78998V32C5.61076 32.0293 5.61076 32.0607 5.61998 32.09C5.63066 32.1199 5.64772 32.1472 5.66998 32.17L5.74998 32.22H29.23L29.31 32.17C29.3322 32.1472 29.3493 32.1199 29.36 32.09C29.3692 32.0607 29.3692 32.0293 29.36 32V6.78998C29.3692 6.76069 29.3692 6.72927 29.36 6.69998C29.3493 6.67001 29.3322 6.64272 29.31 6.61998C29.2878 6.59458 29.2606 6.57414 29.23 6.55998H5.85998V6.54998ZM23.73 4.61998H11.27L12.48 2.48998C12.572 2.32164 12.7064 2.1803 12.87 2.07998C13.0366 1.98162 13.2265 1.92982 13.42 1.92998H21.58C21.7734 1.92982 21.9634 1.98162 22.13 2.07998C22.2935 2.1803 22.428 2.32164 22.52 2.48998L23.73 4.61998ZM12.73 3.75998H22.25L21.78 2.90998C21.7585 2.86983 21.7277 2.8355 21.69 2.80998C21.6505 2.80098 21.6095 2.80098 21.57 2.80998H13.42C13.3805 2.80098 13.3395 2.80098 13.3 2.80998C13.2623 2.8355 13.2314 2.86983 13.21 2.90998L12.73 3.75998Z" fill="#6DB746"/>
</g>
<defs>
<clipPath id="clip0_668_4445">
<rect width="35" height="35" fill="white"/>
</clipPath>
</defs>
</svg>
