<svg width="35" height="35" viewBox="0 0 35 35" fill="none" xmlns="http://www.w3.org/2000/svg">
<g clip-path="url(#clip0_668_4548)">
<path d="M28.94 34.51H28.57C23.6881 33.9748 18.9978 32.311 14.87 29.65C11.0468 27.2203 7.80376 23.9806 5.37 20.16C2.69321 16.0318 1.02496 11.3319 0.500002 6.43999C0.449665 5.87547 0.517786 5.30666 0.700002 4.76999C0.875758 4.23632 1.16197 3.74567 1.54 3.32999C1.92154 2.90867 2.38409 2.56856 2.9 2.32999C3.41367 2.10527 3.96938 1.99276 4.53 1.99999H9.14C10.1151 1.9914 11.0598 2.33931 11.7964 2.97832C12.533 3.61734 13.0108 4.50342 13.14 5.46999C13.3195 6.86966 13.6549 8.24487 14.14 9.56999C14.4103 10.2953 14.4693 11.0825 14.31 11.84C14.151 12.5971 13.7758 13.2918 13.23 13.84L11.81 15.25C13.7756 18.459 16.4811 21.1507 19.7 23.1L21.12 21.68C21.6682 21.1342 22.3629 20.759 23.12 20.6C23.8774 20.4396 24.6649 20.4986 25.39 20.77C26.7158 21.2528 28.0908 21.5882 29.49 21.77C30.4831 21.8919 31.3944 22.3816 32.0442 23.1425C32.6939 23.9033 33.035 24.8801 33 25.88V30.46C33 31.5209 32.5786 32.5383 31.8284 33.2884C31.0783 34.0386 30.0609 34.46 29 34.46L28.94 34.51ZM9.17 3.99999H4.53C4.24399 3.99731 3.9605 4.05366 3.69724 4.1655C3.43399 4.27734 3.19663 4.44227 3 4.64999C2.79921 4.86017 2.64876 5.1132 2.56 5.38999C2.46671 5.66647 2.43264 5.95948 2.46 6.24999C2.94889 10.8291 4.50377 15.2301 7 19.1C9.29118 22.6797 12.3352 25.7169 15.92 28C19.7872 30.4978 24.1836 32.0592 28.76 32.56C29.0472 32.5862 29.3367 32.5522 29.61 32.46C29.8868 32.3712 30.1398 32.2208 30.35 32.02C30.5677 31.8215 30.7414 31.5797 30.86 31.31C30.9767 31.0456 31.0347 30.759 31.03 30.47V25.84C31.0471 25.3285 30.8724 24.8291 30.54 24.44C30.2076 24.046 29.7408 23.7894 29.23 23.72C27.6867 23.5092 26.171 23.1303 24.71 22.59C24.3327 22.4507 23.924 22.4196 23.53 22.5C23.1532 22.5955 22.8083 22.7886 22.53 23.06L20.54 25C20.388 25.1452 20.1941 25.2388 19.9859 25.2675C19.7776 25.2963 19.5656 25.2586 19.38 25.16C15.3836 22.8948 12.0736 19.5917 9.8 15.6C9.70402 15.4092 9.67165 15.1926 9.70764 14.9821C9.74363 14.7716 9.84608 14.5781 10 14.43L12 12.48C12.2779 12.2067 12.4722 11.8598 12.56 11.48C12.6407 11.0893 12.6095 10.6838 12.47 10.31C11.9297 8.84901 11.5508 7.33334 11.34 5.78999C11.2617 5.27699 10.9971 4.81084 10.5968 4.48062C10.1965 4.15041 9.68853 3.97929 9.17 3.99999ZM27.4 14.62C27.1675 14.6252 26.9404 14.5491 26.7579 14.4049C26.5753 14.2607 26.4488 14.0574 26.4 13.83C26.148 12.521 25.5067 11.3185 24.56 10.38C23.6174 9.43875 22.4168 8.79838 21.11 8.53999C20.9575 8.54945 20.8049 8.52385 20.6639 8.46517C20.5229 8.40648 20.3972 8.31627 20.2964 8.20145C20.1957 8.08663 20.1226 7.95025 20.0827 7.80279C20.0429 7.65533 20.0373 7.5007 20.0665 7.35076C20.0957 7.20083 20.1589 7.05957 20.2512 6.93784C20.3434 6.8161 20.4624 6.71713 20.5988 6.6485C20.7353 6.57988 20.8857 6.54343 21.0384 6.54195C21.1912 6.54048 21.3422 6.57401 21.48 6.63999C23.1679 6.96812 24.7194 7.79239 25.9361 9.00733C27.1529 10.2223 27.9794 11.7726 28.31 13.46C28.3519 13.7124 28.2954 13.9714 28.1522 14.1834C28.0089 14.3955 27.7898 14.5446 27.54 14.6L27.4 14.62ZM33.54 14.62C33.2973 14.6224 33.0621 14.5365 32.8781 14.3782C32.6941 14.22 32.574 14.0003 32.54 13.76C32.2148 10.8678 30.9181 8.17136 28.8619 6.11154C26.8058 4.05172 24.1117 2.7503 21.22 2.41999C20.9672 2.38506 20.7373 2.2548 20.5774 2.05587C20.4175 1.85694 20.3397 1.6044 20.36 1.34999C20.395 1.0953 20.5267 0.863856 20.7278 0.703715C20.9289 0.543573 21.184 0.467034 21.44 0.489989C24.7685 0.85721 27.8739 2.34312 30.2481 4.70464C32.6224 7.06616 34.1249 10.1635 34.51 13.49C34.533 13.746 34.4564 14.0011 34.2963 14.2022C34.1361 14.4033 33.9047 14.535 33.65 14.57L33.54 14.62Z" fill="#5A6B6A"/>
<path d="M28.94 35H28.53C23.5691 34.4644 18.8022 32.7761 14.61 30.07C10.7398 27.5902 7.45968 24.293 5 20.41C2.26546 16.226 0.552735 11.4577 -2.58163e-06 6.49C-0.0571987 5.85334 0.0246922 5.21186 0.239997 4.61C0.451962 4.00978 0.793362 3.46354 1.24 3.01C1.64322 2.54655 2.14106 2.17487 2.7 1.92C3.27556 1.66206 3.89928 1.52914 4.53 1.53H9.2C10.284 1.54033 11.3285 1.9382 12.1447 2.65167C12.9609 3.36513 13.4948 4.3471 13.65 5.42C13.829 6.78723 14.1646 8.12937 14.65 9.42C14.9594 10.244 15.0253 11.1396 14.84 12C14.6596 12.8472 14.2396 13.6247 13.63 14.24L12.48 15.38C14.3098 18.2564 16.751 20.6942 19.63 22.52L20.78 21.38C21.3946 20.7688 22.1733 20.3489 23.0218 20.1714C23.8702 19.9939 24.7519 20.0664 25.56 20.38C26.8528 20.8584 28.1942 21.1937 29.56 21.38C30.6597 21.5298 31.6656 22.0798 32.3851 22.9248C33.1047 23.7698 33.4874 24.8505 33.46 25.96V30.53C33.4694 31.1605 33.3396 31.7853 33.08 32.36C32.8302 32.9392 32.4604 33.4589 31.995 33.8847C31.5296 34.3104 30.9791 34.6326 30.38 34.83C29.9127 34.9659 29.4261 35.0234 28.94 35ZM9.2 2.51H4.53C4.03438 2.50896 3.54397 2.61112 3.09 2.81C2.64086 3.01157 2.23634 3.30052 1.9 3.66C1.57092 4.02582 1.31921 4.45441 1.16 4.92C1.00198 5.39288 0.94741 5.89419 0.999997 6.39C1.51629 11.1971 3.1498 15.8168 5.77 19.88C8.17061 23.6421 11.3653 26.8334 15.13 29.23C19.1945 31.8475 23.8135 33.4808 28.62 34C29.1098 34.0416 29.603 33.9837 30.07 33.83C30.5421 33.6736 30.9751 33.4179 31.34 33.08C31.707 32.7503 31.9972 32.3441 32.19 31.89C32.3878 31.4392 32.4899 30.9523 32.49 30.46V25.88C32.5116 25.0074 32.2127 24.1572 31.65 23.49C31.0797 22.8257 30.2869 22.392 29.42 22.27C27.9874 22.0927 26.5788 21.7574 25.22 21.27C24.5822 21.026 23.887 20.9738 23.22 21.12C22.5493 21.2771 21.9382 21.6243 21.46 22.12L19.77 23.8L19.45 23.6C16.187 21.605 13.445 18.863 11.45 15.6L11.25 15.27L12.94 13.58C13.4336 13.1041 13.7806 12.4969 13.94 11.83C14.0833 11.1628 14.0312 10.4684 13.79 9.83C13.2796 8.46815 12.9273 7.05221 12.74 5.61C12.6132 4.7752 12.1914 4.01349 11.5511 3.46307C10.9108 2.91266 10.0944 2.60999 9.25 2.61L9.2 2.51ZM28.93 33.06H28.72C24.0659 32.5463 19.5949 30.9579 15.66 28.42C12.0187 26.1146 8.92355 23.0433 6.59 19.42C4.05094 15.4678 2.47849 10.9731 2 6.3C1.95948 5.93885 2.00049 5.5732 2.12 5.23C2.23466 4.89237 2.41859 4.58241 2.66 4.32C2.90256 4.05376 3.19917 3.84238 3.53 3.7C3.84421 3.55734 4.18492 3.48238 4.53 3.48H9.17C9.78575 3.48121 10.3811 3.70092 10.85 4.1C11.3279 4.50314 11.6382 5.07014 11.72 5.69C11.9242 7.20009 12.2965 8.68262 12.83 10.11C13.0008 10.5702 13.039 11.0692 12.94 11.55C12.8389 12.0316 12.5991 12.4731 12.25 12.82L10.3 14.77C10.2237 14.8459 10.1746 14.9448 10.1601 15.0515C10.1457 15.1581 10.1667 15.2665 10.22 15.36C12.4548 19.2736 15.7017 22.5135 19.62 24.74C19.7128 24.7893 19.8188 24.8081 19.9229 24.7938C20.0271 24.7794 20.124 24.7326 20.2 24.66L22.15 22.72C22.4953 22.3578 22.9411 22.107 23.43 22C23.9135 21.891 24.4185 21.9293 24.88 22.11C26.3036 22.6405 27.7832 23.0062 29.29 23.2C29.9199 23.2909 30.4955 23.6071 30.91 24.09C31.3192 24.572 31.5364 25.1879 31.52 25.82V30.44C31.5167 30.785 31.4418 31.1255 31.3 31.44C31.1576 31.7708 30.9462 32.0674 30.68 32.31C30.414 32.5517 30.1007 32.7355 29.76 32.85C29.4967 32.9649 29.2163 33.0358 28.93 33.06ZM4.53 4.45C4.30585 4.45003 4.08428 4.49775 3.88 4.59C3.67152 4.68585 3.48548 4.82437 3.3339 4.99663C3.18231 5.16888 3.06856 5.37103 3 5.59C2.9288 5.79883 2.90156 6.02013 2.92 6.24C3.41589 10.729 4.95339 15.0402 7.41 18.83C9.65575 22.3576 12.6498 25.3483 16.18 27.59C19.9858 30.0438 24.3093 31.5808 28.81 32.08C29.0266 32.0979 29.2445 32.0707 29.45 32C29.664 31.9264 29.8612 31.8108 30.03 31.66C30.1928 31.5084 30.3223 31.3245 30.41 31.12C30.5003 30.9151 30.5479 30.6939 30.55 30.47V25.86C30.5636 25.4559 30.4284 25.0609 30.17 24.75C29.9144 24.4514 29.559 24.256 29.17 24.2C27.5925 23.9873 26.0432 23.6016 24.55 23.05C24.2604 22.9403 23.9454 22.9159 23.6423 22.9797C23.3392 23.0435 23.0608 23.1928 22.84 23.41L20.9 25.35C20.6712 25.57 20.3785 25.7118 20.0641 25.7549C19.7496 25.798 19.4296 25.7403 19.15 25.59C15.078 23.2748 11.7035 19.9072 9.38 15.84C9.22417 15.5602 9.16333 15.2373 9.2066 14.92C9.24988 14.6026 9.39494 14.3079 9.62 14.08L11.62 12.14C11.8323 11.922 11.978 11.6479 12.04 11.35C12.1103 11.0507 12.0894 10.7373 11.98 10.45C11.4204 8.9552 11.0313 7.40205 10.82 5.82C10.7703 5.43123 10.5778 5.07482 10.28 4.82C9.9875 4.56929 9.61523 4.43102 9.23 4.43L4.53 4.45ZM27.4 15.1C27.0679 15.0948 26.7477 14.9758 26.4929 14.7628C26.2381 14.5498 26.0641 14.2559 26 13.93C25.7648 12.7156 25.1688 11.6004 24.29 10.73C23.4088 9.84034 22.2795 9.23738 21.05 9C20.8623 8.96506 20.6834 8.89313 20.5237 8.78841C20.3641 8.68369 20.2268 8.54825 20.12 8.39C19.9052 8.06641 19.8261 7.67133 19.9 7.29C19.9351 7.1011 20.0081 6.92128 20.1146 6.76143C20.2212 6.60158 20.3591 6.46501 20.52 6.36C20.677 6.25082 20.8548 6.17497 21.0422 6.13714C21.2297 6.0993 21.4229 6.10027 21.61 6.14C23.3945 6.48648 25.0349 7.35777 26.3212 8.64226C27.6075 9.92676 28.481 11.566 28.83 13.35C28.9035 13.7292 28.8237 14.122 28.6082 14.4425C28.3926 14.763 28.0589 14.985 27.68 15.06C27.5883 15.083 27.4945 15.0964 27.4 15.1ZM21.33 7.1C21.2325 7.09926 21.1375 7.13092 21.06 7.19C20.9517 7.26146 20.8762 7.37294 20.85 7.5C20.8308 7.62578 20.8594 7.75418 20.93 7.86C21.0015 7.96828 21.1129 8.0438 21.24 8.07C22.6437 8.3421 23.9342 9.02712 24.9462 10.0373C25.9581 11.0475 26.6454 12.3368 26.92 13.74C26.9319 13.8027 26.9562 13.8623 26.9915 13.9155C27.0267 13.9686 27.0722 14.0142 27.1253 14.0496C27.1783 14.085 27.2379 14.1094 27.3005 14.1215C27.3632 14.1336 27.4276 14.1331 27.49 14.12C27.5531 14.1111 27.6134 14.0886 27.667 14.0541C27.7205 14.0195 27.7659 13.9738 27.8 13.92C27.836 13.8662 27.8608 13.8057 27.8728 13.7421C27.8848 13.6786 27.8839 13.6132 27.87 13.55C27.5668 11.9551 26.7855 10.4903 25.63 9.35C24.4821 8.19929 23.0157 7.41905 21.42 7.11L21.33 7.1ZM33.54 15.1C33.1813 15.0975 32.8359 14.964 32.5688 14.7246C32.3018 14.4851 32.1315 14.1563 32.09 13.8C31.7755 11.0151 30.5232 8.42 28.5387 6.441C26.5543 4.462 23.9557 3.21681 21.17 2.91C20.7841 2.86889 20.4304 2.67617 20.1866 2.37424C19.9428 2.0723 19.8289 1.68589 19.87 1.3C19.9111 0.914108 20.1038 0.560353 20.4058 0.316556C20.7077 0.0727586 21.0941 -0.0411107 21.48 -2.18116e-06C24.9278 0.377472 28.1445 1.91668 30.6016 4.36465C33.0586 6.81261 34.6097 10.0237 35 13.47C35.0422 13.853 34.9314 14.2371 34.6916 14.5387C34.4519 14.8402 34.1026 15.0348 33.72 15.08L33.54 15.1ZM21.33 0.999998C21.2109 0.99935 21.0958 1.043 21.0071 1.12247C20.9184 1.20194 20.8624 1.31155 20.85 1.43C20.8359 1.55853 20.8732 1.68742 20.9538 1.78857C21.0343 1.88972 21.1516 1.95493 21.28 1.97C24.2811 2.29932 27.0814 3.63844 29.2217 5.76784C31.362 7.89724 32.7154 10.6906 33.06 13.69C33.0745 13.8076 33.1311 13.9159 33.2194 13.995C33.3076 14.0741 33.4215 14.1185 33.54 14.12H33.6C33.7284 14.1049 33.8457 14.0397 33.9262 13.9386C34.0068 13.8374 34.0441 13.7085 34.03 13.58C33.6598 10.3613 32.2076 7.36378 29.9112 5.0783C27.6148 2.79282 24.6104 1.35488 21.39 0.999998H21.33Z" fill="#5A6B6A"/>
</g>
<defs>
<clipPath id="clip0_668_4548">
<rect width="35" height="35" fill="white"/>
</clipPath>
</defs>
</svg>
