<svg width="35" height="35" viewBox="0 0 35 35" fill="none" xmlns="http://www.w3.org/2000/svg">
<g clip-path="url(#clip0_668_4512)">
<path d="M17.5001 34.58C14.1219 34.58 10.8197 33.5783 8.01091 31.7015C5.20212 29.8247 3.01293 27.1572 1.72019 24.0362C0.427445 20.9153 0.0892035 17.481 0.748239 14.1678C1.40727 10.8547 3.03399 7.81129 5.42267 5.42261C7.81135 3.03393 10.8547 1.40721 14.1679 0.748178C17.4811 0.0891424 20.9153 0.427383 24.0363 1.72013C27.1572 3.01287 29.8248 5.20206 31.7016 8.01085C33.5783 10.8196 34.5801 14.1219 34.5801 17.5C34.5754 22.0285 32.7744 26.3701 29.5723 29.5723C26.3702 32.7744 22.0285 34.5754 17.5001 34.58ZM17.5001 2.27499C14.4888 2.27499 11.5452 3.16792 9.0415 4.84087C6.53776 6.51381 4.58633 8.89163 3.43399 11.6736C2.28164 14.4556 1.98014 17.5169 2.5676 20.4702C3.15506 23.4236 4.6051 26.1364 6.73435 28.2657C8.86361 30.3949 11.5764 31.845 14.5298 32.4324C17.4832 33.0199 20.5444 32.7184 23.3264 31.5661C26.1084 30.4137 28.4862 28.4623 30.1592 25.9585C31.8321 23.4548 32.7251 20.5112 32.7251 17.5C32.7204 13.4635 31.1149 9.59364 28.2606 6.73941C25.4064 3.88517 21.5366 2.27962 17.5001 2.27499Z" fill="#6DB746"/>
<path d="M17.5 35C14.0388 35 10.6554 33.9736 7.77753 32.0507C4.89967 30.1278 2.65665 27.3947 1.33212 24.197C0.00758247 20.9993 -0.338976 17.4806 0.336266 14.0859C1.01151 10.6913 2.67822 7.57306 5.12564 5.12564C7.57306 2.67822 10.6913 1.01151 14.0859 0.336266C17.4806 -0.338976 20.9993 0.00758247 24.197 1.33212C27.3947 2.65665 30.1278 4.89967 32.0507 7.77753C33.9736 10.6554 35 14.0388 35 17.5C35 22.1413 33.1563 26.5925 29.8744 29.8744C26.5925 33.1563 22.1413 35 17.5 35ZM17.5 0.857508C14.2084 0.857508 10.9908 1.83357 8.25393 3.66228C5.51708 5.49098 3.38397 8.09018 2.12434 11.1312C0.864711 14.1722 0.535134 17.5185 1.17729 20.7468C1.81944 23.9751 3.40449 26.9405 5.73198 29.268C8.05948 31.5955 11.0249 33.1806 14.2532 33.8227C17.4815 34.4649 20.8278 34.1353 23.8688 32.8757C26.9098 31.616 29.509 29.4829 31.3377 26.7461C33.1664 24.0092 34.1425 20.7916 34.1425 17.5C34.1333 13.089 32.3769 8.86127 29.2578 5.7422C26.1387 2.62313 21.911 0.866755 17.5 0.857508ZM17.5 33.25C14.385 33.25 11.3399 32.3263 8.74978 30.5957C6.1597 28.865 4.14099 26.4052 2.94891 23.5273C1.75683 20.6493 1.44492 17.4825 2.05264 14.4273C2.66036 11.3721 4.1604 8.56575 6.36308 6.36308C8.56575 4.1604 11.3721 2.66036 14.4273 2.05264C17.4825 1.44492 20.6493 1.75683 23.5273 2.94891C26.4052 4.14099 28.865 6.1597 30.5957 8.74978C32.3263 11.3399 33.25 14.385 33.25 17.5C33.25 21.6772 31.5906 25.6832 28.6369 28.6369C25.6832 31.5906 21.6772 33.25 17.5 33.25ZM17.5 2.69501C14.5719 2.69501 11.7095 3.56331 9.27479 5.1901C6.84012 6.81689 4.94253 9.12912 3.82197 11.8344C2.70142 14.5396 2.40823 17.5164 2.97948 20.3883C3.55074 23.2602 4.96078 25.8982 7.03129 27.9687C9.10181 30.0392 11.7398 31.4493 14.6117 32.0205C17.4836 32.5918 20.4604 32.2986 23.1656 31.178C25.8709 30.0575 28.1831 28.1599 29.8099 25.7252C31.4367 23.2906 32.305 20.4282 32.305 17.5C32.2958 13.5763 30.733 9.81598 27.9585 7.0415C25.184 4.26703 21.4237 2.70425 17.5 2.69501Z" fill="#6DB746"/>
<path d="M10.395 24.0625L11.8125 22.0675C12.564 22.8705 13.4716 23.5113 14.4798 23.9507C15.4879 24.3901 16.5753 24.6187 17.675 24.6225C20.4225 24.6225 21.9275 23.3275 21.9275 21.5425C21.9275 17.22 10.885 19.7925 10.885 13.265C10.885 10.5 13.2475 8.12002 17.5 8.12002C18.7212 8.07588 19.9384 8.28299 21.0763 8.7285C22.2142 9.17402 23.2484 9.84846 24.115 10.71L22.75 12.635C22.0879 11.9044 21.2764 11.3247 20.3706 10.9352C19.4648 10.5457 18.4858 10.3555 17.5 10.3775C15.0675 10.3775 13.545 11.6025 13.545 13.195C13.545 17.08 24.605 14.525 24.605 21.4725C24.605 24.465 22.19 26.88 17.605 26.88C16.2734 26.9372 14.9445 26.7162 13.7031 26.2311C12.4617 25.746 11.335 25.0074 10.395 24.0625Z" fill="#6DB746"/>
<path d="M17.605 27.3C16.2181 27.3583 14.8342 27.127 13.5416 26.6208C12.249 26.1146 11.0761 25.3446 10.0975 24.36L9.85254 24.0975L11.7775 21.3675L12.1275 21.7875C12.8427 22.5406 13.7029 23.1412 14.6562 23.5532C15.6096 23.9652 16.6365 24.1801 17.675 24.185C20.0375 24.185 21.5075 23.1875 21.5075 21.5425C21.5075 19.8975 19.88 19.5475 17.185 18.9C14.1925 18.165 10.5 17.255 10.5 13.265C10.5 10.5 12.635 7.69998 17.5 7.69998C18.7974 7.65386 20.0902 7.87908 21.2955 8.36123C22.5009 8.84337 23.5923 9.57183 24.5 10.5L24.745 10.745L22.995 13.44L22.6275 13.0025C21.9897 12.279 21.1984 11.7071 20.3113 11.3287C19.4241 10.9502 18.4637 10.7747 17.5 10.815C15.4175 10.815 14 11.795 14 13.195C14 14.595 15.5225 14.945 18.0075 15.47C21.1575 16.2225 25.0075 17.22 25.0075 21.4725C25.025 25.0075 22.12 27.3 17.605 27.3ZM10.955 24.01C12.7618 25.67 15.1536 26.5449 17.605 26.4425C21.595 26.4425 24.1675 24.5 24.1675 21.4725C24.1675 17.8325 20.93 17.0625 17.78 16.31C15.3825 15.75 13.125 15.19 13.125 13.195C13.125 11.2 14.875 9.95748 17.5 9.95748C19.4419 9.92003 21.3231 10.6349 22.75 11.9525L23.555 10.78C21.9029 9.27937 19.7307 8.48207 17.5 8.55748C13.79 8.55748 11.305 10.5 11.305 13.265C11.305 16.59 14.4025 17.3425 17.3775 18.0775C19.95 18.69 22.365 19.285 22.365 21.5775C22.365 23.87 20.615 25.0775 17.675 25.0775C15.5089 25.0623 13.4281 24.2313 11.8475 22.75L10.955 24.01Z" fill="#6DB746"/>
</g>
<defs>
<clipPath id="clip0_668_4512">
<rect width="35" height="35" fill="white"/>
</clipPath>
</defs>
</svg>
