<svg width="35" height="35" viewBox="0 0 35 35" fill="none" xmlns="http://www.w3.org/2000/svg">
<g clip-path="url(#clip0_668_4471)">
<path d="M17.32 34.5H17.25C15.9985 34.433 14.8178 33.8983 13.9417 33.0019C13.0657 32.1055 12.5583 30.9128 12.52 29.66L14.22 29.6C14.2583 30.4474 14.6195 31.248 15.2294 31.8375C15.8394 32.427 16.6518 32.7607 17.5 32.7701H17.76C18.5719 32.7051 19.3301 32.3386 19.8854 31.7427C20.4406 31.1467 20.7526 30.3645 20.76 29.55H22.46C22.4473 30.8486 21.9299 32.0913 21.0173 33.0152C20.1046 33.939 18.8683 34.4715 17.57 34.5H17.32Z" fill="#6DB746" stroke="#6DB746" stroke-miterlimit="10"/>
<path d="M33.65 28.83H1.34998V28C1.36577 26.8945 1.64094 25.8083 2.15333 24.8287C2.66572 23.849 3.40101 23.0034 4.29998 22.36V15.73C4.36211 13.0062 5.33272 10.3812 7.05759 8.27227C8.78246 6.16329 11.1626 4.69123 13.82 4.08996V3.99996C13.8303 3.52806 13.9339 3.06287 14.1247 2.63116C14.3156 2.19945 14.5899 1.80974 14.9319 1.48445C15.2739 1.15916 15.6769 0.90471 16.1176 0.735752C16.5584 0.566794 17.0282 0.486658 17.5 0.499956C17.9718 0.486658 18.4416 0.566794 18.8823 0.735752C19.3231 0.90471 19.726 1.15916 20.068 1.48445C20.4101 1.80974 20.6844 2.19945 20.8752 2.63116C21.066 3.06287 21.1696 3.52806 21.18 3.99996V4.10996C23.8341 4.71038 26.2118 6.17948 27.9363 8.2844C29.6608 10.3893 30.6334 13.0096 30.7 15.73V22.35C31.6003 22.9944 32.3364 23.8416 32.8489 24.8231C33.3613 25.8046 33.6357 26.8928 33.65 28V28.83ZM3.10998 27.22H31.89C31.7617 26.4459 31.4719 25.7075 31.0395 25.0528C30.607 24.3981 30.0416 23.8417 29.38 23.42L29 23.17V15.73C28.9411 13.2675 28.0265 10.9024 26.4133 9.04107C24.8001 7.17969 22.5891 5.93823 20.16 5.52996L19.48 5.39996V3.99996C19.48 3.46952 19.2693 2.96082 18.8942 2.58574C18.5191 2.21067 18.0104 1.99996 17.48 1.99996C16.9495 1.99996 16.4408 2.21067 16.0658 2.58574C15.6907 2.96082 15.48 3.46952 15.48 3.99996V5.38996L14.8 5.51996C12.3782 5.93657 10.1765 7.18165 8.57125 9.04223C6.96604 10.9028 6.05713 13.2633 5.99998 15.72V23.17L5.61998 23.42C4.95834 23.8417 4.3929 24.3981 3.96046 25.0528C3.52801 25.7075 3.23823 26.4459 3.10998 27.22Z" fill="#6DB746" stroke="#6DB746" stroke-miterlimit="10"/>
</g>
<defs>
<clipPath id="clip0_668_4471">
<rect width="35" height="35" fill="white"/>
</clipPath>
</defs>
</svg>
