<svg width="35" height="35" viewBox="0 0 35 35" fill="none" xmlns="http://www.w3.org/2000/svg">
<g clip-path="url(#clip0_668_4477)">
<path d="M6.00004 15.75C5.77798 14.6465 5.33585 13.5989 4.70004 12.67C4.08091 11.7375 3.27783 10.9412 2.34004 10.33C1.74792 9.91186 1.1021 9.5755 0.420044 9.33002V11.4C1.13688 11.7294 1.78756 12.1869 2.34004 12.75C3.05997 13.4735 3.60398 14.3528 3.93004 15.32C4.25736 16.2841 4.35997 17.3102 4.23004 18.32C4.04761 19.7813 3.38243 21.1398 2.34004 22.18C1.79376 22.7607 1.14223 23.2323 0.420044 23.57V25.57C1.09768 25.3402 1.74296 25.0243 2.34004 24.63C3.75274 23.6833 4.8498 22.3355 5.49004 20.76C6.15915 19.1791 6.33686 17.4333 6.00004 15.75Z" fill="#6DB746"/>
<path d="M0 26.13V23.31L0.24 23.19C0.899116 22.8818 1.49575 22.4546 2 21.93C2.96823 20.9477 3.58063 19.6701 3.74 18.3C3.86953 17.3525 3.78059 16.3879 3.48 15.48C3.18232 14.5689 2.67547 13.7401 2 13.06C1.49385 12.5376 0.89764 12.1108 0.24 11.8L0 11.71V8.84003L0.56 9.00003C1.27076 9.23672 1.94419 9.57344 2.56 10C3.545 10.6433 4.38879 11.4803 5.04 12.46C5.69145 13.4413 6.14024 14.5429 6.36 15.7C6.70189 17.436 6.5245 19.2343 5.85 20.87C5.16895 22.4969 4.02491 23.8879 2.56 24.87C1.94257 25.2939 1.26954 25.6304 0.56 25.87L0 26.13ZM0.86 23.85V24.92C1.29883 24.7223 1.7203 24.4882 2.12 24.22C3.45753 23.3383 4.50198 22.078 5.12 20.6C5.75083 19.1214 5.92159 17.4871 5.61 15.91C5.40056 14.8687 4.98583 13.8794 4.39 13C3.79202 12.1135 3.01963 11.3581 2.12 10.78C1.72619 10.5024 1.30378 10.2677 0.86 10.08V11.19C1.51026 11.5293 2.10125 11.9717 2.61 12.5C3.36749 13.2726 3.94164 14.2056 4.29 15.23C4.637 16.2589 4.74306 17.3537 4.6 18.43C4.40679 19.9837 3.70335 21.4293 2.6 22.54C2.08683 23.059 1.50065 23.5004 0.86 23.85Z" fill="#6DB746"/>
<path d="M32.6601 12.77C33.2102 12.2067 33.8616 11.7521 34.5801 11.43V9.42999C32.6173 10.0953 30.9684 11.4604 29.9483 13.2645C28.9282 15.0685 28.6085 17.1851 29.0501 19.21C29.2569 20.3098 29.6819 21.3571 30.3001 22.29C30.9192 23.2225 31.7223 24.0188 32.6601 24.63C33.2545 25.0444 33.8998 25.3805 34.5801 25.63V23.57C33.602 23.1165 32.7504 22.4297 32.1001 21.57C31.4423 20.7211 30.9989 19.7262 30.8074 18.6696C30.6159 17.6129 30.682 16.5257 31.0001 15.5C31.3262 14.4699 31.8956 13.5335 32.6601 12.77Z" fill="#6DB746"/>
<path d="M35 26.25L34.44 26.06C33.7309 25.8193 33.0581 25.4829 32.44 25.06C30.7128 23.8823 29.4431 22.1464 28.8441 20.1435C28.245 18.1406 28.3531 15.9927 29.15 14.06C29.8311 12.4331 30.9751 11.0422 32.44 10.06C33.0599 9.64025 33.7323 9.30402 34.44 9.06L35 8.87V11.71L34.75 11.83C34.0948 12.1311 33.5014 12.5516 33 13.07C32.0377 14.0496 31.423 15.3177 31.25 16.68C31.1259 17.6304 31.2189 18.5967 31.522 19.506C31.8251 20.4153 32.3305 21.2441 33 21.93C33.5105 22.443 34.1017 22.8686 34.75 23.19L35 23.29V26.25ZM34.14 10.17C33.7012 10.3677 33.2797 10.6019 32.88 10.87C31.5348 11.7485 30.4829 13.0091 29.8593 14.4898C29.2356 15.9705 29.0687 17.6038 29.38 19.18C29.5908 20.227 30.0091 21.2212 30.6102 22.104C31.2113 22.9868 31.9831 23.7402 32.88 24.32C33.2691 24.6051 33.6924 24.8402 34.14 25.02V23.92C33.4898 23.5807 32.8988 23.1383 32.39 22.61C31.09 21.2702 30.3629 19.4768 30.3629 17.61C30.3629 15.7432 31.09 13.9498 32.39 12.61C32.8988 12.0817 33.4898 11.6393 34.14 11.3V10.17Z" fill="#6DB746"/>
<path d="M15.35 15.54C15.5423 15.5433 15.7332 15.5059 15.91 15.43C16.0858 15.3591 16.2456 15.2537 16.38 15.12C16.5164 14.9858 16.6252 14.8261 16.7 14.65C16.8467 14.2911 16.8467 13.8889 16.7 13.53C16.6281 13.3494 16.5191 13.1859 16.38 13.05C16.2388 12.9175 16.0766 12.8094 15.9 12.73C15.7186 12.658 15.5252 12.6207 15.33 12.62C14.9713 12.6596 14.64 12.8306 14.4 13.1C14.1432 13.3696 14 13.7277 14 14.1C14 14.4723 14.1432 14.8304 14.4 15.1C14.64 15.3694 14.9713 15.5404 15.33 15.58L15.35 15.54Z" fill="#6DB746"/>
<path d="M15.3799 16C15.125 15.9971 14.8733 15.9427 14.6399 15.84C14.4043 15.7384 14.1904 15.5924 14.0099 15.41C13.8381 15.2213 13.6995 15.005 13.5999 14.77C13.5115 14.5299 13.4675 14.2758 13.4699 14.02C13.4976 13.6603 13.622 13.3148 13.8299 13.02C13.9901 12.7936 14.1985 12.6057 14.4403 12.4698C14.682 12.3339 14.9509 12.2535 15.2275 12.2344C15.5041 12.2152 15.7815 12.2579 16.0397 12.3591C16.2978 12.4604 16.5302 12.6178 16.7199 12.82C16.9852 13.0942 17.1598 13.4433 17.2199 13.82C17.2891 14.183 17.2509 14.5584 17.1099 14.9C16.958 15.2303 16.7139 15.5098 16.4071 15.7049C16.1002 15.9001 15.7436 16.0025 15.3799 16ZM15.3799 15.14C15.5113 15.14 15.6413 15.1141 15.7626 15.0639C15.884 15.0136 15.9942 14.94 16.0871 14.8471C16.1799 14.7542 16.2536 14.644 16.3038 14.5227C16.3541 14.4014 16.3799 14.2713 16.3799 14.14C16.3867 14.0031 16.3628 13.8665 16.3099 13.74C16.2581 13.6141 16.1835 13.4989 16.0899 13.4C15.9908 13.2995 15.8715 13.2211 15.7399 13.17C15.6104 13.1148 15.4707 13.0875 15.3299 13.09C15.0715 13.0917 14.8226 13.1877 14.6299 13.36C14.4387 13.5415 14.3212 13.7872 14.2999 14.05C14.2882 14.1925 14.307 14.3358 14.3553 14.4704C14.4036 14.6049 14.4802 14.7276 14.5799 14.83C14.704 14.9201 14.8482 14.9784 14.9999 15C15.1287 15.0587 15.2685 15.0893 15.4099 15.09L15.3799 15.14Z" fill="#6DB746"/>
<path d="M23.33 22.38C23.7058 22.3778 24.0654 22.2268 24.33 21.96C24.4708 21.8295 24.5802 21.6688 24.65 21.49C24.7287 21.3138 24.7696 21.123 24.77 20.93C24.7768 20.7354 24.743 20.5415 24.6707 20.3607C24.5984 20.1799 24.4892 20.0162 24.35 19.88C24.2195 19.7392 24.0588 19.6298 23.88 19.56C23.7038 19.4813 23.513 19.4404 23.32 19.44C22.9353 19.4426 22.5669 19.5959 22.294 19.867C22.021 20.138 21.8652 20.5053 21.86 20.89C21.8624 21.2793 22.0161 21.6523 22.2886 21.9304C22.561 22.2084 22.9309 22.3696 23.32 22.38H23.33Z" fill="#6DB746"/>
<path d="M23.35 22.75C22.8487 22.75 22.368 22.5509 22.0135 22.1964C21.6591 21.842 21.46 21.3613 21.46 20.86C21.46 20.3587 21.6591 19.878 22.0135 19.5236C22.368 19.1691 22.8487 18.97 23.35 18.97C23.6003 18.9662 23.8488 19.0139 24.08 19.11C24.4313 19.2518 24.7314 19.4969 24.9403 19.813C25.1492 20.1291 25.2572 20.5012 25.25 20.88C25.2597 21.1276 25.2118 21.3741 25.11 21.6C25.0088 21.83 24.8626 22.0374 24.68 22.21C24.5008 22.3818 24.2903 22.5176 24.06 22.61C23.8358 22.7062 23.5939 22.7539 23.35 22.75ZM23.35 21.89C23.4823 21.8894 23.6132 21.8626 23.735 21.8112C23.8569 21.7597 23.9673 21.6845 24.06 21.59C24.1581 21.4991 24.237 21.3894 24.2919 21.2674C24.3469 21.1455 24.3768 21.0137 24.38 20.88C24.3773 20.5983 24.2704 20.3276 24.08 20.12C23.9611 19.9981 23.8131 19.9087 23.65 19.86C23.4857 19.8197 23.3142 19.8197 23.15 19.86C22.9835 19.891 22.8262 19.9594 22.69 20.06C22.5623 20.1702 22.46 20.3066 22.39 20.46C22.3208 20.617 22.2933 20.7892 22.31 20.96C22.3234 21.1306 22.3783 21.2954 22.47 21.44C22.5651 21.5806 22.6918 21.697 22.84 21.78C22.9904 21.8612 23.1591 21.9025 23.33 21.9L23.35 21.89Z" fill="#6DB746"/>
<path d="M33.6 27.91H1.37996C1.16812 27.9675 0.981107 28.0932 0.847778 28.2676C0.714449 28.442 0.642212 28.6554 0.642212 28.875C0.642212 29.0945 0.714449 29.3079 0.847778 29.4823C0.981107 29.6567 1.16812 29.7824 1.37996 29.84H33.6C33.8118 29.7824 33.9988 29.6567 34.1321 29.4823C34.2655 29.3079 34.3377 29.0945 34.3377 28.875C34.3377 28.6554 34.2655 28.442 34.1321 28.2676C33.9988 28.0932 33.8118 27.9675 33.6 27.91Z" fill="#6DB746"/>
<path d="M33.6201 30.27H1.38005C1.04094 30.2347 0.727174 30.0742 0.500053 29.82C0.28122 29.5673 0.160767 29.2442 0.160767 28.91C0.160767 28.5757 0.28122 28.2526 0.500053 28C0.726149 27.7428 1.0398 27.5788 1.38005 27.54H33.6201C33.963 27.5792 34.2797 27.7429 34.5101 28C34.7365 28.2588 34.8613 28.5911 34.8613 28.935C34.8613 29.2789 34.7365 29.6111 34.5101 29.87C34.2715 30.1065 33.9553 30.2486 33.6201 30.27ZM1.38005 28.35C1.25485 28.375 1.14194 28.442 1.06005 28.54C0.980784 28.6354 0.938224 28.756 0.940053 28.88C0.938432 29.007 0.980833 29.1307 1.06005 29.23C1.14515 29.3241 1.25669 29.3903 1.38005 29.42H33.6201C33.7444 29.3928 33.8567 29.3262 33.9401 29.23C34.0193 29.1307 34.0617 29.007 34.0601 28.88C34.0619 28.756 34.0193 28.6354 33.9401 28.54C33.8599 28.44 33.7462 28.3725 33.6201 28.35H1.38005Z" fill="#6DB746"/>
<path d="M33.6 5.15997H1.37996C1.16812 5.21754 0.981107 5.34322 0.847778 5.51762C0.714449 5.69202 0.642212 5.90545 0.642212 6.12497C0.642212 6.3445 0.714449 6.55793 0.847778 6.73232C0.981107 6.90672 1.16812 7.0324 1.37996 7.08997H33.6C33.8118 7.0324 33.9988 6.90672 34.1321 6.73232C34.2655 6.55793 34.3377 6.3445 34.3377 6.12497C34.3377 5.90545 34.2655 5.69202 34.1321 5.51762C33.9988 5.34322 33.8118 5.21754 33.6 5.15997Z" fill="#6DB746"/>
<path d="M33.62 7.50998H1.38002C1.03977 7.47115 0.726115 7.30719 0.500019 7.04998C0.267428 6.79412 0.13855 6.46076 0.13855 6.11498C0.13855 5.7692 0.267428 5.43584 0.500019 5.17998C0.727141 4.92571 1.04091 4.76526 1.38002 4.72998H33.62C33.9621 4.76473 34.2792 4.92505 34.51 5.17998C34.7365 5.43882 34.8613 5.77106 34.8613 6.11498C34.8613 6.4589 34.7365 6.79114 34.51 7.04998C34.2797 7.30709 33.963 7.47077 33.62 7.50998ZM1.38002 5.57998C1.25665 5.60964 1.14512 5.67587 1.06002 5.76998C0.9808 5.86929 0.938399 5.99296 0.940019 6.11998C0.938191 6.244 0.980751 6.36459 1.06002 6.45998C1.14191 6.55794 1.25481 6.62498 1.38002 6.64998H33.62C33.7461 6.62741 33.8598 6.55991 33.94 6.45998C34.0193 6.36459 34.0618 6.244 34.06 6.11998C34.0616 5.99296 34.0192 5.86929 33.94 5.76998C33.8566 5.67378 33.7444 5.60713 33.62 5.57998H1.38002Z" fill="#6DB746"/>
<path d="M1.38003 5.15001C1.51325 5.14279 1.6465 5.16372 1.77109 5.21142C1.89569 5.25912 2.00884 5.33253 2.10317 5.42687C2.19751 5.52121 2.27092 5.63436 2.31862 5.75895C2.36633 5.88355 2.38725 6.01679 2.38003 6.15001V12.82C1.96742 12.3977 1.49587 12.0373 0.980032 11.75C0.828916 11.6623 0.701814 11.5387 0.610032 11.39C0.5199 11.2381 0.468395 11.0664 0.460032 10.89V6.11001C0.452678 5.86139 0.538246 5.61894 0.700032 5.43001C0.882907 5.2537 1.12603 5.15359 1.38003 5.15001Z" fill="#6DB746"/>
<path d="M2.78 13.81L2.05 13.07C1.65305 12.6834 1.20966 12.3475 0.73 12.07C0.511747 11.9449 0.32926 11.7658 0.2 11.55C0.0691996 11.3363 -1.29732e-05 11.0906 1.82395e-09 10.84V6.10999C0.0392144 5.76702 0.202888 5.45035 0.46 5.21999C0.7148 4.98909 1.04614 4.86083 1.39 4.85999C1.73422 4.8589 2.06623 4.98742 2.32 5.21999C2.57711 5.45035 2.74079 5.76702 2.78 6.10999V13.81ZM1.38 5.57999C1.3091 5.57934 1.23881 5.59321 1.17346 5.62072C1.10812 5.64824 1.04909 5.68882 1 5.73999C0.950923 5.78805 0.912275 5.84571 0.886467 5.90937C0.86066 5.97303 0.848246 6.04132 0.85 6.10999V10.85C0.850523 10.9489 0.878196 11.0457 0.93 11.13C0.981296 11.2165 1.05351 11.2887 1.14 11.34C1.40749 11.4857 1.66475 11.6494 1.91 11.83V6.10999C1.9292 6.04131 1.9292 5.96868 1.91 5.89999C1.88672 5.8357 1.84911 5.77757 1.8 5.72999C1.74723 5.68263 1.68622 5.64535 1.62 5.61999C1.54429 5.58787 1.46204 5.57416 1.38 5.57999Z" fill="#6DB746"/>
<path d="M0.420029 24.17C0.421858 23.9939 0.470153 23.8214 0.560029 23.67C0.655574 23.5209 0.786001 23.3973 0.940029 23.31C1.45872 23.0189 1.93067 22.6515 2.34003 22.22V28.89C2.34204 29.0164 2.31824 29.1419 2.2701 29.2588C2.22195 29.3757 2.15048 29.4816 2.06003 29.57C1.97167 29.6604 1.8658 29.7319 1.74888 29.78C1.63196 29.8282 1.50646 29.852 1.38003 29.85C1.25002 29.8516 1.12094 29.8278 1.00003 29.78C0.885053 29.7289 0.780083 29.6578 0.690029 29.57C0.599583 29.4816 0.528104 29.3757 0.479961 29.2588C0.431819 29.1419 0.408023 29.0164 0.410029 28.89L0.420029 24.17Z" fill="#6DB746"/>
<path d="M1.37995 30.27C1.19426 30.2725 1.00998 30.2374 0.838146 30.167C0.666316 30.0965 0.510474 29.9921 0.379953 29.86C0.246417 29.7305 0.141068 29.5749 0.0705144 29.4028C-3.89293e-05 29.2307 -0.034275 29.0459 -0.0300465 28.86V24.17C-0.0300595 23.9194 0.0391531 23.6737 0.169953 23.46C0.296201 23.2418 0.479404 23.0621 0.699953 22.94C1.18243 22.6668 1.62634 22.3305 2.01995 21.94L2.74995 21.18V28.9C2.75185 29.0856 2.71654 29.2697 2.64613 29.4415C2.57571 29.6132 2.4716 29.7691 2.33995 29.9C2.07745 30.139 1.73495 30.271 1.37995 30.27ZM1.91995 23.17C1.67748 23.3605 1.41997 23.5311 1.14995 23.68C1.06388 23.7274 0.99154 23.7963 0.939953 23.88C0.889093 23.9683 0.861561 24.0681 0.859953 24.17V28.89C0.880737 29.0144 0.94442 29.1276 1.03995 29.21C1.13831 29.2921 1.26185 29.338 1.38995 29.34C1.51806 29.338 1.64159 29.2921 1.73995 29.21C1.83916 29.1307 1.90369 29.016 1.91995 28.89V23.17Z" fill="#6DB746"/>
<path d="M34.58 6.10999V10.85C34.5717 11.0264 34.5202 11.1981 34.43 11.35C34.3383 11.4986 34.2112 11.6223 34.06 11.71C33.5365 11.9854 33.0632 12.3471 32.66 12.78V6.10999C32.66 5.84477 32.7654 5.59041 32.9529 5.40288C33.1405 5.21534 33.3948 5.10999 33.66 5.10999C33.914 5.11356 34.1572 5.21367 34.34 5.38999C34.5115 5.58912 34.5978 5.84777 34.58 6.10999Z" fill="#6DB746"/>
<path d="M32.22 13.83V6.10999C32.2592 5.76702 32.4229 5.45035 32.68 5.21999C32.9337 4.98742 33.2658 4.8589 33.61 4.85999C33.9538 4.86083 34.2852 4.98909 34.54 5.21999C34.7971 5.45035 34.9608 5.76702 35 6.10999V10.85C35 11.1006 34.9308 11.3463 34.8 11.56C34.668 11.7737 34.4862 11.9522 34.27 12.08C33.7825 12.3456 33.3376 12.6826 32.95 13.08L32.22 13.83ZM33.62 5.57999C33.5507 5.56571 33.4792 5.56571 33.41 5.57999C33.3437 5.60535 33.2827 5.64263 33.23 5.68999C33.1809 5.73757 33.1432 5.7957 33.12 5.85999C33.1057 5.92926 33.1057 6.00072 33.12 6.06999V11.79C33.3673 11.6063 33.6243 11.436 33.89 11.28C33.9754 11.2361 34.0478 11.1706 34.1 11.09C34.1504 11.0052 34.178 10.9087 34.18 10.81V6.10999C34.1897 6.04033 34.1897 5.96965 34.18 5.89999C34.1312 5.83248 34.0702 5.7748 34 5.72999C33.954 5.679 33.8953 5.64105 33.83 5.61999C33.7642 5.58998 33.6922 5.57626 33.62 5.57999Z" fill="#6DB746"/>
<path d="M32.66 22.22C33.0727 22.6423 33.5442 23.0027 34.06 23.29C34.2112 23.3776 34.3383 23.5013 34.43 23.65C34.5202 23.8019 34.5717 23.9735 34.58 24.15V28.89C34.5821 29.0164 34.5583 29.1419 34.5101 29.2588C34.462 29.3757 34.3905 29.4816 34.3 29.57C34.21 29.6578 34.105 29.7289 33.99 29.78C33.8723 29.8265 33.7467 29.8503 33.62 29.85C33.4868 29.8572 33.3536 29.8363 33.229 29.7886C33.1044 29.7409 32.9912 29.6675 32.8969 29.5731C32.8026 29.4788 32.7292 29.3656 32.6815 29.241C32.6338 29.1164 32.6128 28.9832 32.62 28.85L32.66 22.22Z" fill="#6DB746"/>
<path d="M33.62 30.27C33.2471 30.2731 32.8879 30.1295 32.62 29.87C32.4884 29.7391 32.3843 29.5832 32.3139 29.4115C32.2434 29.2397 32.2081 29.0556 32.21 28.87V21.17L32.94 21.91C33.337 22.2966 33.7804 22.6325 34.26 22.91C34.4762 23.0378 34.6581 23.2163 34.79 23.43C34.9208 23.6437 34.99 23.8894 34.99 24.14V28.88C34.9943 29.0659 34.96 29.2507 34.8895 29.4228C34.8189 29.5949 34.7136 29.7505 34.58 29.88C34.3228 30.1297 33.9785 30.2696 33.62 30.27ZM33.08 23.17V28.89C33.0658 28.9593 33.0658 29.0307 33.08 29.1C33.1033 29.1643 33.1409 29.2224 33.19 29.27C33.2428 29.3173 33.3038 29.3546 33.37 29.38C33.4393 29.3943 33.5108 29.3943 33.58 29.38C33.6459 29.395 33.7142 29.395 33.78 29.38C33.8454 29.3589 33.904 29.321 33.95 29.27C33.9988 29.22 34.0393 29.1626 34.07 29.1C34.0798 29.0303 34.0798 28.9596 34.07 28.89V24.15C34.0681 24.0513 34.0405 23.9548 33.99 23.87C33.9378 23.7894 33.8654 23.7239 33.78 23.68L33.08 23.17Z" fill="#6DB746"/>
<path d="M10.2 10.71H8.28003V14H10.2V10.71Z" fill="#6DB746"/>
<path d="M10.62 14.4H7.83997V10.29H10.62V14.4ZM8.74997 13.55H9.81997V11.13H8.74997V13.55Z" fill="#6DB746"/>
<path d="M10.2 5.54999H8.28003V8.79999H10.2V5.54999Z" fill="#6DB746"/>
<path d="M10.62 9.24H7.83997V5.13H10.62V9.24ZM8.74997 8.38H9.81997V6H8.74997V8.38Z" fill="#6DB746"/>
<path d="M10.2 15.87H8.28003V19.13H10.2V15.87Z" fill="#6DB746"/>
<path d="M10.62 19.56H7.83997V15.43H10.62V19.56ZM8.74997 18.71H9.81997V16.29H8.74997V18.71Z" fill="#6DB746"/>
<path d="M10.2 21H8.28003V24.26H10.2V21Z" fill="#6DB746"/>
<path d="M10.62 24.71H7.83997V20.6H10.62V24.71ZM8.74997 23.87H9.81997V21.45H8.74997V23.87Z" fill="#6DB746"/>
<path d="M10.2 26.2H8.28003V29.45H10.2V26.2Z" fill="#6DB746"/>
<path d="M10.62 29.87H7.83997V25.76H10.62V29.87ZM8.74997 29H9.81997V26.62H8.74997V29Z" fill="#6DB746"/>
<path d="M22.59 13.05L15.05 20.59C14.9904 20.6478 14.943 20.717 14.9107 20.7934C14.8784 20.8699 14.8617 20.952 14.8617 21.035C14.8617 21.118 14.8784 21.2002 14.9107 21.2766C14.943 21.3531 14.9904 21.4222 15.05 21.48L15.52 21.95C15.5778 22.0096 15.6469 22.057 15.7234 22.0893C15.7998 22.1216 15.882 22.1383 15.965 22.1383C16.048 22.1383 16.1301 22.1216 16.2066 22.0893C16.283 22.057 16.3522 22.0096 16.41 21.95L24 14.41C24.1155 14.2907 24.18 14.1311 24.18 13.965C24.18 13.799 24.1155 13.6394 24 13.52L23.53 13.05C23.4701 12.9852 23.3974 12.9335 23.3165 12.8981C23.2356 12.8627 23.1483 12.8444 23.06 12.8444C22.9717 12.8444 22.8844 12.8627 22.8035 12.8981C22.7226 12.9335 22.6499 12.9852 22.59 13.05Z" fill="#6DB746"/>
<path d="M16 22.56C15.8596 22.5586 15.7207 22.5315 15.59 22.48C15.4601 22.4212 15.3416 22.34 15.24 22.24L14.77 21.79C14.5743 21.5737 14.4671 21.2917 14.47 21C14.4767 20.7182 14.5912 20.4498 14.79 20.25L22.31 12.72C22.5124 12.5276 22.7808 12.4202 23.06 12.42C23.3362 12.4207 23.6013 12.5282 23.8 12.72L24.27 13.18C24.3699 13.2779 24.4512 13.3931 24.51 13.52C24.6168 13.7829 24.6168 14.0771 24.51 14.34C24.4512 14.4669 24.3699 14.582 24.27 14.68L16.75 22.21C16.6524 22.3127 16.5372 22.3974 16.41 22.46C16.2806 22.5179 16.1416 22.5518 16 22.56ZM23 13.3C22.9486 13.2799 22.8915 13.2799 22.84 13.3L15.31 20.84C15.2775 20.8794 15.2597 20.9289 15.2597 20.98C15.2597 21.0311 15.2775 21.0806 15.31 21.12L15.79 21.6C15.8294 21.6325 15.8789 21.6503 15.93 21.6503C15.9811 21.6503 16.0306 21.6325 16.07 21.6L23.61 14.05C23.6425 14.0106 23.6603 13.9611 23.6603 13.91C23.6603 13.8589 23.6425 13.8094 23.61 13.77L23.14 13.3H23Z" fill="#6DB746"/>
</g>
<defs>
<clipPath id="clip0_668_4477">
<rect width="35" height="35" fill="white"/>
</clipPath>
</defs>
</svg>
