<svg width="100" height="100" viewBox="0 0 100 100" fill="none" xmlns="http://www.w3.org/2000/svg">
<g clip-path="url(#clip0_114_528)">
<path d="M79.3005 27.4L73.8339 11.0333V3.33333C73.8339 2.44928 73.4827 1.60143 72.8575 0.976311C72.2324 0.35119 71.3846 0 70.5005 0L29.4005 0C28.5165 0 27.6686 0.35119 27.0435 0.976311C26.4184 1.60143 26.0672 2.44928 26.0672 3.33333V11.0333L20.7005 27.4L20.3672 28.3333V95.5667C20.3759 96.7398 20.8458 97.8623 21.6753 98.6919C22.5048 99.5214 23.6274 99.9913 24.8005 100H75.2005C76.3736 99.9913 77.4962 99.5214 78.3257 98.6919C79.1552 97.8623 79.6251 96.7398 79.6339 95.5667V28.3333L79.3005 27.4ZM28.4005 3.33333C28.3959 3.20076 28.4185 3.06864 28.4672 2.94521C28.5158 2.82178 28.5893 2.70967 28.6831 2.61587C28.7769 2.52206 28.889 2.44857 29.0124 2.39997C29.1358 2.35136 29.2679 2.32868 29.4005 2.33333H70.6005C70.7331 2.32868 70.8652 2.35136 70.9886 2.39997C71.1121 2.44857 71.2242 2.52206 71.318 2.61587C71.4118 2.70967 71.4853 2.82178 71.5339 2.94521C71.5825 3.06864 71.6052 3.20076 71.6005 3.33333V10H28.2672L28.4005 3.33333ZM28.1005 12.3333H71.9005L76.9672 27.4H23.0672L28.1005 12.3333ZM77.4005 95.6667C77.3919 96.2475 77.1574 96.8021 76.7466 97.2128C76.3359 97.6235 75.7813 97.8581 75.2005 97.8667H24.8005C24.2197 97.8581 23.6651 97.6235 23.2544 97.2128C22.8437 96.8021 22.6091 96.2475 22.6005 95.6667V89.1C25.04 88.0006 27.72 87.5429 30.3861 87.7705C33.0522 87.998 35.6159 88.9031 37.8339 90.4C40.7246 92.578 44.2165 93.8118 47.8339 93.9333C48.5107 93.9841 49.1904 93.9841 49.8672 93.9333C53.1586 93.3847 56.1731 91.7543 58.4339 89.3C61.7672 85.7333 70.3339 84.8667 77.3339 89.1333L77.4005 95.6667ZM77.4005 86.5333C69.6339 82.4333 60.7338 83.6667 56.9005 87.7333C54.6005 90.1333 48.3005 95 39.1005 88.6667C36.7266 87.0026 33.979 85.9495 31.1009 85.6007C28.2229 85.2518 25.3033 85.618 22.6005 86.6667V42.5C25.0421 41.4023 27.7241 40.9485 30.3909 41.1819C33.0577 41.4153 35.6201 42.3281 37.8339 43.8333C40.7542 45.9286 44.2404 47.0906 47.8339 47.1667C48.5107 47.2174 49.1904 47.2174 49.8672 47.1667C53.1628 46.6304 56.1812 44.9979 58.4339 42.5333C61.7672 39 70.3339 38.1333 77.3339 42.5333L77.4005 86.5333ZM77.4005 39.8667C69.6339 35.7333 60.7338 36.9667 56.9005 41.0333C54.6005 43.4333 48.3005 48.3333 39.1005 41.9667C36.7286 40.2971 33.979 39.2433 31.0988 38.9C28.2187 38.5568 25.2984 38.9347 22.6005 40V29.6333H77.4005V39.8667Z" fill="#6DB746"/>
<path d="M37.0995 66.0663L34.1995 58.833H30.6328V70.7997H33.1661V62.433L36.5328 70.7997H37.6661L41.0328 62.433V70.7997H43.5995V58.833H39.9995L37.0995 66.0663Z" fill="#6DB746"/>
<path d="M48.5667 58.833H46V70.833H48.5667V58.833Z" fill="#6DB746"/>
<path d="M53.4651 58.833H50.8984V70.7997H58.5318V68.5663H53.4651V58.833Z" fill="#6DB746"/>
<path d="M67.1008 58.833L62.8674 64.1663V58.833H60.3008V70.7997H62.8674V67.133L63.8008 65.9997L67.4341 70.7997H70.5674L65.4674 64.4663L70.2341 58.833H67.1008Z" fill="#6DB746"/>
</g>
<defs>
<clipPath id="clip0_114_528">
<rect width="100" height="100" fill="white"/>
</clipPath>
</defs>
</svg>
