<svg width="100" height="100" viewBox="0 0 100 100" fill="none" xmlns="http://www.w3.org/2000/svg">
<path d="M28.3667 98.2331C14.2667 98.2331 0 95.2331 0 89.4998V62.2998H2.5C2.5 66.6665 13.1333 71.5665 28.3667 71.5665C43.6 71.5665 54.2667 66.6665 54.2667 62.2998H56.6667V89.4998C56.6667 95.2331 42.5 98.2331 28.3667 98.2331ZM2.5 67.1998V89.4998C2.5 92.0331 12.5 95.7331 28.3667 95.7331C44.2333 95.7331 54.2667 92.0331 54.2667 89.4998V67.1998C50 71.2998 40 74.0665 28.3667 74.0665C16.7333 74.0665 6.9 71.2998 2.5 67.1998Z" fill="#6DB746"/>
<path d="M28.3667 74.0663C12.4667 74.0663 0 68.8996 0 62.2996C0.0163344 61.5005 0.209879 60.7149 0.566667 59.9996C3 54.4996 14.4667 50.5996 28.3667 50.5996C42.2667 50.5996 53.7667 54.4663 56.2667 60.0329C56.5978 60.7779 56.7682 61.5843 56.7667 62.3996C56.6667 68.8996 44.3 74.0663 28.3667 74.0663ZM28.3667 52.9996C14.0667 52.9996 4.53333 57.0996 2.83333 60.9663C2.61448 61.3766 2.5 61.8345 2.5 62.2996C2.5 66.6663 13.1333 71.5663 28.3667 71.5663C43.6 71.5663 54.2667 66.6663 54.2667 62.2996C54.2671 61.8384 54.1646 61.3829 53.9667 60.9663C52.2333 57.0996 42.6667 52.9996 28.3667 52.9996Z" fill="#6DB746"/>
<path d="M28.3674 69.1333C26.8674 69.1333 25.3008 69.1333 23.6008 69.1333V68.3C25.2674 68.3 26.9341 68.3 28.3008 68.3C41.0008 68.3 49.5008 64.9667 49.5008 62.0667C49.5008 59.1667 41.0008 55.8 28.3008 55.8C15.6008 55.8 7.10078 59.1333 7.10078 62.0667C7.10078 63.7333 9.80078 65.4 14.2674 66.6667L14.0341 67.4667C9.03412 66.1333 6.30078 64.1333 6.30078 62.0667C6.30078 58.1 15.9674 55 28.3008 55C40.6341 55 50.3341 58.1 50.3341 62.0667C50.3341 66.0333 40.7341 69.1333 28.3674 69.1333ZM28.3674 65.8H26.0341V64.9667H28.3341C34.3008 64.9667 38.7341 63.4333 38.7341 62.0667C38.7341 60.7 34.3008 59.1333 28.3341 59.1333C22.3674 59.1333 17.9674 60.6667 17.9674 62.0667C17.9674 62.6 18.7674 63.2333 20.1674 63.8L20.0008 64.5667C18.1674 63.8667 17.2674 63 17.2674 62.0667C17.2674 59.6333 23.0341 58.3 28.4674 58.3C33.9008 58.3 39.7008 59.6333 39.7008 62.0667C39.7008 64.5 33.8341 65.8 28.3674 65.8Z" fill="#6DB746"/>
<path d="M28.3656 65.7998H26.0323V64.9665H28.3323C34.299 64.9665 38.7323 63.4331 38.7323 62.0665C38.7323 60.6998 34.299 59.1331 28.3323 59.1331C22.3656 59.1331 17.9656 60.6665 17.9656 62.0665C17.9656 62.5998 18.7656 63.2331 20.1656 63.7998L19.999 64.5665C18.1656 63.8665 17.2656 62.9998 17.2656 62.0665C17.2656 59.6331 23.0323 58.2998 28.4656 58.2998C33.899 58.2998 39.699 59.6331 39.699 62.0665C39.699 64.4998 33.8323 65.7998 28.3656 65.7998Z" fill="#6DB746"/>
<path d="M16.6674 72.5335L10.3008 70.7335L11.0008 67.9002L18.5674 63.8669C20.4333 62.9684 22.5499 62.7332 24.5674 63.2002C25.1416 63.379 25.6738 63.672 26.132 64.0615C26.5903 64.451 26.9651 64.929 27.2341 65.4669C27.3666 65.7602 27.4352 66.0783 27.4352 66.4002C27.4352 66.7221 27.3666 67.0402 27.2341 67.3335C26.5129 68.2574 25.5041 68.9143 24.3674 69.2002L16.6674 72.5335ZM12.3008 69.5669L16.5674 70.7669L23.7008 67.6335C24.3876 67.4553 25.0255 67.1249 25.5674 66.6669C25.6344 66.4954 25.6344 66.305 25.5674 66.1335C25.1953 65.4922 24.5839 65.0247 23.8674 64.8335C22.2886 64.5053 20.6453 64.7166 19.2008 65.4335L12.3341 69.0002L12.3008 69.5669Z" fill="#6DB746"/>
<path d="M36.6667 92.4003H20C18.1374 92.3827 16.357 91.6305 15.0462 90.3071C13.7353 88.9838 12.9999 87.1964 13 85.3337V83.667C13.0174 81.8159 13.7605 80.0455 15.0695 78.7365C16.3785 77.4275 18.1489 76.6844 20 76.667H36.6667C37.5947 76.667 38.5136 76.8498 39.371 77.2049C40.2283 77.56 41.0074 78.0806 41.6636 78.7368C42.3198 79.393 42.8403 80.172 43.1954 81.0294C43.5506 81.8867 43.7333 82.8057 43.7333 83.7337V85.4003C43.7158 87.2629 42.9635 89.0433 41.6401 90.3542C40.3168 91.665 38.5294 92.4004 36.6667 92.4003ZM20 77.4337C18.3584 77.4512 16.79 78.1157 15.6354 79.2828C14.4808 80.4498 13.8332 82.0253 13.8333 83.667V85.3337C13.8332 86.9754 14.4808 88.5508 15.6354 89.7179C16.79 90.885 18.3584 91.5494 20 91.567H36.6667C37.4852 91.567 38.2958 91.4058 39.0521 91.0925C39.8083 90.7792 40.4955 90.3201 41.0743 89.7413C41.6531 89.1625 42.1123 88.4753 42.4255 87.7191C42.7388 86.9628 42.9 86.1522 42.9 85.3337V83.667C42.9 82.0138 42.2433 80.4283 41.0743 79.2594C39.9053 78.0904 38.3199 77.4337 36.6667 77.4337H20Z" fill="#6DB746"/>
<path d="M45.7344 15.1662V52.8662C44.9344 52.5995 44.101 52.3662 43.2344 52.1662V13.5995C43.2388 13.0119 43.3287 12.428 43.501 11.8662C43.9499 13.1396 44.7191 14.2761 45.7344 15.1662Z" fill="#6DB746"/>
<path d="M100.001 13.5997V76.233C100.001 81.933 85.7346 84.933 71.6013 84.933C66.5998 84.9577 61.6049 84.5675 56.668 83.7663V81.1997C61.566 82.0503 66.5301 82.4631 71.5013 82.433C87.3346 82.433 97.4013 78.733 97.4013 76.233V15.1663C98.408 14.262 99.1656 13.1142 99.6013 11.833C99.8433 12.3919 99.9789 12.991 100.001 13.5997Z" fill="#6DB746"/>
<path d="M71.5995 25.3666C55.6995 25.3666 43.3328 20.1999 43.3328 13.5666C43.3182 12.7425 43.5132 11.9281 43.8995 11.1999C46.2328 5.6666 57.6995 1.7666 71.5995 1.7666C85.4995 1.7666 96.9995 5.6666 99.4995 11.2333C99.827 11.9677 99.9973 12.7625 99.9995 13.5666C99.9995 20.1999 87.5328 25.3666 71.5995 25.3666ZM71.5995 4.2666C57.2995 4.2666 47.7661 8.3666 46.0661 12.2333C45.8473 12.6436 45.7328 13.1015 45.7328 13.5666C45.7328 17.9666 56.3661 22.8666 71.5995 22.8666C86.8328 22.8666 97.4995 17.9666 97.4995 13.5666C97.4926 13.1062 97.3905 12.6522 97.1995 12.2333C95.4661 8.39994 85.8995 4.2666 71.5995 4.2666Z" fill="#6DB746"/>
<path d="M71.5997 20.3999C70.0997 20.3999 68.5331 20.3999 66.8331 20.3999V19.5666C68.4997 19.5666 70.1664 19.5666 71.5331 19.5666C84.2331 19.5666 92.7331 16.2333 92.7331 13.3333C92.7331 10.4333 84.2331 7.09994 71.5331 7.09994C58.8331 7.09994 50.3997 10.3333 50.3997 13.3333C50.3997 15.0333 53.0997 16.6666 57.5664 17.9666L57.3331 18.7666C52.3331 17.3999 49.5664 15.4333 49.5664 13.3333C49.5664 9.3666 59.2664 6.2666 71.5997 6.2666C83.9331 6.2666 93.6331 9.3666 93.6331 13.3333C93.6331 17.2999 83.9664 20.3999 71.5997 20.3999ZM71.5997 17.0666H69.2664V16.1666H71.5664C77.5331 16.1666 81.9664 14.6333 81.9664 13.2666C81.9664 11.8999 77.5331 10.3666 71.5664 10.3666C65.5997 10.3666 61.1997 11.8999 61.1997 13.2666C61.1997 13.8333 61.9997 14.4666 63.3997 14.9999L63.0997 15.7999C61.2664 15.0666 60.3664 14.2333 60.3664 13.2666C60.3664 10.8333 66.1331 9.53327 71.5664 9.53327C76.9997 9.53327 82.7998 10.8333 82.7998 13.2666C82.7998 15.6999 77.0664 17.0666 71.5997 17.0666Z" fill="#6DB746"/>
<path d="M71.6005 17.0665H69.2672V16.1665H71.5672C77.5339 16.1665 81.9672 14.6332 81.9672 13.2665C81.9672 11.8999 77.5339 10.3665 71.5672 10.3665C65.6005 10.3665 61.2005 11.8999 61.2005 13.2665C61.2005 13.8332 62.0005 14.4665 63.4005 14.9999L63.1005 15.7999C61.2672 15.0665 60.3672 14.2332 60.3672 13.2665C60.3672 10.8332 66.1339 9.5332 71.5672 9.5332C77.0005 9.5332 82.8005 10.8332 82.8005 13.2665C82.8005 15.6999 77.0672 17.0665 71.6005 17.0665Z" fill="#6DB746"/>
<path d="M59.7987 23.8003L53.332 22.0003L54.032 19.1669L61.5987 15.1669C63.4599 14.2525 65.5821 14.0167 67.5987 14.5003C68.1782 14.6681 68.7155 14.9569 69.1751 15.3476C69.6348 15.7383 70.0064 16.2221 70.2654 16.7669C70.3972 17.0545 70.4654 17.3672 70.4654 17.6836C70.4654 18 70.3972 18.3126 70.2654 18.6003C69.5548 19.5424 68.5432 20.2129 67.3987 20.5003L59.7987 23.8003ZM55.432 20.8669L59.6654 22.0336L66.832 18.9336C67.5639 18.7415 68.2386 18.3756 68.7987 17.8669C68.8326 17.7879 68.8501 17.7029 68.8501 17.6169C68.8501 17.531 68.8326 17.4459 68.7987 17.3669C68.4304 16.7154 67.8192 16.2361 67.0987 16.0336C65.5161 15.7156 63.8726 15.9387 62.432 16.6669L55.5654 20.3003L55.432 20.8669Z" fill="#6DB746"/>
<path d="M82.8673 37.1663H61.9339C60.0655 37.1663 58.2731 37.9063 56.9488 39.2243C55.6245 40.5424 54.8761 42.3313 54.8673 44.1997V57.533C54.8629 58.4638 55.0424 59.3863 55.3956 60.2475C55.7488 61.1088 56.2686 61.8917 56.9252 62.5515C57.5819 63.2112 58.3624 63.7347 59.2219 64.0919C60.0815 64.4491 61.0031 64.633 61.9339 64.633H82.8673C83.8053 64.6374 84.7348 64.4559 85.6023 64.099C86.4697 63.7421 87.2579 63.2168 87.9211 62.5535C88.5844 61.8903 89.1097 61.1021 89.4666 60.2347C89.8235 59.3672 90.005 58.4377 90.0006 57.4997V44.1663C89.9919 43.2383 89.8005 42.3211 89.4373 41.4671C89.0741 40.613 88.5462 39.8389 87.8838 39.1889C87.2214 38.5389 86.4374 38.0257 85.5767 37.6787C84.716 37.3316 83.7953 37.1575 82.8673 37.1663ZM89.1339 57.4997C89.1339 59.1617 88.4737 60.7556 87.2985 61.9309C86.1233 63.1061 84.5293 63.7663 82.8673 63.7663H61.9339C60.2777 63.7575 58.6923 63.0934 57.5243 61.9191C56.3562 60.7449 55.7006 59.1559 55.7006 57.4997V44.1663C55.7094 42.5189 56.37 40.942 57.5381 39.7802C58.7061 38.6185 60.2865 37.9663 61.9339 37.9663H82.8673C83.6859 37.9619 84.4973 38.1188 85.2552 38.428C86.0132 38.7372 86.7028 39.1927 87.2847 39.7684C87.8666 40.3442 88.3294 41.0289 88.6467 41.7835C88.964 42.5381 89.1296 43.3478 89.1339 44.1663V57.4997Z" fill="#6DB746"/>
<path d="M21.601 67.4663C22.632 67.4663 23.4677 67.0484 23.4677 66.5329C23.4677 66.0175 22.632 65.5996 21.601 65.5996C20.5701 65.5996 19.7344 66.0175 19.7344 66.5329C19.7344 67.0484 20.5701 67.4663 21.601 67.4663Z" fill="#6DB746"/>
<path d="M64.8667 18.6001C65.8976 18.6001 66.7333 18.1822 66.7333 17.6667C66.7333 17.1513 65.8976 16.7334 64.8667 16.7334C63.8357 16.7334 63 17.1513 63 17.6667C63 18.1822 63.8357 18.6001 64.8667 18.6001Z" fill="#6DB746"/>
</svg>
