<svg width="100" height="100" viewBox="0 0 100 100" fill="none" xmlns="http://www.w3.org/2000/svg">
<g clip-path="url(#clip0_114_458)">
<path d="M57.0323 54.3332C57.0577 54.5282 57.1366 54.7123 57.2601 54.8652C57.3837 55.0182 57.547 55.134 57.7323 55.1999C57.8639 55.2299 58.0006 55.2299 58.1323 55.1999C58.4408 55.1912 58.7362 55.0731 58.9656 54.8666C59.1348 54.728 59.2641 54.5469 59.3402 54.3419C59.4164 54.1369 59.4366 53.9153 59.3989 53.6999C59.0501 50.9665 59.7794 48.2047 61.4323 45.9999C62.135 45.0479 63.0784 44.3001 64.1656 43.8332C64.3328 43.7608 64.4838 43.6556 64.6097 43.524C64.7356 43.3923 64.834 43.2368 64.8989 43.0666C64.9323 42.8903 64.9323 42.7094 64.8989 42.5332C64.915 42.4004 64.915 42.2661 64.8989 42.1332C64.8443 41.9957 64.7625 41.8707 64.6584 41.7656C64.5543 41.6604 64.4301 41.5774 64.2932 41.5214C64.1563 41.4653 64.0094 41.4375 63.8615 41.4396C63.7136 41.4416 63.5676 41.4735 63.4323 41.5332L62.5656 41.9332C60.5185 43.2193 58.8996 45.0845 57.9144 47.2923C56.9292 49.5 56.6222 51.9507 57.0323 54.3332Z" fill="#6DB746"/>
<path d="M58.4656 56.4668C58.2965 56.47 58.1297 56.507 57.9752 56.5757C57.8206 56.6444 57.6813 56.7434 57.5656 56.8668C57.3781 57.1048 57.2728 57.3972 57.2656 57.7001C57.2722 57.9359 57.3481 58.1646 57.4839 58.3575C57.6196 58.5504 57.8093 58.699 58.029 58.7847C58.2488 58.8705 58.489 58.8895 58.7195 58.8395C58.95 58.7895 59.1607 58.6727 59.3252 58.5036C59.4897 58.3346 59.6008 58.1207 59.6444 57.8889C59.6881 57.6571 59.6625 57.4175 59.5707 57.2002C59.479 56.9829 59.3253 56.7974 59.1287 56.6669C58.9322 56.5365 58.7015 56.4669 58.4656 56.4668Z" fill="#6DB746"/>
<path d="M94.5321 70.0003C94.9655 69.1336 95.4321 68.1669 95.8655 67.1669C98.4948 61.7138 99.9053 55.7535 99.9988 49.7003C100.062 47.0228 99.3289 44.3868 97.8929 42.126C96.457 39.8653 94.3825 38.0814 91.9321 37.0003C90.3356 36.4497 88.6212 36.3346 86.9655 36.6669V36.6669C87.8865 35.2599 88.4839 33.6659 88.7144 32.0001C88.945 30.3342 88.803 28.638 88.2988 27.0336C88.3173 26.9682 88.3173 26.899 88.2988 26.8336C88.2498 26.5596 88.0987 26.3144 87.876 26.1474C87.6533 25.9803 87.3756 25.904 87.0988 25.9336C84.7197 26.1667 82.444 27.0228 80.5011 28.4156C78.5582 29.8083 77.0168 31.6886 76.0321 33.8669V33.8669C74.6518 30.8536 72.5442 28.2305 69.8988 26.2336C69.7316 26.1371 69.5419 26.0862 69.3488 26.0862C69.1557 26.0862 68.966 26.1371 68.7988 26.2336V26.2336H68.6321C67.578 27.5792 66.8583 29.1557 66.5321 30.8336C66.4781 31.0167 66.4711 31.2104 66.5119 31.3969C66.5527 31.5834 66.6399 31.7565 66.7655 31.9003C66.9271 32.0916 67.1331 32.2403 67.3655 32.3336C68.8958 32.8325 70.292 33.6745 71.4474 34.7952C72.6028 35.9159 73.4869 37.2858 74.0321 38.8003V38.8003C72.9008 38.4979 71.7879 38.1306 70.6988 37.7003C68.5938 36.776 66.3302 36.2667 64.0321 36.2003C63.3526 34.874 62.4885 33.6507 61.4655 32.5669C62.5131 31.518 63.2199 30.1775 63.4935 28.7204C63.767 27.2634 63.5946 25.7578 62.9988 24.4003C62.6989 23.5152 62.2265 22.6985 61.6088 21.9972C60.9912 21.296 60.2405 20.7242 59.4004 20.315C58.5603 19.9058 57.6474 19.6673 56.7145 19.6133C55.7816 19.5592 54.8472 19.6908 53.9655 20.0003V20.0003C53.5692 17.8557 52.3789 15.9394 50.6321 14.6336V14.6336L50.3655 14.1669C49.3452 12.4291 47.7573 11.0959 45.8692 10.3916C43.9811 9.68737 41.9079 9.65511 39.9988 10.3003V10.3003C39.8043 8.96018 39.2252 7.70527 38.3319 6.68764C37.4385 5.67001 36.2691 4.93336 34.9655 4.56695V4.56695C33.1321 4.07438 31.1832 4.24986 29.4673 5.06203C27.7514 5.87419 26.3802 7.27011 25.5988 9.00028V9.00028C24.6055 8.86635 23.5952 8.93936 22.6315 9.21471C21.6678 9.49006 20.7714 9.9618 19.9988 10.6003C18.6386 11.8474 17.7646 13.5363 17.5321 15.3669C15.8495 15.7081 14.2959 16.5133 13.0471 17.6915C11.7983 18.8696 10.904 20.3737 10.4655 22.0336C9.67787 24.5088 9.80293 27.1843 10.818 29.5752C11.8331 31.9661 13.671 33.9144 15.9988 35.0669C14.8038 36.887 14.2957 39.0731 14.5655 41.2336C15.1217 43.2132 16.4403 44.8914 18.2321 45.9003V45.9003C17.4756 48.1806 17.6309 50.6652 18.6655 52.8336C19.4007 53.8323 20.3394 54.6636 21.4197 55.2727C22.4999 55.8818 23.6971 56.2547 24.9321 56.3669V56.3669C25.356 58.0292 25.9364 59.6475 26.6655 61.2003V61.2003C23.5521 62.4286 20.8806 64.5657 18.9988 67.3336V67.3336C15.4075 66.0748 11.5914 65.5864 7.79881 65.9003C7.07177 66.2108 6.42934 66.6903 5.92494 67.2991C5.42054 67.9078 5.06875 68.6282 4.89881 69.4003C4.66572 70.2852 4.66572 71.2154 4.89881 72.1003V72.1003C3.57006 72.2481 2.34247 72.8807 1.4509 73.877C0.559342 74.8733 0.0664062 76.1633 0.0664062 77.5003C0.0664062 78.8372 0.559342 80.1273 1.4509 81.1235C2.34247 82.1198 3.57006 82.7524 4.89881 82.9003V82.9003C4.6646 83.8189 4.6646 84.7816 4.89881 85.7003C5.06875 86.4724 5.42054 87.1927 5.92494 87.8015C6.42934 88.4102 7.07177 88.8898 7.79881 89.2003C8.38175 89.3772 8.99003 89.4561 9.59881 89.4336C12.6582 89.2439 15.6875 88.7185 18.6321 87.8669V87.8669C20.1883 90.4145 22.4116 92.4878 25.0614 93.8627C27.7112 95.2375 30.6866 95.8615 33.6655 95.6669V95.6669L84.2321 88.3336C92.2655 87.2336 97.9321 85.8669 97.9321 77.9669C98.1005 76.4586 97.876 74.9323 97.2802 73.5363C96.6844 72.1404 95.7378 70.9223 94.5321 70.0003ZM72.7655 32.9336C71.6013 31.8725 70.2583 31.0261 68.7988 30.4336V30.4336C68.946 29.9034 69.147 29.3896 69.3988 28.9003C70.7211 30.0552 71.8469 31.4174 72.7321 32.9336C72.7321 32.9336 72.7655 32.9336 72.7655 32.9336ZM86.0988 28.3003C86.4002 29.6633 86.373 31.0785 86.0195 32.429C85.6659 33.7795 84.9961 35.0264 84.0655 36.0669C82.1424 37.7117 79.7531 38.714 77.2321 38.9336V38.9336C77.2462 36.3972 78.147 33.9457 79.7785 32.0036C81.41 30.0616 83.6695 28.7515 86.1655 28.3003H86.0988ZM62.1655 38.7669C62.7128 38.6473 63.272 38.5914 63.8321 38.6003H64.5322C66.4092 38.8181 68.2481 39.289 69.9988 40.0003C71.8091 40.7603 73.7162 41.2651 75.6655 41.5003C75.8079 41.5343 75.9564 41.5343 76.0988 41.5003C77.5058 41.467 78.8996 41.2197 80.2321 40.7669C80.8767 40.5911 81.511 40.3796 82.1321 40.1336H82.3655C84.8478 38.927 87.6497 38.5418 90.3655 39.0336C98.2988 41.2003 98.2321 51.4003 97.0321 57.1003C96.1287 61.2473 94.6358 65.2434 92.5988 68.9669V68.9669C90.5347 68.2075 88.3854 67.7038 86.1988 67.4669L66.6655 64.5669L63.8655 64.1336L55.6655 62.9003C55.4395 62.4452 55.2392 61.9778 55.0655 61.5003V61.5003C54.6321 59.7003 54.0655 57.7336 53.3988 55.7003C53.3988 55.0669 53.3988 54.4003 53.1655 53.7336C52.7655 47.2336 55.6655 40.0336 61.9655 38.8003L62.1655 38.7669ZM47.4988 16.0003H47.6988C48.5298 16.1674 49.2943 16.5728 49.8988 17.1669C50.9732 18.4046 51.6063 19.9639 51.6988 21.6003V23.2003L53.3321 22.7336C53.5655 22.7336 58.8321 20.8669 60.3321 25.1669C60.8794 26.2196 61.0084 27.4403 60.6931 28.5841C60.3778 29.7279 59.6415 30.7101 58.6321 31.3336L56.9655 32.2003L58.4322 33.3336C59.4977 34.2231 60.4099 35.2816 61.1321 36.4669V36.4669C59.2732 37.0135 57.5557 37.9587 56.0992 39.2367C54.6428 40.5147 53.4824 42.0948 52.6988 43.8669C51.9674 45.4579 51.4517 47.1394 51.1655 48.8669V48.8669C50.2321 46.5003 49.2321 44.1003 48.2321 41.8003C48.9328 37.353 51.0485 33.25 54.2655 30.1003C54.4647 29.8749 54.5746 29.5844 54.5746 29.2836C54.5746 28.9828 54.4647 28.6924 54.2655 28.4669V28.4669C54.1472 28.3429 54.005 28.2442 53.8474 28.1767C53.6898 28.1092 53.5202 28.0744 53.3488 28.0744C53.1774 28.0744 53.0078 28.1092 52.8502 28.1767C52.6927 28.2442 52.5504 28.3429 52.4321 28.4669C49.7284 31.183 47.6966 34.4932 46.4988 38.1336V38.1336C43.9988 32.7003 41.7321 28.1336 40.6988 26.2003C40.6281 26.0566 40.5294 25.9285 40.4085 25.8236C40.2875 25.7187 40.1468 25.639 39.9946 25.5893C39.8424 25.5396 39.6817 25.5209 39.5222 25.5342C39.3626 25.5475 39.2073 25.5927 39.0655 25.6669V25.6669C38.7898 25.8156 38.5832 26.0662 38.4898 26.3652C38.3964 26.6641 38.4235 26.9878 38.5655 27.2669C39.3655 28.8336 40.9321 31.9669 42.7988 35.8669C39.9225 34.9155 36.8866 34.5417 33.8655 34.7669C33.7002 34.7794 33.5392 34.825 33.3919 34.901C33.2447 34.977 33.1143 35.082 33.0085 35.2095C32.9027 35.3371 32.8237 35.4847 32.7762 35.6434C32.7288 35.8022 32.7138 35.9689 32.7321 36.1336C32.7658 36.4312 32.9126 36.7045 33.1422 36.8969C33.3718 37.0893 33.6666 37.186 33.9655 37.1669C37.5871 36.853 41.2223 37.5939 44.4321 39.3003V39.3003C45.9655 42.6336 47.5655 46.3669 48.9988 50.0003C45.7838 48.5014 42.3084 47.641 38.7655 47.4669C38.5936 47.4579 38.4217 47.4839 38.2602 47.5435C38.0988 47.6031 37.9512 47.695 37.8264 47.8135C37.7016 47.9321 37.6023 48.0748 37.5345 48.233C37.4667 48.3912 37.4319 48.5615 37.4321 48.7336C37.4208 49.0043 37.5098 49.2696 37.6821 49.4788C37.8543 49.6879 38.0976 49.8261 38.3655 49.8669C42.7448 49.9269 46.9969 51.3482 50.5321 53.9336C50.7988 54.6336 51.0321 55.3669 51.2655 56.0669C51.6163 58.176 52.1861 60.2427 52.9655 62.2336V62.2336L34.2988 59.3669C34.049 57.8714 34.2222 56.3359 34.7988 54.9336L35.1655 53.9669L34.2655 53.4669C34.2655 53.4669 30.9321 51.5669 30.9321 48.9003C30.9191 48.1 31.0757 47.3059 31.3917 46.5705C31.7077 45.8351 32.1759 45.175 32.7655 44.6336L34.3988 43.3669L32.5321 42.5669C31.1405 41.9594 29.8658 41.1133 28.7655 40.0669C27.8208 39.2533 27.1233 38.191 26.7521 37.0007C26.3809 35.8105 26.3509 34.54 26.6655 33.3336C28.3321 27.2336 32.0321 27.0003 32.5655 27.0003H33.7988V25.7669C33.9233 24.2203 34.6113 22.7732 35.7321 21.7003C36.3479 21.2488 37.0535 20.9348 37.801 20.7796C38.5486 20.6243 39.3209 20.6314 40.0655 20.8003H40.9988L41.5321 20.0003C41.5321 20.0003 43.5321 15.4003 47.4988 16.0003ZM26.0321 54.0336C25.0335 54.0155 24.0496 53.7898 23.1429 53.3709C22.2362 52.952 21.4266 52.349 20.7655 51.6003C20.028 49.7258 20.028 47.6415 20.7655 45.7669L21.2321 44.6669L20.1655 44.2003C20.1655 44.2003 17.3988 42.9669 16.8321 40.8669C16.7612 38.9189 17.4009 37.0115 18.6321 35.5003L19.5988 34.2669L18.2655 33.3336C17.9655 33.3336 10.5321 30.0003 12.8321 22.7003C13.1659 21.3558 13.9101 20.1486 14.9615 19.2465C16.0129 18.3445 17.3192 17.7924 18.6988 17.6669H19.9988V16.4669C20.0528 14.9533 20.6711 13.5145 21.7321 12.4336C22.3751 11.9596 23.1148 11.6331 23.8983 11.4776C24.6819 11.322 25.4902 11.3411 26.2655 11.5336H27.2655L27.5988 10.6003C28.0439 9.25313 28.9699 8.11732 30.1999 7.41011C31.4298 6.70289 32.8773 6.47391 34.2655 6.76695C35.329 7.09428 36.2445 7.7834 36.8533 8.71487C37.4621 9.64634 37.7259 10.7614 37.5988 11.8669V13.7336L39.2988 12.9669C40.4585 12.4038 41.7415 12.1421 43.0291 12.2062C44.3168 12.2703 45.5674 12.658 46.6655 13.3336V13.3336C45.1624 13.4791 43.7242 14.0178 42.4954 14.8955C41.2666 15.7732 40.2906 16.959 39.6655 18.3336V18.3336C37.7394 18.1815 35.8289 18.7785 34.3321 20.0003C32.9395 21.2359 32.0007 22.9023 31.6655 24.7336V24.7336C29.7655 25.0336 26.0655 26.4336 24.1655 32.5336C23.6184 34.8626 23.9018 37.3096 24.9669 39.4519C26.0319 41.5942 27.8117 43.2972 29.9988 44.2669C28.996 45.6787 28.4599 47.3687 28.4655 49.1003C28.5682 50.3385 28.9556 51.5363 29.5974 52.6002C30.2392 53.664 31.1181 54.5653 32.1655 55.2336V55.2336C31.6388 56.764 31.4789 58.3968 31.6988 60.0003V60.0003C30.7766 60.1311 29.8637 60.3204 28.9655 60.5669V60.5669C28.1635 58.8554 27.5704 57.0535 27.1988 55.2003L27.0321 54.3003L26.0321 54.0336ZM5.43215 80.7003C5.0113 80.6982 4.5956 80.6076 4.21206 80.4344C3.82851 80.2612 3.4857 80.0092 3.20591 79.6948C2.92612 79.3804 2.7156 79.0107 2.58803 78.6096C2.46047 78.2086 2.41871 77.7852 2.46548 77.3669C2.54064 76.6097 2.89765 75.9084 3.46569 75.4021C4.03373 74.8958 4.77132 74.6215 5.53215 74.6336H16.0988C15.9176 75.6345 15.8283 76.6498 15.8321 77.6669C15.8369 78.6369 15.9037 79.6055 16.0321 80.5669H5.43215V80.7003ZM17.4655 85.8669C14.6286 86.8026 11.6517 87.2423 8.66548 87.1669C8.31629 86.9854 8.01043 86.7306 7.76881 86.4199C7.52718 86.1093 7.35549 85.7501 7.26548 85.3669C7.10319 84.6102 7.20925 83.8207 7.56548 83.1336H16.6655C16.9016 84.0578 17.2138 84.9609 17.5988 85.8336L17.4655 85.8669ZM16.6655 72.1003H7.53215C7.19961 71.4532 7.10521 70.7099 7.26548 70.0003C7.34435 69.6127 7.51175 69.2485 7.75461 68.9363C7.99746 68.624 8.3092 68.3721 8.66548 68.2003C11.7317 68.1076 14.7901 68.5591 17.6988 69.5336V69.5336C17.2776 70.3562 16.9317 71.2153 16.6655 72.1003V72.1003ZM83.8655 85.9003L33.5655 93.3336C31.1381 93.4947 28.7104 93.0235 26.5195 91.966C24.3286 90.9086 22.4495 89.301 21.0655 87.3003C20.6588 86.5813 20.3024 85.8351 19.9988 85.0669C19.6988 84.3336 19.4321 83.6336 19.2321 82.9669C18.9948 82.1679 18.8056 81.3553 18.6655 80.5336C18.5046 79.5637 18.4155 78.5833 18.3988 77.6003C18.403 76.5693 18.5148 75.5415 18.7321 74.5336C18.9081 73.7071 19.142 72.8939 19.4321 72.1003C19.6791 71.4378 19.9686 70.792 20.2988 70.1669C20.6867 69.4147 21.1442 68.7004 21.6655 68.0336C23.2162 65.9518 25.3008 64.3278 27.6988 63.3336C28.4482 63.0556 29.2169 62.8328 29.9988 62.6669C30.7873 62.4572 31.5892 62.3013 32.3988 62.2003L34.0321 62.0336L35.3321 62.2336L53.3321 65.0003H53.9655L55.7988 65.2669L57.0988 65.4669L61.3321 66.1003L64.6655 66.6336L85.4988 69.9669C87.3183 70.1817 89.1145 70.561 90.8655 71.1003C91.6692 71.3478 92.4245 71.7311 93.0988 72.2336C93.9032 72.9463 94.5233 73.8429 94.9064 74.847C95.2894 75.8511 95.4241 76.9329 95.2988 78.0003C95.4988 83.3336 92.5988 84.7336 83.8988 85.9003H83.8655Z" fill="#6DB746"/>
<path d="M35.2987 68.4331C35.1383 68.433 34.9795 68.4651 34.8316 68.5275C34.6838 68.5899 34.55 68.6813 34.4382 68.7963C34.3263 68.9113 34.2386 69.0475 34.1803 69.197C34.122 69.3464 34.0942 69.5061 34.0987 69.6664V85.3998C34.0694 85.5764 34.0788 85.7573 34.1265 85.9299C34.1741 86.1025 34.2588 86.2627 34.3745 86.3993C34.4903 86.5359 34.6344 86.6456 34.7969 86.7209C34.9594 86.7962 35.1363 86.8352 35.3154 86.8352C35.4944 86.8352 35.6713 86.7962 35.8338 86.7209C35.9963 86.6456 36.1404 86.5359 36.2562 86.3993C36.372 86.2627 36.4566 86.1025 36.5043 85.9299C36.5519 85.7573 36.5614 85.5764 36.532 85.3998V69.6664C36.5366 69.5032 36.5079 69.3408 36.4475 69.1891C36.3872 69.0373 36.2965 68.8995 36.181 68.7841C36.0656 68.6686 35.9278 68.578 35.7761 68.5176C35.6243 68.4572 35.4619 68.4285 35.2987 68.4331Z" fill="#6DB746"/>
<path d="M56.8651 68.4331C56.7047 68.433 56.5459 68.4651 56.398 68.5275C56.2502 68.5899 56.1164 68.6813 56.0046 68.7963C55.8927 68.9113 55.805 69.0475 55.7467 69.197C55.6884 69.3464 55.6606 69.5061 55.6651 69.6664V85.3998C55.6358 85.5764 55.6452 85.7573 55.6929 85.9299C55.7405 86.1025 55.8252 86.2627 55.9409 86.3993C56.0567 86.5359 56.2008 86.6456 56.3633 86.7209C56.5258 86.7962 56.7027 86.8352 56.8818 86.8352C57.0608 86.8352 57.2377 86.7962 57.4002 86.7209C57.5627 86.6456 57.7068 86.5359 57.8226 86.3993C57.9384 86.2627 58.023 86.1025 58.0707 85.9299C58.1183 85.7573 58.1278 85.5764 58.0984 85.3998V69.6664C58.103 69.5032 58.0743 69.3408 58.0139 69.1891C57.9536 69.0373 57.8629 68.8995 57.7474 68.7841C57.632 68.6686 57.4942 68.578 57.3425 68.5176C57.1907 68.4572 57.0283 68.4285 56.8651 68.4331Z" fill="#6DB746"/>
<path d="M45.6346 70.5337C45.3164 70.5337 45.0112 70.6601 44.7861 70.8851C44.5611 71.1102 44.4346 71.4154 44.4346 71.7337V83.567C44.4053 83.7436 44.4148 83.9245 44.4624 84.0972C44.51 84.2698 44.5947 84.4299 44.7105 84.5665C44.8262 84.7031 44.9704 84.8129 45.1329 84.8881C45.2953 84.9634 45.4722 85.0024 45.6513 85.0024C45.8304 85.0024 46.0073 84.9634 46.1698 84.8881C46.3322 84.8129 46.4764 84.7031 46.5921 84.5665C46.7079 84.4299 46.7926 84.2698 46.8402 84.0972C46.8878 83.9245 46.8973 83.7436 46.868 83.567V71.7337C46.868 71.5732 46.8359 71.4144 46.7736 71.2666C46.7112 71.1188 46.6198 70.985 46.5048 70.8731C46.3898 70.7613 46.2536 70.6736 46.1041 70.6153C45.9546 70.557 45.795 70.5292 45.6346 70.5337Z" fill="#6DB746"/>
<path d="M66.6659 70.5337C66.3476 70.5337 66.0424 70.6601 65.8174 70.8851C65.5923 71.1102 65.4659 71.4154 65.4659 71.7337V83.567C65.4365 83.7436 65.446 83.9245 65.4937 84.0972C65.5413 84.2698 65.6259 84.4299 65.7417 84.5665C65.8575 84.7031 66.0016 84.8129 66.1641 84.8881C66.3266 84.9634 66.5035 85.0024 66.6825 85.0024C66.8616 85.0024 67.0385 84.9634 67.201 84.8881C67.3635 84.8129 67.5076 84.7031 67.6234 84.5665C67.7392 84.4299 67.8238 84.2698 67.8714 84.0972C67.9191 83.9245 67.9286 83.7436 67.8992 83.567V71.7337C67.8993 71.5732 67.8672 71.4144 67.8048 71.2666C67.7424 71.1188 67.651 70.985 67.536 70.8731C67.4211 70.7613 67.2848 70.6736 67.1353 70.6153C66.9859 70.557 66.8263 70.5292 66.6659 70.5337Z" fill="#6DB746"/>
<path d="M77.3016 71.9331C76.9833 71.9331 76.6781 72.0595 76.453 72.2846C76.228 72.5096 76.1016 72.8148 76.1016 73.1331V81.9331C76.1494 82.2212 76.298 82.483 76.5208 82.6718C76.7436 82.8607 77.0262 82.9643 77.3182 82.9643C77.6103 82.9643 77.8929 82.8607 78.1157 82.6718C78.3385 82.483 78.487 82.2212 78.5349 81.9331V73.1331C78.535 72.9727 78.5028 72.8138 78.4405 72.666C78.3781 72.5182 78.2867 72.3844 78.1717 72.2725C78.0567 72.1607 77.9205 72.073 77.771 72.0147C77.6216 71.9564 77.4619 71.9286 77.3016 71.9331Z" fill="#6DB746"/>
</g>
<defs>
<clipPath id="clip0_114_458">
<rect width="100" height="100" fill="white"/>
</clipPath>
</defs>
</svg>
