<svg width="100" height="100" viewBox="0 0 100 100" fill="none" xmlns="http://www.w3.org/2000/svg">
<g clip-path="url(#clip0_114_553)">
<path d="M26.0996 20.7671C26.3376 21.073 26.6807 21.2799 27.0624 21.3476C27.4441 21.4154 27.8374 21.3391 28.1662 21.1337C28.2684 21.0873 28.3602 21.0208 28.4361 20.938C28.5119 20.8553 28.5703 20.7581 28.6076 20.6522C28.645 20.5464 28.6606 20.4341 28.6535 20.3221C28.6463 20.2101 28.6167 20.1007 28.5662 20.0004C27.7977 18.8206 27.3585 17.4568 27.2941 16.0503C27.2296 14.6437 27.5422 13.2455 28.1996 12.0004C28.9947 10.2789 29.3356 8.38245 29.1897 6.49183C29.0439 4.60121 28.4161 2.77949 27.3662 1.20038C27.1282 0.894386 26.7851 0.687524 26.4034 0.619798C26.0216 0.552071 25.6284 0.62829 25.2996 0.833718C25.1929 0.879732 25.0971 0.947522 25.0182 1.03274C24.9394 1.11796 24.8791 1.21872 24.8415 1.32857C24.8038 1.43841 24.7895 1.55492 24.7995 1.67061C24.8095 1.78631 24.8436 1.89863 24.8996 2.00038C25.811 3.28256 26.3785 4.77702 26.5477 6.34101C26.7169 7.905 26.4823 9.48625 25.8662 10.9337C25.0545 12.454 24.6494 14.1582 24.6903 15.8811C24.7312 17.6039 25.2166 19.287 26.0996 20.7671Z" fill="#6DB746"/>
<path d="M44.4013 22.733C44.6393 23.039 44.9824 23.2459 45.3641 23.3136C45.7459 23.3813 46.1392 23.3051 46.468 23.0997C46.6651 22.9875 46.8105 22.8025 46.8728 22.5844C46.9352 22.3663 46.9095 22.1324 46.8013 21.933C46.065 20.7397 45.6641 19.37 45.6406 17.968C45.6172 16.566 45.9721 15.1836 46.668 13.9663C47.4072 12.2508 47.7001 10.376 47.5194 8.51673C47.3387 6.65744 46.6903 4.87415 45.6346 3.33301C45.4024 3.02947 45.0651 2.82362 44.689 2.75579C44.3128 2.68796 43.9249 2.76305 43.6013 2.96635C43.4375 3.07558 43.3197 3.2414 43.2705 3.43205C43.2213 3.62271 43.2441 3.82481 43.3346 3.99968C44.2406 5.28485 44.8022 6.78079 44.9656 8.34471C45.129 9.90863 44.8888 11.4883 44.268 12.933C43.4472 14.4406 43.0284 16.1341 43.0517 17.8505C43.0751 19.5668 43.5398 21.2483 44.4013 22.733Z" fill="#6DB746"/>
<path d="M62.668 20.1663C62.9118 20.4748 63.2607 20.6827 63.648 20.7503C64.0354 20.8179 64.434 20.7405 64.768 20.5329C64.8718 20.4838 64.9642 20.4137 65.0396 20.3271C65.1151 20.2405 65.1718 20.1393 65.2062 20.0297C65.2406 19.9202 65.252 19.8047 65.2397 19.6905C65.2274 19.5764 65.1916 19.466 65.1346 19.3663C64.3635 18.201 63.9195 16.8499 63.8491 15.4543C63.7787 14.0588 64.0846 12.6699 64.7346 11.4329C65.5407 9.70998 65.8905 7.80877 65.7504 5.91173C65.6103 4.01469 64.9851 2.18549 63.9346 0.599615C63.7024 0.296075 63.3651 0.0902177 62.989 0.0223898C62.6129 -0.045438 62.225 0.0296541 61.9013 0.232949C61.7939 0.277901 61.6976 0.345768 61.6191 0.431808C61.5406 0.517848 61.4818 0.619987 61.4469 0.731089C61.412 0.842191 61.4018 0.959577 61.4169 1.07505C61.4321 1.19052 61.4722 1.30129 61.5346 1.39962C62.4319 2.6887 62.9881 4.18403 63.1513 5.74614C63.3145 7.30824 63.0794 8.88624 62.468 10.3329C61.6512 11.8503 61.2405 13.553 61.2755 15.2759C61.3105 16.9988 61.7902 18.6834 62.668 20.1663Z" fill="#6DB746"/>
<path d="M99.6013 51.467C98.168 58.1337 92.1013 63.567 81.5013 67.2003C80.4346 67.567 79.3013 67.9003 78.168 68.2337C78.7431 67.2279 79.266 66.1932 79.7346 65.1337C80.768 64.8003 81.8346 64.4337 82.9013 64.0003C89.568 61.4003 95.868 57.3337 97.168 50.9337C97.6306 49.6713 97.7662 48.3125 97.5622 46.9836C97.3582 45.6547 96.8212 44.3991 96.0013 43.3337C93.7346 41.067 89.168 41.2337 85.4013 41.9337L84.368 42.1337L83.868 39.667L85.4013 39.4003C91.2013 38.4337 95.4013 39.167 97.768 41.567C98.8981 42.9208 99.6604 44.5428 99.9815 46.2768C100.303 48.0108 100.172 49.7983 99.6013 51.467Z" fill="#6DB746"/>
<path d="M46.668 89.0332H41.4346C31.1585 89.0156 21.3083 84.9256 14.0419 77.6592C6.77559 70.3929 2.6856 60.5427 2.66797 50.2665V33.0332H4.76797L5.23464 33.7999C6.4013 36.5665 20.5346 40.4665 44.0346 40.4665C67.5346 40.4665 81.668 36.5999 82.8346 33.7999L83.168 33.0332H85.2346L85.4013 34.2665V50.2665C85.3925 60.5396 81.3099 70.3899 74.0489 77.6572C66.7878 84.9245 56.941 89.0156 46.668 89.0332ZM5.16797 37.0665V50.3999C5.17679 60.0157 9.00057 69.2351 15.8 76.0345C22.5994 82.8339 31.8188 86.6577 41.4346 86.6665H46.668C51.4378 86.6578 56.1591 85.7091 60.562 83.8747C64.965 82.0403 68.9632 79.3561 72.3283 75.9756C75.6933 72.5951 78.3591 68.5846 80.1732 64.1733C81.9874 59.7619 82.9145 55.0363 82.9013 50.2665V36.9332C76.6346 40.9332 59.568 42.7999 44.0346 42.7999C28.5013 42.7999 11.4346 41.0665 5.16797 37.0665Z" fill="#6DB746"/>
<path d="M44.0333 100C22.7 100 0 95.8003 0 88.0003C0 85.0337 3.13333 82.467 9.33333 80.367L10.1333 82.7337C5.36667 84.367 2.5 86.3337 2.5 88.0003C2.5 91.967 18.3 97.5003 44.0333 97.5003C69.7667 97.5003 85.6 91.967 85.6 88.0003C85.6 86.2337 82.5 84.2003 77.3667 82.567L78.1333 80.167C84.8 82.3003 88.1333 84.9337 88.1333 88.0003C88.1 95.8003 65.4 100 44.0333 100Z" fill="#6DB746"/>
<path d="M44.033 42.9337C25.8997 42.9337 5.29969 40.367 2.93303 34.767C2.73999 34.3975 2.648 33.9835 2.66636 33.567C2.66636 26.667 27.3997 24.167 44.033 24.167C60.6664 24.167 85.3997 26.667 85.3997 33.567C85.4043 33.9822 85.313 34.3928 85.133 34.767C82.7997 40.367 62.1664 42.9337 44.033 42.9337ZM44.033 26.667C18.533 26.667 5.16636 31.167 5.16636 33.567C6.39969 36.567 20.533 40.4337 44.033 40.4337C67.533 40.4337 81.6664 36.567 82.833 33.767V33.5337C82.8997 31.167 69.5664 26.667 44.033 26.667Z" fill="#6DB746"/>
<path d="M31.799 50.8333C31.4959 50.5619 31.1057 50.4082 30.699 50.4H27.0656V40H24.599V50.4H20.9656C20.7553 50.3995 20.547 50.4404 20.3525 50.5205C20.158 50.6006 19.9813 50.7182 19.8323 50.8667L16.7323 54.2C16.4375 54.4906 16.2698 54.8861 16.2656 55.3V68.2C16.2656 68.6155 16.4307 69.014 16.7245 69.3078C17.0183 69.6016 17.4168 69.7667 17.8323 69.7667H33.8323C34.2478 69.7667 34.6463 69.6016 34.9401 69.3078C35.2339 69.014 35.399 68.6155 35.399 68.2V55C35.3995 54.7897 35.3585 54.5813 35.2784 54.3869C35.1984 54.1924 35.0807 54.0156 34.9323 53.8667L31.799 50.8333ZM31.3656 67.0667H20.299C19.8835 67.0667 19.485 66.9016 19.1912 66.6078C18.8974 66.314 18.7323 65.9155 18.7323 65.5V56.2C18.7318 55.9897 18.7727 55.7813 18.8528 55.5869C18.9329 55.3924 19.0505 55.2156 19.199 55.0667L20.899 53.4C21.1896 53.1052 21.585 52.9375 21.999 52.9333H30.3323L32.9323 55.4V65.4C32.946 65.614 32.9156 65.8285 32.843 66.0303C32.7704 66.2321 32.6572 66.4168 32.5103 66.573C32.3635 66.7293 32.1861 66.8537 31.9892 66.9386C31.7923 67.0235 31.5801 67.0671 31.3656 67.0667Z" fill="#6DB746"/>
</g>
<defs>
<clipPath id="clip0_114_553">
<rect width="100" height="100" fill="white"/>
</clipPath>
</defs>
</svg>
