<svg width="100" height="100" viewBox="0 0 100 100" fill="none" xmlns="http://www.w3.org/2000/svg">
<path d="M99.1345 46C98.7678 45.6333 98.1678 45.5667 97.2345 45.5333H92.9011L93.1678 44.8667C96.8252 37.3408 98.5657 29.0276 98.2345 20.6667C98.1966 20.179 98.0361 19.7089 97.7678 19.3C97.7678 19.1 97.7678 18.9333 97.5011 18.7667L97.2678 18.2L96.9011 18.6333L96.6678 19.0667C96.3005 19.3775 96.0048 19.7641 95.8011 20.2C95.4783 21.5646 94.8176 22.8262 93.8799 23.8688C92.9421 24.9114 91.7573 25.7015 90.4345 26.1667C90.1747 26.1976 89.9243 26.2827 89.6996 26.4166C89.4748 26.5505 89.2807 26.7301 89.1298 26.9438C88.979 27.1575 88.8747 27.4006 88.8238 27.6572C88.773 27.9138 88.7766 28.1782 88.8345 28.4333C88.9346 28.9233 88.9232 29.4294 88.8011 29.9143C88.6791 30.3992 88.4495 30.8505 88.1294 31.2346C87.8092 31.6188 87.4068 31.926 86.9518 32.1335C86.4969 32.341 86.0011 32.4435 85.5011 32.4333C85.2275 32.4306 84.9565 32.487 84.7067 32.5987C84.4569 32.7104 84.2342 32.8748 84.0538 33.0805C83.8734 33.2863 83.7395 33.5285 83.6614 33.7908C83.5833 34.053 83.5627 34.3291 83.6011 34.6C83.6313 35.708 83.2514 36.7881 82.5345 37.6333C82.5345 37.3333 82.7011 37.0667 82.7678 36.8C85.4315 28.4766 86.4061 19.7051 85.6345 11C85.3678 8.53333 84.8678 6.03333 84.3678 3.63333C84.3678 2.93333 84.0678 2.23333 83.9345 1.53333C83.8337 1.1686 83.6244 0.843105 83.3345 0.6L82.9345 0.3L82.7011 0L82.4011 0.266667L82.1345 0.5C81.8462 0.670987 81.6055 0.911694 81.4345 1.2C81.0011 2.06667 80.5678 2.96667 80.1678 3.83333C79.5011 5.26667 78.8011 6.76667 78.0011 8.16667L77.7011 8.66667C76.5283 11.2767 74.6601 13.5138 72.3011 15.1333C72.0657 15.3121 71.887 15.555 71.7865 15.833C71.6859 16.1109 71.6679 16.412 71.7345 16.7C72.0476 17.7691 71.9871 18.913 71.563 19.9431C71.1388 20.9732 70.3763 21.8281 69.4011 22.3667C69.0288 22.723 68.7831 23.1912 68.7011 23.7C68.7011 23.7 68.7011 24 68.5345 24.1333C68.3678 24.2667 68.2678 25.0667 68.1678 25.5333C68.0678 26 67.7345 27.4 67.2678 27.6667C66.1114 28.3195 65.1763 29.3029 64.5824 30.4906C63.9885 31.6784 63.7629 33.0165 63.9345 34.3333C63.904 34.8082 63.7722 35.2711 63.548 35.6908C63.3238 36.1105 63.0123 36.4774 62.6345 36.7667C62.019 37.3947 61.1804 37.7541 60.3011 37.7667C58.8678 37.7667 57.4345 37.4 56.0678 37.1667L54.7345 36.9667C54.8081 36.6842 54.8972 36.4061 55.0011 36.1333C55.3601 35.1209 55.6497 34.0852 55.8678 33.0333C56.1043 32.1023 56.056 31.1218 55.7291 30.2185C55.4023 29.3152 54.8119 28.5308 54.0345 27.9667C53.2468 27.419 52.3105 27.1254 51.3511 27.1254C50.3918 27.1254 49.4554 27.419 48.6678 27.9667C47.8661 28.4667 47.1178 29.0475 46.4345 29.7L45.6011 30C45.4171 30.1607 45.2496 30.3393 45.1011 30.5333C44.8345 30.1333 44.6011 29.7333 44.3678 29.3333C43.7177 28.1462 42.9469 27.0291 42.0678 26C41.6582 25.5161 41.1474 25.1281 40.5714 24.8631C39.9955 24.5982 39.3684 24.4629 38.7345 24.4667C38.1806 24.4586 37.6316 24.5706 37.1252 24.795C36.6189 25.0194 36.1671 25.3509 35.8011 25.7667C34.8446 27.0093 34.1938 28.4594 33.9011 30C33.7651 30.8613 33.7651 31.7387 33.9011 32.6C33.9011 32.8333 33.9011 33.0667 33.9011 33.3L32.9011 32.8333C31.9751 32.2727 30.9409 31.9146 29.8666 31.7824C28.7922 31.6503 27.702 31.7472 26.6678 32.0667C25.9678 32.3333 25.7011 32.0667 25.2011 31.6C24.7011 31.1333 23.6011 29.7333 22.8345 28.8333C21.5345 27.3 20.1678 25.7333 18.9011 24.1667C18.3929 23.5016 18.0915 22.7017 18.0345 21.8667C17.9571 19.5878 17.0015 17.4271 15.3675 15.8367C13.7336 14.2462 11.5479 13.3492 9.26779 13.3333C7.23114 13.36 5.26475 14.0818 3.69457 15.3792C2.12438 16.6766 1.04469 18.4716 0.634459 20.4667C0.243835 22.4355 0.548737 24.479 1.49711 26.248C2.44548 28.0171 3.97851 29.4021 5.83446 30.1667C6.27798 30.3263 6.68259 30.5782 7.0216 30.9057C7.3606 31.2332 7.62629 31.6289 7.80113 32.0667C9.20113 34.9333 10.6345 37.8667 12.0345 40.6667L14.0345 44.7333L14.3678 45.5333H7.33446C6.40113 45.5333 5.76779 45.5333 5.40113 45.9667C5.03446 46.4 5.03446 47.0333 5.06779 47.9333C5.32805 56.7913 7.91466 65.4248 12.5678 72.9667C17.4877 80.3585 24.2874 86.3067 32.2678 90.2C33.1678 90.6667 34.1345 91.0667 35.1345 91.5L36.1345 91.9333L34.9345 93.1L30.7678 97.2667L30.0011 99.3L29.6345 100H75.4011L75.1345 99.4L74.3678 97.4667V97.2667C72.9678 95.8333 71.5678 94.5 70.1011 93.0667L68.8678 91.8667L69.5345 91.5667C80.0912 87.3868 88.7969 79.5565 94.0678 69.5C97.6425 62.904 99.5533 55.5352 99.6345 48.0333C99.5678 46.9667 99.5011 46.4 99.1345 46ZM86.0345 35.2667C86.1854 35.0354 86.4078 34.8598 86.6678 34.7667C87.9181 34.4657 89.034 33.76 89.8418 32.7593C90.6496 31.7586 91.104 30.519 91.1345 29.2333C91.1924 28.8847 91.369 28.5667 91.6345 28.3333C92.7011 27.5667 93.8345 26.8333 94.9678 26.0667L95.7011 25.5667C95.7011 26.2 95.5345 26.8 95.4678 27.3667C95.2476 29.2895 94.8911 31.1943 94.4011 33.0667C93.5011 36.1333 92.3345 39.2 91.2345 42.1667L90.3345 44.6C90.1678 44.9667 89.7345 45.3667 89.5678 45.3667C86.7345 45.3667 83.8678 45.3667 81.1011 45.3667H79.1345L79.8011 41.6667C81.4303 41.5123 82.9516 40.784 84.0934 39.6117C85.2352 38.4393 85.9232 36.8994 86.0345 35.2667ZM83.7678 57.7C83.8143 58.0618 83.7851 58.4292 83.6822 58.7791C83.5792 59.129 83.4047 59.4537 83.1696 59.7326C82.9346 60.0115 82.6442 60.2386 82.3168 60.3994C81.9894 60.5602 81.6322 60.6512 81.2678 60.6667C79.8678 60.6667 78.8678 59.5667 78.7345 57.8667C78.7345 57.2307 78.6082 56.601 78.3628 56.0143C78.1174 55.4275 77.7579 54.8954 77.3051 54.4488C76.8523 54.0022 76.3152 53.65 75.7252 53.4127C75.1351 53.1755 74.5037 53.0578 73.8678 53.0667C73.2306 53.0203 72.5908 53.1071 71.989 53.3217C71.3873 53.5362 70.8368 53.8737 70.3727 54.3128C69.9086 54.7518 69.541 55.2827 69.2934 55.8716C69.0457 56.4605 68.9235 57.0946 68.9345 57.7333C68.9348 58.1489 68.8524 58.5603 68.6922 58.9438C68.5319 59.3272 68.297 59.6749 68.0011 59.9667C67.4994 60.4217 66.8451 60.6715 66.1678 60.6667C64.6011 60.6667 63.7011 59.4333 63.7011 57.5V48.1H83.7011C83.7291 48.3325 83.7291 48.5675 83.7011 48.8C83.8011 51.8 83.8011 54.7333 83.7678 57.7ZM82.9678 8.56667V21.4333V21.6667C82.9678 22.6333 82.7011 23.6333 82.5345 24.6C82.2678 26.6 81.9678 28.6667 81.5678 30.6667C81.1678 32.6667 80.4678 34.9667 79.8345 37.0333C79.8345 37.4333 79.6011 37.8667 79.4678 38.2667C79.3048 38.6005 79.035 38.8704 78.7011 39.0333C78.1864 39.3165 77.6516 39.5616 77.1011 39.7667L76.2011 40.1333L75.7011 40.3667L76.1011 40.7667C76.6012 41.1456 76.9404 41.6988 77.0516 42.3162C77.1627 42.9337 77.0376 43.5705 76.7011 44.1C76.3011 45.0667 75.6011 45.2333 74.4678 45.2667C73.3345 45.3 71.8678 45.2667 70.6011 45.4667H69.5011C69.4853 45.2336 69.4853 44.9997 69.5011 44.7667C69.6789 43.8333 69.8789 42.9333 70.1011 42.0667C70.1011 41.9 70.4011 41.6667 70.8345 41.4C72.0928 40.7668 73.1259 39.7619 73.7937 38.5217C74.4616 37.2814 74.7318 35.8657 74.5678 34.4667C74.5864 34.0231 74.7778 33.6043 75.1011 33.3C76.0312 32.4753 76.7498 31.4394 77.1964 30.2793C77.6431 29.1192 77.8047 27.8689 77.6678 26.6333C77.6457 26.1563 77.7868 25.686 78.0678 25.3C78.8562 24.4031 79.4091 23.3242 79.6768 22.1604C79.9444 20.9966 79.9184 19.7846 79.6011 18.6333C79.5527 18.425 79.5527 18.2083 79.6011 18C81.4414 15.16 82.5941 11.9301 82.9678 8.56667ZM62.3678 39.6C63.8113 38.9235 65.0043 37.8083 65.7765 36.4135C66.5487 35.0188 66.8606 33.4158 66.6678 31.8333C66.6678 31.8333 66.9345 31.3 67.2678 31.0667C68.346 30.4214 69.2499 29.5221 69.9007 28.4472C70.5514 27.3723 70.9292 26.1545 71.0011 24.9C71.0595 24.4796 71.2593 24.0916 71.5678 23.8C72.581 23.0344 73.3736 22.0145 73.8654 20.8437C74.3571 19.6728 74.5305 18.3928 74.3678 17.1333C74.3068 16.9494 74.3068 16.7506 74.3678 16.5667C76.6857 14.5248 78.6068 12.0726 80.0345 9.33333C79.915 11.8952 78.9276 14.3403 77.2345 16.2667C76.784 16.6061 76.474 17.0993 76.3633 17.6524C76.2527 18.2056 76.3492 18.78 76.6345 19.2667C77.6345 20.9 76.6345 22.1667 75.7678 23.4333C75.3002 23.9237 74.954 24.5169 74.7572 25.1652C74.5604 25.8136 74.5183 26.4991 74.6345 27.1667C74.7996 28.016 74.6919 28.8957 74.3267 29.6801C73.9614 30.4644 73.3574 31.1131 72.6011 31.5333C72.1743 31.7845 71.8399 32.1667 71.6477 32.6231C71.4555 33.0796 71.4158 33.5858 71.5345 34.0667C71.8626 35.0525 71.7874 36.1281 71.3253 37.0586C70.8631 37.9892 70.0516 38.6991 69.0678 39.0333C68.4725 39.2554 67.9655 39.6647 67.6228 40.1997C67.2802 40.7347 67.1205 41.3664 67.1678 42C67.1678 44.1333 66.5011 44.8 63.6011 45.3333C62.9696 45.4009 62.3327 45.4009 61.7011 45.3333H61.3345C62.0799 44.6028 62.5798 43.6585 62.7649 42.6314C62.95 41.6042 62.8113 40.5448 62.3678 39.6ZM57.8678 39.6C59.3678 39.8333 60.2011 40.4667 60.4011 41.6C60.4973 42.1667 60.398 42.7493 60.1193 43.2521C59.8407 43.7548 59.3993 44.1479 58.8678 44.3667C57.7404 44.9736 56.507 45.3583 55.2345 45.5C53.6356 45.5835 52.0334 45.5835 50.4345 45.5H48.7011C48.7011 45.2667 48.7011 45.0333 48.7011 44.8333C48.537 44.2218 48.4255 43.5973 48.3678 42.9667C48.3665 42.7919 48.4013 42.6188 48.4702 42.4582C48.539 42.2975 48.6403 42.1529 48.7678 42.0333C50.018 40.9932 51.4792 40.2369 53.0504 39.8167C54.6216 39.3966 56.2652 39.3227 57.8678 39.6ZM61.2011 48.1333V51.4667H51.2011V48.1333H61.2011ZM42.6678 59.4C42.6975 58.4002 42.3453 57.4267 41.6827 56.6774C41.0201 55.9282 40.097 55.4595 39.1011 55.3667C36.6345 55 36.0011 54.2667 35.9678 51.7667C35.9678 50.6667 35.9678 49.5667 35.9678 48.4333C35.9559 48.356 35.9559 48.2773 35.9678 48.2H48.4011C48.4293 48.3543 48.4293 48.5124 48.4011 48.6667V50.8333C48.4011 54.1667 48.4011 57.8 48.4011 61.2667C48.43 61.6579 48.3753 62.0509 48.2407 62.4194C48.1061 62.788 47.8947 63.1237 47.6204 63.4042C47.3461 63.6848 47.0153 63.9038 46.65 64.0468C46.2846 64.1897 45.893 64.2533 45.5011 64.2333C45.1082 64.2572 44.7146 64.198 44.346 64.0595C43.9775 63.921 43.6423 63.7064 43.3624 63.4296C43.0824 63.1527 42.864 62.82 42.7213 62.4531C42.5787 62.0861 42.515 61.6932 42.5345 61.3C42.5345 60.9667 42.5345 60.6333 42.5345 60.3333L42.6678 59.4ZM45.3345 37C45.3091 35.941 45.5135 34.889 45.9336 33.9166C46.3536 32.9441 46.9794 32.0742 47.7678 31.3667L48.3011 30.9333C48.8247 30.4659 49.3943 30.0527 50.0011 29.7C50.3609 29.4923 50.769 29.3829 51.1845 29.3829C51.5999 29.3829 52.008 29.4923 52.3678 29.7C52.6623 29.93 52.8933 30.2313 53.0391 30.5754C53.1849 30.9195 53.2407 31.2951 53.2011 31.6667C53.2703 33.0128 52.9601 34.3514 52.306 35.53C51.6519 36.7086 50.6801 37.6799 49.5011 38.3333C48.7151 38.7171 47.9672 39.1747 47.2678 39.7L46.4678 40.2333L44.8345 39.1333C45.1345 38.5333 45.2345 37.7333 45.3345 37ZM44.4678 41.9333C45.3401 42.5983 45.915 43.5805 46.0678 44.6667C46.1363 44.9063 46.1363 45.1604 46.0678 45.4H45.6345H38.3011C38.208 44.6428 38.3409 43.8751 38.6831 43.1933C39.0253 42.5115 39.5616 41.9461 40.2243 41.5684C40.8871 41.1907 41.6468 41.0175 42.4079 41.0705C43.1689 41.1236 43.8972 41.4006 44.5011 41.8667L44.4678 41.9333ZM36.4345 29.4667C36.4532 28.9048 36.6607 28.3655 37.0236 27.9361C37.3865 27.5067 37.8835 27.2121 38.4345 27.1H38.8678C39.3253 27.135 39.7667 27.2847 40.1512 27.5352C40.5357 27.7857 40.8509 28.129 41.0678 28.5333C42.3998 30.4039 43.1847 32.6085 43.3345 34.9C43.3204 35.033 43.3204 35.167 43.3345 35.3C43.3345 35.5667 43.3345 35.8 43.3345 36.0333C43.0345 38.4667 41.9678 39.3667 39.6011 39.3667C39.3718 39.3026 39.1716 39.1613 39.0345 38.9667C37.9079 37.6847 37.0883 36.1629 36.6378 34.5168C36.1873 32.8707 36.1177 31.1436 36.4345 29.4667ZM26.4345 35.1333C26.6576 34.8252 26.9547 34.5782 27.2984 34.4151C27.6421 34.252 28.0213 34.178 28.4011 34.2H28.8011C30.1435 34.1844 31.4636 34.5445 32.6122 35.2395C33.7607 35.9346 34.6921 36.9369 35.3011 38.1333C35.6597 38.8592 36.0837 39.551 36.5678 40.2L37.0678 40.9C36.8504 41.1565 36.6811 41.4501 36.5678 41.7667C36.3345 42.4667 36.0345 42.5667 35.1678 42.3C34.4121 42.0644 33.626 41.9409 32.8345 41.9333C31.5158 41.85 30.2448 41.4087 29.1582 40.6569C28.0717 39.9051 27.2106 38.8713 26.6678 37.6667C26.4315 37.2864 26.3063 36.8477 26.3063 36.4C26.3063 35.9523 26.4315 35.5136 26.6678 35.1333H26.4345ZM35.3011 45.4H27.4345C29.6531 44.3976 32.1511 44.1973 34.5011 44.8333C34.8273 44.9579 35.1229 45.1511 35.3678 45.4H35.3011ZM10.0011 30.7L9.43446 29.6333C8.92475 28.9026 8.18569 28.363 7.33446 28.1C5.83514 27.5431 4.58603 26.4656 3.815 25.0643C3.04398 23.663 2.80244 22.0312 3.13446 20.4667C3.51809 19.0965 4.33005 17.8849 5.4516 17.0093C6.57315 16.1336 7.94545 15.6398 9.36779 15.6C9.79972 15.5507 10.2359 15.5507 10.6678 15.6C12.2303 16.0291 13.5943 16.9895 14.5252 18.3158C15.456 19.6421 15.8954 21.2514 15.7678 22.8667C15.736 23.6181 15.9592 24.3582 16.4011 24.9667L20.0011 29.1C21.2011 30.5 22.4678 31.9667 23.6678 33.4333C23.9507 33.8663 24.058 34.3908 23.9678 34.9C23.7263 35.7758 23.7003 36.697 23.8918 37.585C24.0833 38.4731 24.4868 39.3016 25.0678 40C25.6055 40.7305 26.2079 41.411 26.8678 42.0333L27.3011 42.5C26.9444 42.7027 26.5995 42.9252 26.2678 43.1667C25.1011 43.9 24.0345 44.6 22.9345 45.2C22.4667 45.3757 21.9655 45.4441 21.4678 45.4C21.0685 45.3672 20.6671 45.3672 20.2678 45.4C18.1011 45.8333 16.9345 45.1 15.8011 42.6C13.9678 38.6333 11.9011 34.6 10.0011 30.7ZM7.80113 50.7V48.2333H33.3345V48.8333C33.402 49.5762 33.402 50.3238 33.3345 51.0667C33.0611 51.2964 32.7235 51.4361 32.3678 51.4667H16.0678C13.6345 51.4667 11.1345 51.4667 8.66779 51.4667C8.37487 51.5048 8.07815 51.4336 7.83446 51.2667C7.83446 51.2667 7.66779 50.9333 7.66779 50.6L7.80113 50.7ZM70.1678 96.6667L70.8345 97.3667H33.9345L34.6678 96.6667C35.9011 95.4667 37.2011 94.2 38.5345 93C38.7746 92.9348 39.0277 92.9348 39.2678 93C47.809 95.4328 56.8599 95.4328 65.4011 93C65.6384 92.9161 65.8972 92.9161 66.1345 93C67.5678 94.0667 68.8345 95.3667 70.1678 96.6667ZM50.7011 92.1333C40.2726 91.7436 30.3104 87.712 22.5459 80.7392C14.7815 73.7664 9.70583 64.2934 8.20113 53.9667H32.4345C33.3678 53.9667 33.7678 53.9667 34.1011 54.9333C34.4062 55.7227 34.9217 56.4134 35.5916 56.9305C36.2615 57.4476 37.0602 57.7714 37.9011 57.8667C39.0345 58.0667 39.6678 58.2 39.9011 58.5C40.1345 58.8 40.1345 59.4333 40.1345 60.6C39.9995 61.7914 40.2505 62.9947 40.8506 64.0328C41.4506 65.0709 42.368 65.889 43.4678 66.3667C44.3046 66.7021 45.2114 66.8254 46.1074 66.7256C47.0034 66.6257 47.8608 66.3058 48.6032 65.7944C49.3456 65.2829 49.95 64.5958 50.3626 63.7942C50.7751 62.9926 50.9831 62.1014 50.9678 61.2C50.9678 59.5333 50.9678 57.8667 50.9678 56.1333V54.1H60.9678C60.9678 54.4667 60.9678 54.8 60.9678 55.1333C60.9678 56.1667 60.9678 57.2 60.9678 58.2333C60.9895 59.3882 61.4026 60.5015 62.1395 61.3909C62.8764 62.2804 63.8934 62.8934 65.024 63.1296C66.1546 63.3658 67.332 63.2112 68.3633 62.6911C69.3946 62.171 70.2189 61.3162 70.7011 60.2667C70.9596 59.6183 71.1061 58.9307 71.1345 58.2333C71.125 57.904 71.1835 57.5762 71.3062 57.2705C71.429 56.9647 71.6133 56.6875 71.8478 56.4561C72.0824 56.2247 72.362 56.0441 72.6694 55.9255C72.9768 55.8069 73.3053 55.7528 73.6345 55.7667C75.0678 55.7667 75.8678 56.6333 76.0011 58.2C75.9092 58.9274 75.9763 59.6661 76.1978 60.3651C76.4192 61.0641 76.7897 61.7067 77.2837 62.2485C77.7776 62.7903 78.3833 63.2185 79.0589 63.5034C79.7345 63.7883 80.4638 63.9232 81.1966 63.8988C81.9294 63.8744 82.6482 63.6912 83.3033 63.3619C83.9584 63.0326 84.5343 62.5651 84.9911 61.9916C85.4479 61.418 85.7747 60.7522 85.9491 60.0401C86.1235 59.3279 86.1413 58.5864 86.0011 57.8667V54.0333H96.0011C94.3756 64.8124 88.8814 74.6311 80.5449 81.6549C72.2083 88.6787 61.5998 92.4272 50.7011 92.2V92.1333ZM97.0011 48.6667C97.0011 49.5 97.0011 50.2667 96.8345 51.0333C96.7214 51.1802 96.5721 51.2951 96.4011 51.3667H86.4011V48.0333H97.0678C97.0679 48.2462 97.0455 48.4585 97.0011 48.6667Z" fill="#6DB746"/>
</svg>
