<svg width="100" height="100" viewBox="0 0 100 100" fill="none" xmlns="http://www.w3.org/2000/svg">
<g clip-path="url(#clip0_114_581)">
<path d="M100.002 76.6662L95.7016 70.3996C95.6274 70.2855 95.5313 70.1873 95.4191 70.1105C95.3068 70.0336 95.1804 69.9797 95.0472 69.9519C94.9141 69.924 94.7767 69.9227 94.643 69.948C94.5093 69.9734 94.382 70.0249 94.2683 70.0996L92.7016 71.1329V70.7662C92.3016 69.1996 91.2016 65.0996 89.9349 60.7662C86.3682 48.5996 85.3349 47.7996 84.8016 47.4329C83.9604 46.8215 83.0808 46.2648 82.1683 45.7662H82.0016V45.5662C82.6382 42.5618 82.7173 39.4659 82.2349 36.4329C81.7983 34.2184 81.9812 31.9265 82.7634 29.8092C83.5456 27.692 84.8968 25.8316 86.6683 24.4329C87.3617 23.9257 88.0978 23.4796 88.8682 23.0996L89.7016 22.6662C89.8609 22.608 90.0065 22.5174 90.1293 22.4003C90.252 22.2832 90.3493 22.142 90.415 21.9856C90.4807 21.8291 90.5134 21.6608 90.5111 21.4912C90.5088 21.3215 90.4715 21.1542 90.4016 20.9996C90.3531 20.8701 90.2775 20.7525 90.1797 20.6548C90.082 20.557 89.9644 20.4814 89.8349 20.4329C89.6606 20.3605 89.4737 20.3232 89.2849 20.3232C89.0961 20.3232 88.9092 20.3605 88.7349 20.4329L88.1016 20.6996C85.1462 22.1431 82.7375 24.5044 81.2354 27.4305C79.7333 30.3565 79.2186 33.6901 79.7682 36.9329C80.0822 38.8871 80.0822 40.8788 79.7682 42.8329L79.5683 44.0329V44.3996L79.2682 44.2329C78.2349 43.6662 76.6016 42.7996 74.3682 41.6662L73.6349 41.2996V41.0996C74.2485 38.0025 74.3274 34.8233 73.8682 31.6996C73.2207 27.1283 71.3426 22.8191 68.4349 19.2329C65.0285 14.8735 60.2468 11.7954 54.8682 10.4996C50.5467 9.40018 46.0006 9.56212 41.7682 10.9662C36.2204 12.7764 31.4953 16.4974 28.4349 21.4662C25.9993 25.2377 24.597 29.5826 24.3682 34.0662C24.1964 36.6484 24.3984 39.2419 24.9682 41.7662V41.9662L24.5349 42.1662C21.4007 43.7043 18.3618 45.4297 15.4349 47.3329C14.9016 47.6996 13.8682 48.4996 10.3016 60.6662C9.10158 64.6996 8.06825 68.5662 7.53491 70.6662L7.33491 70.8996L5.90158 69.9996C5.78786 69.9249 5.6605 69.8734 5.52682 69.848C5.39314 69.8227 5.25577 69.824 5.1226 69.8519C4.98942 69.8797 4.86306 69.9336 4.75077 70.0105C4.63848 70.0873 4.54247 70.1855 4.46825 70.2996L0.168245 76.6662C0.015666 76.9011 -0.0383961 77.1866 0.0177351 77.461C0.0738663 77.7355 0.235686 77.9768 0.468246 78.1329C0.693879 78.287 0.971348 78.3454 1.23996 78.2955C1.50857 78.2455 1.74645 78.0912 1.90158 77.8662L5.23491 72.9662C5.33028 72.8234 5.4771 72.7229 5.64477 72.6856C5.81244 72.6483 5.98802 72.6772 6.13491 72.7662L21.5016 82.7662C21.5662 82.8256 21.6179 82.8977 21.6532 82.978C21.6885 83.0584 21.7067 83.1452 21.7067 83.2329C21.7067 83.3207 21.6885 83.4075 21.6532 83.4878C21.6179 83.5681 21.5662 83.6403 21.5016 83.6996L18.5349 88.1663C18.379 88.3971 18.3197 88.6798 18.3695 88.9539C18.4193 89.228 18.5744 89.4717 18.8016 89.6329C18.9165 89.7129 19.0464 89.7688 19.1835 89.797C19.3206 89.8253 19.4621 89.8254 19.5992 89.7973C19.7364 89.7693 19.8664 89.7137 19.9814 89.6338C20.0964 89.554 20.194 89.4516 20.2682 89.3329L24.4349 83.3329C24.5773 83.1008 24.6255 82.8231 24.5697 82.5566C24.514 82.2902 24.3584 82.0551 24.1349 81.8996L21.9682 80.4662L22.2682 80.2329C28.8107 76.0058 34.1772 70.1921 37.8682 63.3329C38.3694 62.3827 38.9375 61.4693 39.5682 60.5996V60.3996L40.0016 59.9996C41.5291 60.6397 43.1303 61.0876 44.7682 61.3329C47.1027 61.609 49.4509 61.7537 51.8016 61.7662H52.0016C55.3349 61.7662 58.3682 61.7662 61.0349 61.7662C61.4016 62.3662 61.6349 62.7996 61.7683 63.0662C65.4279 69.9923 70.798 75.8673 77.3682 80.1329L77.6683 80.3662L75.6016 81.7329C75.4723 81.814 75.3607 81.9204 75.2735 82.0456C75.1863 82.1709 75.1253 82.3125 75.0942 82.4619C75.063 82.6114 75.0624 82.7655 75.0923 82.9152C75.1222 83.0648 75.1821 83.2069 75.2682 83.3329L80.0016 89.9996L81.7683 88.8329L78.1349 83.4329C78.0544 83.2981 78.0269 83.1381 78.0577 82.9841C78.0885 82.8302 78.1754 82.6931 78.3016 82.5996L93.8016 72.5996C93.9116 72.5012 94.054 72.4468 94.2016 72.4468C94.3492 72.4468 94.4916 72.5012 94.6016 72.5996L97.9349 77.5662C98.09 77.7912 98.3279 77.9455 98.5965 77.9955C98.8651 78.0454 99.1426 77.987 99.3682 77.8329C99.5901 77.7386 99.7735 77.572 99.8885 77.3601C100.004 77.1482 100.043 76.9037 100.002 76.6662ZM70.9683 28.6996L71.2016 29.6996C72.5326 34.7399 72.1814 40.077 70.2016 44.8996C69.871 45.6886 69.4925 46.4567 69.0682 47.1996C68.9325 47.4667 68.7765 47.723 68.6016 47.9662C68.1372 48.7737 67.6252 49.5529 67.0683 50.2996L66.8682 50.5329L66.6683 50.3329C65.4517 49.0313 63.9598 48.0177 62.3016 47.3662H61.9683L62.2016 47.0662C66.2578 41.9979 69.1586 36.1051 70.7016 29.7996L70.9683 28.6996ZM73.9683 53.3996H74.1683V53.5996C74.1683 53.8996 73.9349 54.1996 73.8682 54.4996C73.5516 54.7968 73.2177 55.0751 72.8683 55.3329H72.7016C72.0541 54.9377 71.3439 54.6559 70.6016 54.4996C70.2682 54.0329 69.7682 53.2329 69.1016 52.3662V52.1996L70.1349 50.7996L70.4016 50.3662L70.0016 49.9996L70.2349 50.2662C71.2503 51.5392 72.5224 52.584 73.9683 53.3329V53.3996ZM43.9682 12.9662C44.8349 12.7662 45.7349 12.5662 46.6349 12.4329C47.5782 12.3659 48.525 12.3659 49.4682 12.4329C50.9127 12.4284 52.3537 12.5736 53.7682 12.8662C55.9561 13.2755 58.0619 14.0413 60.0016 15.1329C60.1456 15.2326 60.2673 15.3612 60.3591 15.5103C60.4509 15.6595 60.5108 15.8261 60.5349 15.9996C60.9611 19.3235 60.905 22.6917 60.3683 25.9996C56.5079 25.6381 52.8076 24.2809 49.6291 22.0606C46.4505 19.8403 43.9028 16.833 42.2349 13.3329L43.9682 12.9662ZM32.5349 19.9996C34.611 17.638 37.1532 15.7314 40.0016 14.3996H40.2016V14.6329C41.9602 18.4169 44.656 21.689 48.0336 24.1391C51.4112 26.5891 55.3586 28.136 59.5016 28.6329H60.0016V28.9329C59.9041 29.182 59.8261 29.4384 59.7682 29.6996C59.5683 30.2996 59.3682 30.9329 59.1016 31.5329C58.252 33.7926 57.1328 35.9415 55.7682 37.9329C55.7018 38.0618 55.6016 38.1702 55.4783 38.2465C55.355 38.3229 55.2132 38.3642 55.0683 38.3662H54.3349C48.1436 36.5931 42.5685 33.1304 38.2349 28.3662C35.9977 25.8882 34.0722 23.1456 32.5016 20.1996L32.5349 19.9996ZM26.8682 32.0329C27.1451 30.2648 27.6145 28.5322 28.2682 26.8662C28.8658 25.2771 29.673 23.775 30.6682 22.3996L30.9016 22.0996L31.1016 22.4329C35.9103 30.9657 43.7512 37.3788 53.0682 40.3996H53.5016L53.1349 40.6996L52.0349 41.7329C51.2826 42.4754 50.4808 43.1658 49.6349 43.7996C48.2349 44.7996 46.7349 45.6996 45.3016 46.5662L44.5349 47.0329C44.3719 47.082 44.198 47.082 44.0349 47.0329C43.8255 47.0711 43.611 47.0711 43.4016 47.0329C37.0902 43.6405 31.5512 38.9755 27.1349 33.3329C27.0073 33.1444 26.918 32.9325 26.8722 32.7094C26.8265 32.4864 26.8251 32.2565 26.8682 32.0329ZM26.6682 36.3662L27.0682 36.9329C30.3154 40.6726 34.0617 43.9477 38.2016 46.6662L38.6682 46.9996H38.1016C37.0457 47.2973 36.052 47.7828 35.1682 48.4329C34.7016 48.8107 34.2349 49.2107 33.7682 49.6329H31.7016C31.5445 49.6241 31.3914 49.5807 31.2531 49.5058C31.1148 49.4309 30.9947 49.3263 30.9016 49.1996L30.6682 48.8662C30.4016 48.4662 30.1349 48.0662 29.9016 47.6329C29.4269 46.8502 29.0037 46.0374 28.6349 45.1996C28.1735 44.1988 27.7944 43.162 27.5016 42.0996C27.0579 40.2163 26.7791 38.2979 26.6682 36.3662ZM30.8349 53.3329V53.4996C30.6016 53.8329 30.4016 54.1662 30.1682 54.4662C29.1502 54.6995 28.1876 55.1298 27.3349 55.7329L26.6682 56.2996V55.8662C26.5708 55.1302 26.3688 54.4118 26.0682 53.7329V53.4996H26.2682C27.3085 52.941 28.2536 52.2209 29.0682 51.3662L29.3016 51.1329V51.3996C29.7682 52.0329 30.2349 52.6329 30.7682 53.2329L30.8349 53.3329ZM39.5682 56.6662C39.0349 57.5329 38.4682 58.3662 37.9349 59.1329C37.2034 60.1851 36.5675 61.3006 36.0349 62.4662C32.3231 69.2911 26.9015 75.0344 20.3016 79.1329L9.63491 72.1662V71.9662C12.3349 61.5996 15.7349 50.3996 17.0016 49.0329H16.6682C19.4217 47.2662 22.2705 45.6526 25.2016 44.1996H25.5016V44.4996C25.7016 44.9996 25.8682 45.5329 26.1016 46.0329C26.5455 47.1089 27.0576 48.1555 27.6349 49.1662L27.3682 49.4662C26.3961 50.5488 25.1706 51.3734 23.8016 51.8662L22.3016 52.3996L23.3682 53.5662C23.8156 54.1967 24.1241 54.9148 24.2735 55.6733C24.4229 56.4317 24.4098 57.2132 24.2349 57.9662C22.8565 59.3739 21.6071 60.9022 20.5016 62.5329L22.2682 63.6662C23.3686 62.0523 24.6186 60.5457 26.0016 59.1662C27.1954 57.8555 28.7893 56.9765 30.5349 56.6662H31.1016L31.4349 56.0996C31.6682 55.6662 31.9682 55.2329 32.2682 54.7662C33.404 53.0607 34.7985 51.5425 36.4016 50.2662C37.345 49.4921 38.5155 49.0473 39.7349 48.9996C40.1206 49.0323 40.501 49.1106 40.8682 49.2329C41.1762 49.3259 41.4462 49.5154 41.6383 49.7734C41.8303 50.0315 41.9343 50.3445 41.9349 50.6662C41.6323 52.8254 40.8211 54.8819 39.5682 56.6662ZM42.0349 57.4996L41.4016 57.6662L41.7349 57.0996C43.0881 55.2626 43.8863 53.0763 44.0349 50.7996C44.0349 50.6329 44.0349 50.4996 44.0349 50.3662V49.9996H44.2016C48.6321 48.0807 52.5488 45.146 55.6349 41.4329C61.1608 34.834 63.92 26.3534 63.3349 17.7662V17.0662L63.8016 17.5662C64.0955 17.9046 64.4071 18.2273 64.7349 18.5329C65.4016 19.2662 66.1016 19.9996 66.7682 20.7662C67.1056 21.1607 67.4068 21.5846 67.6683 22.0329L68.4016 23.0329C68.7314 23.4505 68.9627 23.9372 69.0782 24.4566C69.1936 24.9761 69.1902 25.5149 69.0682 26.0329C68.589 29.1202 67.7846 32.1482 66.6683 35.0662C65.2447 38.6703 63.2897 42.041 60.8683 45.0662C60.2349 45.8329 59.5682 46.5996 58.9016 47.2996H58.5682C58.0483 47.4731 57.5758 47.7652 57.1881 48.1528C56.8005 48.5404 56.5084 49.0129 56.3349 49.5329C54.0816 51.4703 51.6092 53.1372 48.9682 54.4996C46.7806 55.7468 44.4534 56.7313 42.0349 57.4329V57.4996ZM58.1683 57.4996C55.1943 58.7045 52.0101 59.305 48.8016 59.2662C48.0349 59.2662 47.2682 59.2662 46.4682 59.2662H45.4349L46.4016 58.8662C49.8008 57.3711 53.0119 55.4802 55.9683 53.2329L56.2682 52.9996V53.3329C56.7586 54.7248 57.4073 56.0558 58.2016 57.2996V57.5329L58.1683 57.4996ZM80.0016 79.2329C73.4017 75.1344 67.9801 69.3911 64.2682 62.5662C64.2232 62.4128 64.1558 62.2668 64.0682 62.1329C63.7016 61.4329 63.0683 60.4662 62.3349 59.3662C62.3349 59.1996 62.1016 59.0329 62.0016 58.8329C61.9016 58.6329 61.0016 57.3329 60.4682 56.4329C59.4617 54.9975 58.7481 53.3777 58.3683 51.6662C58.2989 51.3029 58.2989 50.9296 58.3683 50.5662C58.4556 50.3464 58.5906 50.1487 58.7635 49.9873C58.9364 49.8259 59.1429 49.7049 59.3682 49.6329C59.7647 49.4912 60.1808 49.4125 60.6016 49.3996C62.5737 49.6566 64.3677 50.6732 65.6016 52.2329C66.2755 52.9535 66.9098 53.7102 67.5016 54.4996C68.0016 55.1996 68.4682 55.8996 68.8349 56.5329L69.1349 57.0662H69.7016H70.1016C71.2457 57.3778 72.2978 57.961 73.1683 58.7662C74.8816 60.3153 76.3934 62.0735 77.6683 63.9996L79.4349 62.8662C78.3371 61.2195 77.0872 59.6794 75.7016 58.2662C75.6202 57.669 75.6202 57.0635 75.7016 56.4662C75.7255 55.5219 76.0528 54.6102 76.6349 53.8662L77.7016 52.6996L76.1349 52.1662C74.2338 51.3941 72.6162 50.0558 71.5016 48.3329C71.8932 47.6112 72.2383 46.8652 72.5349 46.0996L74.2349 44.3329H74.4016C75.6016 44.9329 77.3349 45.8329 79.0349 46.7662L81.5683 48.1996C82.1989 48.5569 82.8108 48.9463 83.4016 49.3662C84.6683 50.7329 88.0683 61.9662 90.7682 72.3329V72.4996L80.0016 79.2329Z" fill="#6DB746"/>
</g>
<defs>
<clipPath id="clip0_114_581">
<rect width="100" height="100" fill="white"/>
</clipPath>
</defs>
</svg>
