<svg width="100" height="100" viewBox="0 0 100 100" fill="none" xmlns="http://www.w3.org/2000/svg">
<g clip-path="url(#clip0_114_568)">
<path d="M85.1333 64.167H14.8667C10.9238 64.167 7.14239 65.7333 4.35435 68.5213C1.5663 71.3094 0 75.0908 0 79.0337C0 82.9765 1.5663 86.7579 4.35435 89.546C7.14239 92.334 10.9238 93.9003 14.8667 93.9003H85.1333C89.0762 93.9003 92.8576 92.334 95.6457 89.546C98.4337 86.7579 100 82.9765 100 79.0337C100 75.0908 98.4337 71.3094 95.6457 68.5213C92.8576 65.7333 89.0762 64.167 85.1333 64.167ZM85.1333 91.7003H14.8667C11.5073 91.7003 8.28544 90.3658 5.90998 87.9904C3.53452 85.6149 2.2 82.3931 2.2 79.0337C2.2 75.6743 3.53452 72.4524 5.90998 70.077C8.28544 67.7015 11.5073 66.367 14.8667 66.367H85.1333C88.4927 66.367 91.7146 67.7015 94.09 70.077C96.4655 72.4524 97.8 75.6743 97.8 79.0337C97.8 82.3931 96.4655 85.6149 94.09 87.9904C91.7146 90.3658 88.4927 91.7003 85.1333 91.7003Z" fill="#6DB746"/>
<path d="M17.8659 72.2666C16.5473 72.2666 15.2584 72.6576 14.1621 73.3901C13.0658 74.1227 12.2113 75.1639 11.7067 76.382C11.2021 77.6002 11.0701 78.9407 11.3273 80.2339C11.5846 81.5271 12.2195 82.715 13.1518 83.6473C14.0842 84.5797 15.2721 85.2146 16.5653 85.4718C17.8585 85.7291 19.1989 85.597 20.4171 85.0925C21.6353 84.5879 22.6765 83.7334 23.409 82.6371C24.1416 81.5407 24.5326 80.2518 24.5326 78.9333C24.5326 77.1652 23.8302 75.4695 22.5799 74.2192C21.3297 72.969 19.634 72.2666 17.8659 72.2666ZM17.8659 83.5999C16.9627 83.5999 16.0798 83.3321 15.3288 82.8303C14.5778 82.3285 13.9925 81.6153 13.6468 80.7809C13.3012 79.9464 13.2108 79.0282 13.387 78.1424C13.5632 77.2565 13.9981 76.4428 14.6368 75.8041C15.2754 75.1655 16.0891 74.7306 16.975 74.5543C17.8608 74.3781 18.779 74.4686 19.6135 74.8142C20.4479 75.1599 21.1611 75.7452 21.6629 76.4962C22.1647 77.2472 22.4326 78.1301 22.4326 79.0333C22.4326 79.633 22.3144 80.2268 22.0849 80.7809C21.8554 81.3349 21.5191 81.8383 21.095 82.2624C20.671 82.6864 20.1675 83.0228 19.6135 83.2523C19.0594 83.4818 18.4656 83.5999 17.8659 83.5999Z" fill="#6DB746"/>
<path d="M39.2995 72.2666C37.9809 72.2666 36.692 72.6576 35.5957 73.3901C34.4994 74.1227 33.6449 75.1639 33.1403 76.382C32.6357 77.6002 32.5037 78.9407 32.7609 80.2339C33.0181 81.5271 33.6531 82.715 34.5854 83.6473C35.5178 84.5797 36.7057 85.2146 37.9989 85.4718C39.2921 85.7291 40.6325 85.597 41.8507 85.0925C43.0689 84.5879 44.1101 83.7334 44.8426 82.6371C45.5752 81.5407 45.9661 80.2518 45.9661 78.9333C45.9661 77.1652 45.2638 75.4695 44.0135 74.2192C42.7633 72.969 41.0676 72.2666 39.2995 72.2666ZM39.2995 83.5999C38.3949 83.6065 37.5087 83.3443 36.7534 82.8466C35.998 82.3488 35.4075 81.6379 35.0567 80.8041C34.706 79.9702 34.6108 79.051 34.7832 78.163C34.9556 77.2749 35.3879 76.4581 36.0252 75.8161C36.6625 75.1741 37.4762 74.7359 38.3629 74.5569C39.2496 74.378 40.1696 74.4665 41.0059 74.8111C41.8423 75.1558 42.5575 75.741 43.0608 76.4927C43.5641 77.2444 43.8328 78.1286 43.8328 79.0333C43.8328 80.2387 43.3563 81.3952 42.5071 82.2507C41.6579 83.1061 40.5049 83.5911 39.2995 83.5999Z" fill="#6DB746"/>
<path d="M60.7018 72.2666C59.3833 72.2666 58.0943 72.6576 56.998 73.3901C55.9017 74.1227 55.0472 75.1639 54.5426 76.382C54.038 77.6002 53.906 78.9407 54.1633 80.2339C54.4205 81.5271 55.0554 82.715 55.9878 83.6473C56.9201 84.5797 58.108 85.2146 59.4012 85.4718C60.6944 85.7291 62.0349 85.597 63.253 85.0925C64.4712 84.5879 65.5124 83.7334 66.245 82.6371C66.9775 81.5407 67.3685 80.2518 67.3685 78.9333C67.3685 77.1652 66.6661 75.4695 65.4159 74.2192C64.1656 72.969 62.4699 72.2666 60.7018 72.2666ZM60.7018 83.5999C59.7986 83.5999 58.9157 83.3321 58.1647 82.8303C57.4137 82.3285 56.8284 81.6153 56.4828 80.7809C56.1371 79.9464 56.0467 79.0282 56.2229 78.1424C56.3991 77.2565 56.834 76.4428 57.4727 75.8041C58.1114 75.1655 58.9251 74.7306 59.8109 74.5543C60.6968 74.3781 61.615 74.4686 62.4494 74.8142C63.2839 75.1599 63.9971 75.7452 64.4989 76.4962C65.0007 77.2472 65.2685 78.1301 65.2685 79.0333C65.2685 80.2444 64.7874 81.406 63.9309 82.2624C63.0745 83.1188 61.913 83.5999 60.7018 83.5999Z" fill="#6DB746"/>
<path d="M82.1315 72.2666C80.813 72.2666 79.524 72.6576 78.4277 73.3901C77.3314 74.1227 76.4769 75.1639 75.9723 76.382C75.4677 77.6002 75.3357 78.9407 75.5929 80.2339C75.8502 81.5271 76.4851 82.715 77.4175 83.6473C78.3498 84.5797 79.5377 85.2146 80.8309 85.4718C82.1241 85.7291 83.4646 85.597 84.6827 85.0925C85.9009 84.5879 86.9421 83.7334 87.6746 82.6371C88.4072 81.5407 88.7982 80.2518 88.7982 78.9333C88.7982 77.1652 88.0958 75.4695 86.8456 74.2192C85.5953 72.969 83.8996 72.2666 82.1315 72.2666ZM82.1315 83.5999C81.2269 83.6065 80.3408 83.3443 79.5854 82.8466C78.83 82.3488 78.2395 81.6379 77.8888 80.8041C77.538 79.9702 77.4428 79.051 77.6152 78.163C77.7877 77.2749 78.2199 76.4581 78.8573 75.8161C79.4946 75.1741 80.3082 74.7359 81.1949 74.5569C82.0817 74.378 83.0016 74.4665 83.838 74.8111C84.6744 75.1558 85.3896 75.741 85.8928 76.4927C86.3961 77.2444 86.6648 78.1286 86.6648 79.0333C86.6563 80.236 86.1769 81.3876 85.3296 82.2412C84.4822 83.0948 83.3342 83.5825 82.1315 83.5999Z" fill="#6DB746"/>
<path d="M36.6654 26.6667C38.7106 26.6667 40.7097 26.0598 42.4098 24.9228C44.1098 23.7859 45.4342 22.1701 46.2153 20.28C46.9964 18.3899 47.1991 16.3105 46.7977 14.3051C46.3963 12.2997 45.4088 10.4586 43.9603 9.01477C42.5118 7.57097 40.6675 6.58945 38.6608 6.19451C36.6542 5.79957 34.5754 6.00896 32.6879 6.79618C30.8003 7.5834 29.1888 8.91304 28.0573 10.6167C26.9259 12.3204 26.3255 14.3215 26.3321 16.3667C26.3321 17.7221 26.5996 19.0642 27.1193 20.316C27.639 21.5679 28.4007 22.7048 29.3607 23.6617C30.3206 24.6186 31.46 25.3766 32.7135 25.8922C33.967 26.4079 35.31 26.6711 36.6654 26.6667ZM36.6654 8.23334C38.2726 8.22681 39.8457 8.69658 41.1861 9.58335C42.5265 10.4701 43.5741 11.7341 44.1967 13.2158C44.8193 14.6975 44.989 16.3305 44.6843 17.9085C44.3796 19.4865 43.6142 20.9389 42.4848 22.0823C41.3553 23.2257 39.9124 24.0089 38.3382 24.3329C36.7641 24.6569 35.1292 24.5073 33.6399 23.9029C32.1507 23.2986 30.8739 22.2665 29.9708 20.9371C29.0676 19.6077 28.5786 18.0405 28.5654 16.4333C28.5654 14.282 29.4177 12.2183 30.9358 10.694C32.4539 9.16961 34.5141 8.30882 36.6654 8.3V8.23334Z" fill="#6DB746"/>
<path d="M37.0315 48.7669L49.9982 55.8336C50.2851 55.9945 50.5864 56.1285 50.8982 56.2336C52.1275 56.6937 53.4822 56.6903 54.7092 56.224C55.9362 55.7578 56.9513 54.8606 57.5648 53.7002C58.2697 52.4267 58.4409 50.9257 58.041 49.5261C57.6411 48.1265 56.7028 46.9425 55.4315 46.2336L39.6315 37.5336C39.212 35.2887 38.098 33.2323 36.4468 31.6547C34.7956 30.077 32.6906 29.0579 30.4289 28.7411C28.1673 28.4243 25.8633 28.8259 23.8422 29.8892C21.821 30.9524 20.1849 32.6237 19.1648 34.6669L10.4648 59.3669H33.3315L37.0315 48.7669ZM13.6982 57.1669L19.9648 38.6336H19.9982L20.5648 36.8669C20.5648 36.8669 20.5648 36.8669 20.5648 36.6669C21.2072 34.8227 22.4514 33.2483 24.0972 32.197C25.7429 31.1457 27.6945 30.6787 29.6379 30.8711C31.5812 31.0635 33.4033 31.9042 34.811 33.2578C36.2186 34.6114 37.1299 36.3992 37.3982 38.3336V38.9002L54.0648 48.1336C54.821 48.5617 55.38 49.2683 55.6229 50.1026C55.8657 50.937 55.7731 51.8331 55.3648 52.6002C54.987 53.2705 54.3888 53.7894 53.6719 54.0689C52.9549 54.3484 52.1634 54.3712 51.4315 54.1336L50.8982 53.9002L35.7315 45.5336L31.8648 57.1669H13.6982Z" fill="#6DB746"/>
<path d="M67.0013 61.3667H77.9346C79.0927 61.3667 80.2034 60.9067 81.0223 60.0878C81.8412 59.2689 82.3013 58.1582 82.3013 57.0001V46.0667C82.2925 44.9144 81.8286 43.8123 81.0106 43.0006C80.1927 42.1888 79.087 41.7334 77.9346 41.7334H67.0013C65.852 41.7334 64.7498 42.1899 63.9372 43.0026C63.1245 43.8153 62.668 44.9175 62.668 46.0667V57.0001C62.6679 58.1524 63.1234 59.2581 63.9351 60.076C64.7468 60.894 65.849 61.3579 67.0013 61.3667ZM64.868 46.0667C64.868 45.7866 64.9231 45.5092 65.0304 45.2503C65.1376 44.9915 65.2947 44.7563 65.4928 44.5582C65.6909 44.3601 65.9261 44.203 66.1849 44.0958C66.4437 43.9886 66.7212 43.9334 67.0013 43.9334H77.9346C78.5035 43.9333 79.0497 44.157 79.455 44.5562C79.8604 44.9553 80.0926 45.4979 80.1013 46.0667V57.0001C80.1013 57.5747 79.873 58.1258 79.4667 58.5321C79.0604 58.9385 78.5093 59.1667 77.9346 59.1667H67.0013C66.4325 59.158 65.8899 58.9258 65.4907 58.5205C65.0916 58.1151 64.8679 57.569 64.868 57.0001V46.0667Z" fill="#6DB746"/>
</g>
<defs>
<clipPath id="clip0_114_568">
<rect width="100" height="100" fill="white"/>
</clipPath>
</defs>
</svg>
