<svg width="100" height="100" viewBox="0 0 100 100" fill="none" xmlns="http://www.w3.org/2000/svg">
<g clip-path="url(#clip0_114_647)">
<path d="M24.8016 29.8001H74.4016C75.4941 29.8207 76.5758 29.5802 77.5567 29.0987C78.5376 28.6172 79.3895 27.9086 80.0415 27.0317C80.6935 26.1547 81.1267 25.1349 81.3053 24.0569C81.4839 22.9788 81.4026 21.8737 81.0683 20.8334C78.9847 14.6969 74.9145 9.43029 69.5016 5.86675C63.603 1.96767 56.672 -0.0756598 49.6016 7.86325e-05C42.6332 -0.0160854 35.8151 2.02472 30.0016 5.86675C24.5262 9.41056 20.3863 14.6763 18.2349 20.8334C17.9083 21.8735 17.8328 22.9762 18.0146 24.0511C18.1964 25.1261 18.6303 26.1426 19.2807 27.0175C19.9312 27.8924 20.7797 28.6007 21.7567 29.0843C22.7337 29.568 23.8115 29.8133 24.9016 29.8001H24.8016ZM20.3349 21.5001C24.0349 10.0001 36.0349 2.20008 49.6016 2.20008C63.1683 2.20008 75.1683 10.0001 78.8683 21.5001C79.087 22.1988 79.1406 22.9388 79.0249 23.6618C78.9092 24.3848 78.6274 25.0711 78.2016 25.6667C77.7673 26.2677 77.1961 26.7565 76.5353 27.0927C75.8745 27.429 75.143 27.6029 74.4016 27.6001H24.8016C24.0637 27.6041 23.3355 27.4332 22.6765 27.1012C22.0176 26.7693 21.4467 26.2858 21.0108 25.6905C20.5749 25.0952 20.2863 24.405 20.1689 23.6766C20.0514 22.9482 20.1083 22.2023 20.3349 21.5001Z" fill="#6DB746"/>
<path d="M82.0016 41.3666C77.3031 40.5709 72.4741 41.1959 68.133 43.1615C63.792 45.1272 60.1365 48.344 57.6349 52.3999C56.7719 45.6319 57.62 38.7555 60.1016 32.3999L58.1016 31.4333C55.1089 39.0843 54.3011 47.4165 55.7682 55.4999L55.0349 56.8999C54.5098 58.0097 54.2374 59.2222 54.2374 60.4499C54.2374 61.6777 54.5098 62.8902 55.0349 63.9999C55.3313 64.6823 55.7899 65.282 56.3708 65.7467C56.9517 66.2115 57.6374 66.5273 58.3682 66.6666H58.6349C59.3682 69.0666 60.1349 71.3333 60.9016 73.5333L62.0682 77.0666C61.8349 77.4333 61.6016 77.7999 61.3349 78.1666C59.6735 80.3491 58.6453 82.9469 58.3631 85.6753C58.0808 88.4036 58.5555 91.1569 59.7349 93.6333C59.1965 93.9441 58.64 94.2224 58.0682 94.4666C55.6106 95.4545 52.9836 95.9528 50.3349 95.9333H49.3682C46.7195 95.9528 44.0925 95.4545 41.6349 94.4666C39.5637 93.7567 37.791 92.3715 36.6016 90.5333C35.1682 88.0999 35.2682 84.8333 36.9349 79.2333C37.4682 77.4333 38.1349 75.5333 38.8349 73.4999C40.2762 69.488 41.5111 65.4049 42.5349 61.2666C46.8349 42.9333 41.5349 31.8333 41.3016 31.2666L39.3016 32.2333C39.3016 32.2333 44.2016 43.3333 40.0016 60.7666C38.9955 64.8258 37.7828 68.831 36.3682 72.7666L35.1349 76.3333C34.2016 74.9666 33.1016 73.5333 31.8016 71.9666C29.4896 69.0287 27.8613 65.6126 27.0349 61.9666L24.8682 62.3999C25.827 66.3963 27.6599 70.1303 30.2349 73.3333C31.7595 75.1185 33.152 77.0124 34.4016 78.9999C32.9123 82.7202 32.7476 86.8393 33.9349 90.6666C33.0445 91.2092 32.0936 91.6455 31.1016 91.9666C30.138 92.4269 29.0779 92.6491 28.0105 92.6143C26.9432 92.5795 25.8998 92.2887 24.9682 91.7666C22.4349 89.9999 21.1349 85.3333 20.9016 77.1333C20.6981 72.5497 19.3456 68.0908 16.9682 64.1666L15.1016 65.3999C17.2593 68.9627 18.4965 73.0064 18.7016 77.1666C18.9682 86.2999 20.5016 91.3333 23.7016 93.5666C24.9019 94.4042 26.3384 94.8363 27.8016 94.7999C29.1645 94.7615 30.5136 94.5141 31.8016 94.0666C32.962 93.6843 34.0792 93.1816 35.1349 92.5666C36.5325 94.3811 38.3835 95.7952 40.5016 96.6666C43.2198 97.7764 46.1324 98.3317 49.0682 98.2999H50.0016C52.9486 98.3362 55.873 97.7808 58.6016 96.6666C59.3321 96.3514 60.0444 95.9952 60.7349 95.5999C63.1138 98.0132 66.2383 99.552 69.6016 99.9666C70.4176 100.095 71.2421 100.162 72.0682 100.167C73.5619 100.171 75.04 99.862 76.4066 99.2591C77.7732 98.6562 78.998 97.7729 80.0016 96.6666C81.5428 94.8488 82.6451 92.7007 83.2231 90.3887C83.8011 88.0766 83.8394 85.6625 83.3349 83.3333C82.5661 80.0443 82.5661 76.6223 83.3349 73.3333L81.2016 72.7666C80.3584 76.3848 80.3584 80.1484 81.2016 83.7666C81.6009 85.7416 81.5475 87.7815 81.0452 89.7329C80.5429 91.6843 79.6049 93.4965 78.3016 95.0333C77.2245 96.1532 75.874 96.9729 74.3833 97.4113C72.8927 97.8497 71.3134 97.8918 69.8016 97.5333C66.7134 97.2123 63.8697 95.7069 61.8682 93.3333L60.9682 93.9999L61.8682 93.3333C58.5349 89.0333 60.4682 82.6333 62.8016 79.4666C63.2016 78.8999 63.6016 78.3666 63.9349 77.7999C65.6121 75.3573 66.6232 72.5195 66.8682 69.5666H64.6682C64.5528 71.2828 64.0997 72.9593 63.3349 74.4999C63.3349 73.9666 62.9682 73.3999 62.7682 72.8333C62.1349 70.9999 61.5016 69.1666 60.9016 67.1999L93.1016 74.3666H94.0349C95.113 74.3726 96.1605 74.0078 97.0016 73.3333C97.9793 72.5264 98.7584 71.5056 99.2786 70.3496C99.7988 69.1936 100.046 67.9335 100.002 66.6666C99.9856 60.8367 98.2713 55.1378 95.0682 50.2666C92.0182 45.731 87.339 42.5439 82.0016 41.3666ZM97.6682 66.6666C97.6955 67.5611 97.5277 68.4508 97.1766 69.2739C96.8255 70.097 96.2994 70.8339 95.6349 71.4333C95.351 71.6943 95.0112 71.887 94.6415 71.9967C94.2718 72.1065 93.8819 72.1304 93.5016 72.0666L59.4349 64.6666L58.5349 64.4666C58.1628 64.3568 57.8199 64.1651 57.5316 63.9055C57.2432 63.646 57.0165 63.3251 56.8682 62.9666C56.5248 62.1436 56.362 61.2565 56.3907 60.3652C56.4195 59.4739 56.6391 58.5991 57.0349 57.7999C57.3016 57.2333 57.5682 56.6999 57.8682 56.1666C59.7185 52.4255 62.5304 49.2438 66.0156 46.9477C69.5008 44.6516 73.534 43.3236 77.7016 43.0999C78.9808 43.0957 80.2561 43.2411 81.5016 43.5333C90.9016 45.5999 97.5349 55.1666 97.6682 66.8666V66.6666Z" fill="#6DB746"/>
<path d="M37.8018 54.4335C38.0886 53.578 38.1776 52.6685 38.0621 51.7736C37.9467 50.8787 37.6297 50.0216 37.1351 49.2669C34.7627 45.4302 31.1873 42.4864 26.9666 40.8946C22.7458 39.3028 18.117 39.1524 13.8018 40.4669C9.56917 41.9479 5.94128 44.7802 3.47753 48.5271C1.01378 52.2739 -0.149002 56.7272 0.16848 61.2002C0.209008 62.1027 0.451693 62.9846 0.878623 63.7807C1.30555 64.5769 1.90583 65.267 2.63515 65.8002C3.40026 66.3291 4.30511 66.6191 5.23515 66.6335C5.65424 66.6324 6.07052 66.5649 6.46848 66.4335L35.0685 57.2002C35.702 56.9728 36.2764 56.6062 36.7495 56.1274C37.2225 55.6486 37.5821 55.0697 37.8018 54.4335ZM5.80181 64.4335C5.48034 64.5235 5.14278 64.5403 4.81397 64.4826C4.48516 64.4249 4.17346 64.2942 3.90181 64.1002C3.4423 63.7655 3.0653 63.3302 2.79956 62.8276C2.53383 62.325 2.38639 61.7684 2.36848 61.2002C2.07792 57.2033 3.11223 53.222 5.31146 49.872C7.51069 46.5219 10.7523 43.9897 14.5351 42.6669C18.3749 41.5108 22.489 41.6553 26.2383 43.0778C29.9875 44.5004 33.162 47.1213 35.2685 50.5335C35.5947 51.017 35.8064 51.5686 35.8872 52.1462C35.9681 52.7239 35.9161 53.3123 35.7351 53.8669C35.6259 54.1819 35.4503 54.4699 35.2203 54.7114C34.9903 54.9529 34.7112 55.1423 34.4018 55.2669L5.80181 64.4335Z" fill="#6DB746"/>
</g>
<defs>
<clipPath id="clip0_114_647">
<rect width="100" height="100" fill="white"/>
</clipPath>
</defs>
</svg>
