<svg width="100" height="100" viewBox="0 0 100 100" fill="none" xmlns="http://www.w3.org/2000/svg">
<g clip-path="url(#clip0_114_630)">
<path d="M35.0339 19.2334C34.7291 19.2827 34.4517 19.4389 34.2515 19.674C34.0513 19.9092 33.9414 20.2079 33.9414 20.5167C33.9414 20.8255 34.0513 21.1243 34.2515 21.3594C34.4517 21.5946 34.7291 21.7508 35.0339 21.8001C35.3388 21.7508 35.6161 21.5946 35.8163 21.3594C36.0165 21.1243 36.1264 20.8255 36.1264 20.5167C36.1264 20.2079 36.0165 19.9092 35.8163 19.674C35.6161 19.4389 35.3388 19.2827 35.0339 19.2334Z" fill="#6DB746"/>
<path d="M81.7019 29.2334C81.397 29.2827 81.1197 29.4389 80.9195 29.674C80.7193 29.9092 80.6094 30.2079 80.6094 30.5167C80.6094 30.8255 80.7193 31.1243 80.9195 31.3594C81.1197 31.5946 81.397 31.7508 81.7019 31.8001C82.0067 31.7508 82.2841 31.5946 82.4843 31.3594C82.6844 31.1243 82.7944 30.8255 82.7944 30.5167C82.7944 30.2079 82.6844 29.9092 82.4843 29.674C82.2841 29.4389 82.0067 29.2827 81.7019 29.2334Z" fill="#6DB746"/>
<path d="M52.2002 88.7C46.8764 88.8736 41.5779 87.8958 36.6669 85.8333L32.2669 83.6333H37.1669C37.5002 83.6333 71.0669 82.3666 72.1002 58.5333C72.6669 45.7666 64.5669 44.9999 53.3002 43.9666C46.8188 43.6898 40.4299 42.3264 34.4002 39.9333C30.1472 37.9732 26.5927 34.7632 24.2106 30.7315C21.8284 26.6997 20.7318 22.0375 21.0669 17.3666V16.4666L21.9669 16.2999C23.6335 15.9999 62.4669 9.29994 78.8335 17.8333C95.2002 26.3666 97.8669 46.0999 96.7002 53.8333V54.6999C96.2173 61.7165 93.5932 68.416 89.1822 73.894C84.7712 79.372 78.7856 83.3648 72.0335 85.3333C65.6486 87.5231 58.9501 88.6602 52.2002 88.7ZM43.2669 85.3666C52.6709 87.0957 62.3673 86.255 71.3335 82.9333C91.1002 76.2666 93.3002 61.3999 94.3669 54.2666V53.3999C95.5002 46.1999 92.8335 27.7666 77.7002 20.0666C63.6669 12.4666 29.7335 17.4333 23.6002 18.4333C23.426 22.4414 24.4613 26.4094 26.5716 29.8215C28.6819 33.2336 31.7696 35.9322 35.4335 37.5666C41.2067 39.854 47.3279 41.1391 53.5335 41.3666C64.7002 42.3999 75.2335 43.3999 74.5669 58.4999C73.7335 77.9666 53.6002 83.6666 43.3335 85.2999L43.2669 85.3666Z" fill="#6DB746"/>
<path d="M39.5011 86.2333L37.0678 85.9333C35.2011 85.7 18.7344 83.4666 15.7011 76.8666C15.282 75.8948 15.132 74.828 15.2669 73.7783C15.4017 72.7285 15.8165 71.7343 16.4678 70.9C16.984 69.978 17.7397 69.2125 18.655 68.6845C19.5703 68.1564 20.6112 67.8854 21.6678 67.9C28.9344 68.1333 37.3344 82.4666 38.3344 84.1L39.5011 86.2333ZM21.5011 70.3666C20.8785 70.3747 20.2706 70.5569 19.7463 70.8927C19.2219 71.2285 18.8021 71.7045 18.5344 72.2666C18.1018 72.7404 17.8151 73.3289 17.7086 73.9615C17.6022 74.5942 17.6806 75.2441 17.9344 75.8333C19.7344 79.7 29.1344 82.1 34.7678 83.1C31.7011 78.2666 25.8344 70.5 21.6011 70.3666H21.5011Z" fill="#6DB746"/>
<path d="M21.9992 100C20.9427 99.9468 19.9202 99.6089 19.04 99.0221C18.1598 98.4353 17.4547 97.6215 16.9992 96.6667C16.3992 95.794 16.0481 94.7745 15.9835 93.7175C15.9189 92.6605 16.1433 91.6059 16.6325 90.6667C19.9659 84.2667 36.9659 84 38.8325 84H40.7325L39.5992 84.9333C38.3992 86.4667 29.2325 100 21.9992 100ZM35.8992 85.6667C30.1659 86.3 20.6325 88.1 18.6326 91.8333C18.3359 92.4019 18.2096 93.0439 18.2687 93.6824C18.3279 94.321 18.5699 94.9289 18.9659 95.4333C19.224 96.0125 19.6319 96.5124 20.1475 96.8815C20.6631 97.2507 21.2677 97.4757 21.8992 97.5333C26.2659 97.5333 32.5325 90.2667 35.8992 85.6667Z" fill="#6DB746"/>
<path d="M63.899 44.5L61.7656 43.3333C66.0435 34.8287 68.4637 25.5115 68.8656 16H71.3323C70.9304 25.9237 68.3951 35.6442 63.899 44.5Z" fill="#6DB746"/>
<path d="M72.3341 50.3003L70.8008 48.3669C74.8188 45.5419 77.599 41.2822 78.5674 36.4669C78.6215 36.1785 78.774 35.9178 78.999 35.7293C79.2239 35.5408 79.5073 35.4363 79.8008 35.4336C79.9782 35.436 80.1531 35.4767 80.3133 35.5529C80.4736 35.6291 80.6155 35.739 80.7295 35.8751C80.8434 36.0112 80.9266 36.1702 80.9734 36.3414C81.0202 36.5126 81.0296 36.6918 81.0008 36.8669C79.9427 42.2909 76.8397 47.1005 72.3341 50.3003Z" fill="#6DB746"/>
<path d="M65.6659 86.6663C62.9488 84.7137 60.446 82.479 58.1992 79.9997L60.0326 78.333C62.1618 80.6838 64.5301 82.8064 67.0992 84.6663L65.6659 86.6663Z" fill="#6DB746"/>
<path d="M83.3341 78.9995C77.2791 78.8971 71.3103 77.5467 65.8008 75.0329L67.0008 72.8662C72.2036 75.2568 77.8429 76.5503 83.5674 76.6662L83.3341 78.9995Z" fill="#6DB746"/>
<path d="M95.8013 47.867L94.8013 47.167C86.8013 58.3003 78.3346 61.167 72.668 61.6003L72.8346 64.067C79.0346 63.6003 88.2346 60.5003 96.8013 48.6003L95.8013 47.867Z" fill="#6DB746"/>
<path d="M23.7 15.9005C20.3666 15.4338 18 14.6671 17.6 13.7005C17.6 13.3338 17.8333 12.7005 18.5666 11.9671C19.3 11.2338 20.3 10.2671 21.1 9.53381C24.0333 6.66714 26.1333 4.83381 25.3333 2.83381C24.5333 0.83381 22.3 0.000476418 12.3666 0.000476418C12.2034 -0.00412392 12.041 0.0246322 11.8893 0.0849848C11.7375 0.145337 11.5997 0.236016 11.4843 0.351472C11.3688 0.466927 11.2781 0.60473 11.2178 0.756445C11.1574 0.90816 11.1287 1.0706 11.1333 1.23381C11.1332 1.55522 11.2585 1.86397 11.4827 2.09433C11.7068 2.32469 12.012 2.45846 12.3333 2.46714C21.2333 2.46714 22.8 3.36714 23.0333 3.70048C23.2666 4.03381 20.9333 6.30048 19.4333 7.73381L16.6666 10.2005C16.0199 10.7162 15.5458 11.4168 15.3075 12.2089C15.0693 13.001 15.0783 13.8469 15.3333 14.6338C15.8687 15.6564 16.757 16.45 17.8333 16.8671C18.8958 17.3674 20.0151 17.7368 21.1666 17.9671C21.9666 18.1671 22.8 18.3005 23.6666 18.4338H23.9333C25.3333 18.2338 27.7333 17.8671 30.8333 17.4671V16.4338C28.4457 16.4295 26.0616 16.2512 23.7 15.9005Z" fill="#6DB746"/>
<path d="M23.799 16.6671H21.2656C20.099 16.6671 18.9323 16.6671 17.9323 16.6671C14.9453 16.8746 11.9441 16.7066 8.99896 16.1671C9.46563 15.7004 9.93229 15.3004 10.399 14.9004C12.3656 13.1337 13.7323 12.0004 13.0656 10.5671C12.399 9.13373 11.0656 8.90039 4.03229 9.70039C3.87113 9.7167 3.71493 9.76548 3.57312 9.84377C3.43131 9.92207 3.30681 10.0283 3.20715 10.156C3.10748 10.2837 3.0347 10.4302 2.99319 10.5868C2.95168 10.7434 2.9423 10.9068 2.96563 11.0671C2.98219 11.225 3.02995 11.3781 3.10614 11.5175C3.18232 11.6569 3.28542 11.7797 3.40945 11.8789C3.53348 11.9782 3.67597 12.0518 3.82866 12.0955C3.98135 12.1393 4.14121 12.1522 4.29896 12.1337C6.19295 11.9485 8.09738 11.8928 9.99896 11.9671C9.59896 12.3671 9.03229 12.8671 8.59896 13.2337L6.96563 14.7004C6.57313 14.9842 6.28524 15.3895 6.14663 15.8536C6.00801 16.3177 6.0264 16.8145 6.19896 17.2671C6.83229 18.7004 9.96563 19.4337 15.5323 19.4337C17.1656 19.4337 19.0323 19.4337 21.0656 19.2337H23.5323V18.4337H23.799V16.6671Z" fill="#6DB746"/>
</g>
<defs>
<clipPath id="clip0_114_630">
<rect width="100" height="100" fill="white"/>
</clipPath>
</defs>
</svg>
