<svg width="100" height="100" viewBox="0 0 100 100" fill="none" xmlns="http://www.w3.org/2000/svg">
<path d="M99.6333 49.7336C96.6666 30.0002 74.9666 12.5336 49.9999 10.2002C41.0998 9.43816 32.1564 11.0442 24.0775 14.8553C15.9986 18.6664 9.07176 24.547 3.99992 31.9002C1.63952 34.7359 0.24947 38.253 0.0335191 41.9362C-0.182432 45.6194 0.787067 49.2749 2.79992 52.3669C8.93325 62.1002 15.5999 61.6336 22.0333 61.1669C29.3333 60.6669 36.2333 60.1669 42.9666 75.6669C44.6675 79.9589 47.6367 83.6303 51.4781 86.1913C55.3195 88.7522 59.8505 90.0809 64.4666 90.0002C67.3451 89.976 70.2061 89.5497 72.9666 88.7336C80.9435 86.3304 87.9484 81.4503 92.9666 74.8002C95.6965 71.2796 97.693 67.2474 98.8381 62.942C99.9832 58.6365 100.254 54.1453 99.6333 49.7336ZM72.2333 86.2002C62.8666 88.8669 50.9333 87.2336 45.5666 74.6002C42.2333 66.9669 38.4666 62.1669 33.9666 59.9669C31.5154 58.7902 28.8177 58.2187 26.0999 58.3002C24.6999 58.3002 23.3333 58.3002 21.9999 58.5002C15.7999 58.9336 10.4666 59.3002 5.33325 50.9336C3.53094 48.3115 2.6367 45.1715 2.78718 41.9933C2.93767 38.8151 4.1246 35.7736 6.16659 33.3336C11.009 26.3493 17.6179 20.7748 25.3186 17.1792C33.0193 13.5836 41.5362 12.0955 49.9999 12.8669C61.3633 13.9726 72.1754 18.2974 81.1666 25.3336C89.3628 31.2622 95.0084 40.076 96.9666 50.0002C99.5666 67.5336 86.4333 82.1336 72.2333 86.2002Z" fill="#6DB746"/>
<path d="M74.7672 51.3668C71.4452 51.2771 68.2229 52.5068 65.8053 54.7869C63.3877 57.067 61.9718 60.212 61.8672 63.5335C62.1018 66.7946 63.5627 69.8458 65.9561 72.0732C68.3495 74.3006 71.4977 75.5389 74.7672 75.5389C78.0367 75.5389 81.1849 74.3006 83.5782 72.0732C85.9716 69.8458 87.4326 66.7946 87.6672 63.5335C87.6197 61.8874 87.2483 60.2668 86.5742 58.7643C85.9001 57.2617 84.9365 55.9068 83.7385 54.7769C82.5405 53.647 81.1315 52.7642 79.5922 52.1791C78.0528 51.594 76.4133 51.318 74.7672 51.3668ZM74.7672 72.9335C72.1871 72.9811 69.6885 72.0296 67.7938 70.2777C65.8991 68.5259 64.7549 66.1094 64.6005 63.5335C64.8075 60.9793 65.9684 58.5966 67.8521 56.8593C69.7359 55.122 72.2046 54.1575 74.7672 54.1575C77.3298 54.1575 79.7985 55.122 81.6822 56.8593C83.566 58.5966 84.7269 60.9793 84.9339 63.5335C84.7795 66.1094 83.6353 68.5259 81.7406 70.2777C79.8458 72.0296 77.3472 72.9811 74.7672 72.9335Z" fill="#6DB746"/>
<path d="M36.665 18.6669C36.3571 18.4747 35.989 18.4035 35.6316 18.4669C35.4518 18.4967 35.2808 18.5659 35.131 18.6697C34.9811 18.7734 34.8561 18.9091 34.765 19.0669L19.9983 41.6336C19.8863 41.7781 19.8099 41.947 19.7752 42.1264C19.7404 42.3059 19.7484 42.4911 19.7983 42.6669C19.8537 42.9788 20.0183 43.2607 20.2626 43.4623C20.5069 43.6638 20.815 43.7718 21.1316 43.7669C21.3135 43.7627 21.4927 43.7222 21.6587 43.6478C21.8247 43.5733 21.9741 43.4665 22.0983 43.3336L37.0316 20.7336C37.1606 20.5805 37.2544 20.4008 37.3063 20.2074C37.3582 20.0141 37.367 19.8116 37.332 19.6145C37.297 19.4173 37.2191 19.2303 37.1039 19.0665C36.9886 18.9028 36.8388 18.7664 36.665 18.6669Z" fill="#6DB746"/>
<path d="M54.7012 20.3671C54.3996 20.1583 54.028 20.0762 53.6664 20.1385C53.3048 20.2009 52.9822 20.4027 52.7679 20.7005L31.0012 52.2338C30.9003 52.3826 30.8298 52.5498 30.7936 52.7258C30.7574 52.9019 30.7563 53.0834 30.7904 53.2599C30.8244 53.4364 30.893 53.6044 30.9921 53.7544C31.0912 53.9043 31.2189 54.0333 31.3679 54.1338C31.5925 54.2904 31.8608 54.372 32.1346 54.3671C32.3547 54.3685 32.5721 54.3178 32.769 54.2194C32.9659 54.1209 33.1368 53.9774 33.2679 53.8005L55.0345 22.2671C55.2416 21.9708 55.3228 21.6044 55.2603 21.2483C55.1978 20.8922 54.9968 20.5753 54.7012 20.3671Z" fill="#6DB746"/>
<path d="M69.9986 28.3C69.9688 28.1202 69.8996 27.9492 69.7958 27.7994C69.6921 27.6495 69.5564 27.5245 69.3986 27.4333C69.0932 27.2348 68.7226 27.1631 68.3652 27.2333C68.1869 27.2673 68.0176 27.3382 67.8684 27.4416C67.7191 27.5449 67.5931 27.6784 67.4986 27.8333L44.5652 63.0333C44.4659 63.1841 44.3975 63.3531 44.3638 63.5304C44.3301 63.7078 44.332 63.8901 44.3692 64.0667C44.4064 64.2434 44.4782 64.4109 44.5805 64.5597C44.6828 64.7084 44.8136 64.8354 44.9652 64.9333C45.1774 65.0895 45.4351 65.1715 45.6986 65.1667C45.9302 65.1659 46.1581 65.1076 46.3617 64.9971C46.5654 64.8865 46.7384 64.7272 46.8652 64.5333L69.7319 29.3C69.8408 29.1595 69.9204 28.9987 69.9662 28.8269C70.012 28.6552 70.023 28.4761 69.9986 28.3Z" fill="#6DB746"/>
<path d="M65.8348 75.7338C65.6758 75.6244 65.4968 75.5476 65.308 75.5075C65.1193 75.4675 64.9245 75.4651 64.7348 75.5004C64.3424 75.598 63.9988 75.835 63.7681 76.1671L59.0015 83.5005C58.8952 83.6669 58.8228 83.8527 58.7884 84.0472C58.7541 84.2417 58.7586 84.441 58.8015 84.6338C58.8324 84.8262 58.9052 85.0095 59.0146 85.1707C59.124 85.332 59.2674 85.4673 59.4348 85.5671C59.6836 85.7251 59.9735 85.8062 60.2681 85.8005H60.5681C60.7605 85.7695 60.9438 85.6968 61.1051 85.5873C61.2663 85.4779 61.4016 85.3345 61.5015 85.1671L66.3015 77.8338C66.5671 77.5054 66.6982 77.0884 66.6681 76.6671C66.6046 76.4607 66.4972 76.2705 66.3534 76.1094C66.2096 75.9483 66.0327 75.8202 65.8348 75.7338Z" fill="#6DB746"/>
<path d="M89.4323 42.3338C89.2815 42.2345 89.1125 42.166 88.9352 42.1324C88.7578 42.0987 88.5755 42.1005 88.3989 42.1377C88.2222 42.1749 88.0547 42.2467 87.9059 42.349C87.7572 42.4513 87.6302 42.5821 87.5323 42.7338L82.7656 50.0005C82.5734 50.3083 82.5021 50.6765 82.5656 51.0338C82.6014 51.2114 82.6731 51.3799 82.7763 51.5289C82.8795 51.6779 83.0119 51.8044 83.1656 51.9004C83.3778 52.0566 83.6355 52.1386 83.8989 52.1338H84.1989C84.3766 52.0979 84.545 52.0262 84.6941 51.9231C84.8431 51.8199 84.9695 51.6874 85.0656 51.5338L89.9989 44.2338C90.098 43.942 90.098 43.6256 89.9989 43.3338C89.985 43.1354 89.9269 42.9426 89.8289 42.7696C89.7308 42.5966 89.5953 42.4477 89.4323 42.3338Z" fill="#6DB746"/>
</svg>
