<svg width="100" height="100" viewBox="0 0 100 100" fill="none" xmlns="http://www.w3.org/2000/svg">
<g clip-path="url(#clip0_114_563)">
<path d="M85.9667 56.6669C83.5372 54.526 81.417 52.058 79.6667 49.3336C80.1724 49.132 80.6054 48.7821 80.9088 48.33C81.2122 47.8779 81.3718 47.3447 81.3667 46.8003V43.4669C81.3667 42.742 81.0787 42.0468 80.5661 41.5342C80.0535 41.0216 79.3583 40.7336 78.6333 40.7336H77.8667V31.5336C77.8579 30.5758 77.4712 29.6602 76.7908 28.986C76.1103 28.3118 75.1912 27.9336 74.2333 27.9336H59.8C58.8421 27.9336 57.923 28.3118 57.2426 28.986C56.5621 29.6602 56.1755 30.5758 56.1667 31.5336V40.8336H55.4C54.6751 40.8336 53.9798 41.1216 53.4672 41.6342C52.9546 42.1468 52.6667 42.842 52.6667 43.5669V46.9003C52.6685 47.4131 52.8129 47.9154 53.0836 48.351C53.3544 48.7866 53.7409 49.1383 54.2 49.3669C52.8131 51.3679 51.2514 53.2419 49.5333 54.9669C49.1667 55.3003 48.8333 55.6669 48.5 56.0003C44.6333 59.9336 41 63.6003 41 69.3336V84.6669C41 88.7336 42.6155 92.6337 45.491 95.5092C48.3666 98.3848 52.2667 100 56.3333 100H77.8333C81.9 100 85.8001 98.3848 88.6756 95.5092C91.5512 92.6337 93.1667 88.7336 93.1667 84.6669V69.4003C93.1 63.6336 89.6333 60.2669 85.9667 56.6669ZM58.5333 31.5336C58.5418 31.2003 58.6779 30.883 58.9137 30.6473C59.1494 30.4115 59.4667 30.2754 59.8 30.2669H74.2333C74.5666 30.2754 74.8839 30.4115 75.1197 30.6473C75.3554 30.883 75.4916 31.2003 75.5 31.5336V40.8336H58.5333V31.5336ZM55.2 43.5669C55.2 43.4697 55.2386 43.3764 55.3074 43.3077C55.3762 43.2389 55.4694 43.2003 55.5667 43.2003H78.9C78.9509 43.1956 79.0022 43.2017 79.0506 43.218C79.099 43.2343 79.1434 43.2606 79.1811 43.2951C79.2188 43.3296 79.2488 43.3717 79.2693 43.4185C79.2897 43.4653 79.3002 43.5158 79.3 43.5669V46.9003C79.3 47.0063 79.2579 47.1081 79.1828 47.1831C79.1078 47.2581 79.0061 47.3003 78.9 47.3003H55.5667C55.4665 47.2919 55.3731 47.2461 55.3051 47.1719C55.2372 47.0978 55.1996 47.0008 55.2 46.9003V43.5669ZM90.7667 84.6669C90.7578 88.109 89.3843 91.407 86.9473 93.8378C84.5103 96.2685 81.2087 97.6336 77.7667 97.6336H56.2667C52.8335 97.6248 49.5439 96.2547 47.1194 93.824C44.6949 91.3932 43.3333 88.1001 43.3333 84.6669V69.2003C43.3333 64.4669 46.6667 61.3003 50 57.6336L51.1 56.5003C53.2371 54.4177 55.107 52.0775 56.6667 49.5336H76.9667C78.8755 52.8656 81.3192 55.8611 84.2 58.4003C87.5333 61.7336 90.6333 64.6336 90.6333 69.4003L90.7667 84.6669Z" fill="#6DB746"/>
<path d="M15.3662 60.2999C15.7154 60.3308 16.0626 60.223 16.3329 59.9999C16.9912 58.9867 17.4442 57.8542 17.6662 56.6665C18.1705 54.4812 19.0624 52.4039 20.2996 50.5332L46.6662 27.1999L47.8329 28.3665C48.65 29.1727 49.7517 29.6246 50.8996 29.6246C52.0474 29.6246 53.1491 29.1727 53.9662 28.3665L58.8996 23.3332C59.7035 22.5111 60.1678 21.416 60.1996 20.2665C60.2078 19.112 59.7653 17.9999 58.9662 17.1665L58.3329 16.6665L59.4996 15.5999C60.2113 15.3034 60.9474 15.0692 61.6996 14.8999L63.3329 14.4665C64.542 14.1219 65.6397 13.4667 66.5169 12.5661C67.3941 11.6655 68.0202 10.5509 68.3329 9.33321C68.6114 8.23316 68.6045 7.08023 68.3128 5.98359C68.0212 4.88695 67.4544 3.88291 66.6662 3.06655L65.5662 1.93321C64.8169 1.16159 63.8919 0.582744 62.8703 0.246087C61.8487 -0.0905707 60.7609 -0.175043 59.6996 -0.000118688C58.5433 0.220162 57.4562 0.7131 56.5286 1.43777C55.6011 2.16243 54.8598 3.09792 54.3662 4.16655L53.3329 6.46655C53.0989 7.17166 52.7975 7.85258 52.4329 8.49988L51.3329 9.63321L50.6329 8.93321C50.2362 8.52042 49.7599 8.19238 49.2328 7.96893C48.7057 7.74549 48.1387 7.63128 47.5662 7.63321C46.432 7.62819 45.3418 8.07148 44.5329 8.86655L39.6996 13.6665C39.2868 14.0632 38.9587 14.5395 38.7353 15.0667C38.5118 15.5938 38.3976 16.1607 38.3996 16.7332C38.3851 17.3015 38.487 17.8667 38.6991 18.3941C38.9112 18.9215 39.229 19.3999 39.6329 19.7999L40.5996 20.7999L15.9996 46.0999C14.5601 48.2409 13.7727 50.7536 13.7329 53.3332C13.7329 54.9332 13.3996 58.7665 14.4662 59.8332C14.5731 59.972 14.7091 60.0856 14.8645 60.1663C15.02 60.2469 15.1913 60.2925 15.3662 60.2999ZM54.2329 10.2999C54.8858 9.45471 55.3722 8.49323 55.6662 7.46655C55.9329 6.83321 56.1996 6.09988 56.5329 5.36655C56.8287 4.63261 57.299 3.98188 57.9031 3.47075C58.5072 2.95961 59.2268 2.60348 59.9996 2.43321C60.68 2.29573 61.384 2.33044 62.0477 2.53418C62.7113 2.73793 63.3135 3.10425 63.7996 3.59988L64.8662 4.69988C65.3714 5.22617 65.732 5.87406 65.913 6.58073C66.0941 7.2874 66.0894 8.02886 65.8996 8.73321C65.669 9.52428 65.2427 10.2444 64.6601 10.8271C64.0775 11.4097 63.3573 11.836 62.5662 12.0665L61.0662 12.4999C59.8737 12.6648 58.734 13.0979 57.7329 13.7665L56.6662 14.9665L53.0996 11.3332L54.2329 10.2999ZM41.3329 15.3665L46.2662 10.5332C46.6515 10.1894 47.1499 9.99949 47.6662 9.99988C47.9281 9.99988 48.1872 10.0531 48.4278 10.1562C48.6685 10.2593 48.8857 10.4103 49.0662 10.5999L57.2662 18.9999C57.4483 19.1844 57.5921 19.4031 57.6893 19.6433C57.7866 19.8836 57.8354 20.1407 57.8329 20.3999C57.8254 20.9274 57.6097 21.4306 57.2329 21.7999L52.2996 26.6665C52.1166 26.852 51.8986 26.9992 51.6583 27.0997C51.418 27.2002 51.1601 27.252 50.8996 27.252C50.6391 27.252 50.3812 27.2002 50.1408 27.0997C49.9005 26.9992 49.6825 26.852 49.4996 26.6665L41.2996 18.1665C40.9453 17.7844 40.7512 17.2809 40.7574 16.7599C40.7637 16.2389 40.9696 15.7401 41.3329 15.3665ZM17.6329 47.7665L42.2329 22.4999L45.0329 25.3332L18.6662 48.8332C17.4363 50.3347 16.5489 52.0866 16.0662 53.9665C16.0246 51.797 16.5657 49.6559 17.6329 47.7665Z" fill="#6DB746"/>
<path d="M16.8667 64.6329L15.8334 63.0996L14.8667 64.6996C14.283 65.5483 13.6485 66.3608 12.9667 67.1329C10.4001 70.1996 6.90006 74.3663 6.90006 78.9663C6.77359 80.1839 6.91693 81.4144 7.31991 82.5704C7.72289 83.7264 8.37559 84.7793 9.23162 85.6544C10.0876 86.5296 11.126 87.2053 12.2727 87.6337C13.4195 88.0621 14.6466 88.2325 15.8667 88.1329C17.0881 88.2317 18.3163 88.061 19.4645 87.6328C20.6126 87.2046 21.6527 86.5295 22.5112 85.6551C23.3697 84.7807 24.0257 83.7284 24.4327 82.5726C24.8397 81.4168 24.9879 80.1857 24.8667 78.9663C24.8667 74.2329 21.1001 69.7663 18.6001 66.7996C17.9835 66.1093 17.4049 65.386 16.8667 64.6329ZM15.8667 85.7996C14.9694 85.8877 14.0637 85.7757 13.2149 85.4719C12.366 85.168 11.5951 84.6797 10.9575 84.0421C10.32 83.4046 9.83172 82.6336 9.52782 81.7848C9.22393 80.9359 9.11199 80.0303 9.20006 79.1329C9.20006 75.3996 12.5334 71.5996 14.7334 68.7996L15.8667 67.4329L16.6667 68.3329C18.9334 71.0329 22.3667 74.9996 22.3667 78.9663C22.4776 79.8615 22.3885 80.7701 22.106 81.6267C21.8235 82.4833 21.3545 83.2666 20.7328 83.9202C20.1111 84.5737 19.3522 85.0813 18.5108 85.4063C17.6694 85.7313 16.7663 85.8656 15.8667 85.7996Z" fill="#6DB746"/>
</g>
<defs>
<clipPath id="clip0_114_563">
<rect width="100" height="100" fill="white"/>
</clipPath>
</defs>
</svg>
