<svg width="100" height="100" viewBox="0 0 100 100" fill="none" xmlns="http://www.w3.org/2000/svg">
<g clip-path="url(#clip0_114_605)">
<path d="M48.6982 72.1338H51.2982V65.9338H57.4982V63.3338H51.2982V57.1338H48.6982V63.3338H42.4648V65.9338H48.6982V72.1338Z" fill="#6DB746"/>
<path d="M78.1678 41.2333C76.9591 35.9221 74.279 31.0587 70.4344 27.2C67.7346 24.461 64.5012 22.3054 60.9345 20.8667C60.6745 20.7548 60.4535 20.5685 60.2992 20.3312C60.145 20.0939 60.0645 19.8163 60.0678 19.5333C60.0678 18.4333 60.0678 17.3333 60.0678 16.2V14.6C60.0678 14.6 60.0678 14.2667 60.0678 14.1V13.3333H65.1011C65.2639 13.3481 65.428 13.3274 65.582 13.2728C65.7361 13.2182 65.8765 13.1309 65.9937 13.0169C66.1109 12.9029 66.202 12.7649 66.2608 12.6124C66.3196 12.4599 66.3447 12.2965 66.3344 12.1333V11.4667C66.3344 9.2 66.3344 6.83333 66.3344 4.5C66.3087 3.30887 65.8218 2.1742 64.9762 1.33486C64.1306 0.495521 62.9924 0.0169879 61.8011 1.58775e-09L38.8344 1.58775e-09C37.6202 -3.18787e-05 36.4552 0.480031 35.5935 1.3355C34.7318 2.19097 34.2432 3.35246 34.2344 4.56667V12.0333C34.2344 13 34.6011 13.3667 35.5678 13.4H40.0011V15.2667C40.0011 16.8667 40.0011 18.3667 40.0011 19.9C39.9756 20.0949 39.8968 20.279 39.7733 20.432C39.6497 20.5849 39.4863 20.7007 39.3011 20.7667C36.4652 21.9036 33.8314 23.4906 31.5011 25.4667C26.4844 29.6574 23.0407 35.4284 21.7344 41.8333C21.2352 44.6937 21.0341 47.5981 21.1344 50.5V80.8667C21.1344 86.7667 21.1344 92.6667 21.1344 98.5667C21.1344 98.9468 21.2855 99.3114 21.5543 99.5802C21.8231 99.849 22.1876 100 22.5678 100H77.4678C77.8391 100 78.1952 99.8525 78.4577 99.59C78.7203 99.3274 78.8678 98.9713 78.8678 98.6V48.2333C78.8977 45.8811 78.6629 43.533 78.1678 41.2333ZM37.4344 11.2333H36.4345V8.9C36.4345 7.43333 36.4345 5.9 36.4345 4.43333C36.4554 4.13233 36.5362 3.83855 36.6722 3.56919C36.8082 3.29984 36.9965 3.06035 37.2263 2.86476C37.456 2.66916 37.7225 2.52141 38.0101 2.43015C38.2977 2.3389 38.6006 2.30598 38.9011 2.33333C42.2344 2.33333 45.5678 2.33333 48.9011 2.33333H56.6678C58.3678 2.33333 60.0011 2.33333 61.7678 2.33333C62.0961 2.32893 62.4221 2.38924 62.7271 2.51082C63.0321 2.6324 63.3101 2.81287 63.5454 3.04193C63.7806 3.27099 63.9684 3.54414 64.0981 3.84579C64.2278 4.14745 64.2968 4.47169 64.3011 4.8C64.3011 5.7 64.3011 6.63333 64.3011 7.53333C64.3011 8.43333 64.3011 9.26667 64.3011 10.1333C64.3222 10.2886 64.3077 10.4466 64.2587 10.5955C64.2098 10.7443 64.1276 10.8801 64.0184 10.9925C63.9092 11.1049 63.7759 11.191 63.6285 11.2443C63.4812 11.2975 63.3236 11.3166 63.1678 11.3H37.4344V11.2333ZM75.3345 97.6H24.7678C24.481 97.6163 24.1975 97.5319 23.9663 97.3615C23.735 97.1912 23.5705 96.9454 23.5011 96.6667V79.5667C23.4751 79.2078 23.5818 78.8519 23.8011 78.5667C24.0951 78.3394 24.4644 78.2321 24.8344 78.2667H75.4678C75.625 78.2555 75.7829 78.2764 75.9318 78.3279C76.0808 78.3795 76.2178 78.4607 76.3344 78.5667C76.5251 78.801 76.6203 79.0986 76.6011 79.4V96.5333C76.5674 96.8398 76.4171 97.1216 76.1813 97.3202C75.9454 97.5188 75.6422 97.619 75.3345 97.6ZM23.3344 74.3667V53.3333H76.6678V74.2C76.6678 74.5801 76.5168 74.9447 76.248 75.2135C75.9792 75.4823 75.6146 75.6333 75.2345 75.6333H24.9678C24.5835 75.6806 24.1961 75.5739 23.8901 75.3366C23.5841 75.0993 23.3844 74.7506 23.3344 74.3667ZM23.3344 51.0333V49.3667C23.3344 48.5667 23.3344 47.7333 23.3344 46.9C23.4464 41.5095 25.1897 36.2796 28.3344 31.9C31.4914 27.5384 35.8788 24.2188 40.9344 22.3667C41.2717 22.245 41.5639 22.0235 41.7723 21.7318C41.9807 21.44 42.0954 21.0918 42.1011 20.7333V13.3333H57.8344V21.0333C57.7951 21.3369 57.8732 21.6441 58.053 21.892C58.2327 22.1399 58.5003 22.3097 58.8011 22.3667C63.473 24.0123 67.5943 26.9266 70.7029 30.7829C73.8116 34.6393 75.7847 39.2852 76.4011 44.2C76.5895 45.6478 76.6786 47.1067 76.6678 48.5667C76.6678 49.2333 76.6678 49.9333 76.6678 50.6V51.1333L23.3344 51.0333Z" fill="#6DB746"/>
</g>
<defs>
<clipPath id="clip0_114_605">
<rect width="100" height="100" fill="white"/>
</clipPath>
</defs>
</svg>
