<svg width="100" height="100" viewBox="0 0 100 100" fill="none" xmlns="http://www.w3.org/2000/svg">
<g clip-path="url(#clip0_116_673)">
<path d="M27.3679 72.3337C27.1345 71.7337 26.6012 71.4671 26.1679 71.7337C24.6679 72.6128 22.939 73.0223 21.2041 72.9094C19.4692 72.7965 17.8079 72.1664 16.4345 71.1004C16.3375 71.0248 16.2236 70.9736 16.1026 70.9512C15.9816 70.9289 15.857 70.936 15.7393 70.9719C15.6216 71.0079 15.5143 71.0717 15.4264 71.1578C15.3386 71.244 15.2727 71.3501 15.2345 71.4671C15.0713 71.7619 15.0121 72.1032 15.0666 72.4358C15.121 72.7684 15.2858 73.0729 15.5345 73.3004C17.3413 74.668 19.5356 75.4266 21.8012 75.4671C23.5847 75.4606 25.334 74.9772 26.8679 74.0671C27.1324 73.8752 27.3253 73.6004 27.4159 73.2864C27.5065 72.9723 27.4896 72.6371 27.3679 72.3337Z" fill="#6DB746"/>
<path d="M54.5985 46.6668C54.5985 46.0334 54.0985 45.6668 53.5985 45.8001C51.9366 46.3091 50.1597 46.3045 48.5004 45.7871C46.8411 45.2697 45.3766 44.2635 44.2985 42.9001C44.2238 42.8033 44.1278 42.7248 44.018 42.6709C43.9082 42.6169 43.7875 42.5889 43.6652 42.5889C43.5428 42.5889 43.4221 42.6169 43.3123 42.6709C43.2025 42.7248 43.1066 42.8033 43.0318 42.9001C42.8237 43.1731 42.7109 43.5068 42.7109 43.8501C42.7109 44.1934 42.8237 44.5271 43.0318 44.8001C44.4689 46.5417 46.4157 47.789 48.5985 48.3668C50.3238 48.8278 52.1399 48.8278 53.8652 48.3668C54.1642 48.2109 54.4004 47.9568 54.534 47.6471C54.6675 47.3375 54.6903 46.9913 54.5985 46.6668Z" fill="#6DB746"/>
<path d="M19.0343 18.4666C17.6625 17.4087 16.6421 15.9613 16.1068 14.3137C15.5715 12.6662 15.5463 10.8954 16.0343 9.23325C16.0655 9.11293 16.0681 8.98701 16.0421 8.86547C16.0161 8.74394 15.9622 8.63013 15.8845 8.53309C15.8069 8.43604 15.7077 8.35841 15.5948 8.30637C15.482 8.25432 15.3585 8.22929 15.2343 8.23325C14.8984 8.19545 14.5593 8.26974 14.27 8.44456C13.9806 8.61939 13.7571 8.88494 13.6343 9.19992C13.0234 11.3976 13.1285 13.7327 13.9343 15.8666C14.6291 17.4958 15.731 18.9192 17.1343 19.9999C17.3888 20.1919 17.6989 20.2958 18.0177 20.2958C18.3364 20.2958 18.6465 20.1919 18.901 19.9999C19.0397 19.9315 19.1585 19.8284 19.2458 19.7007C19.3331 19.573 19.386 19.4249 19.3994 19.2708C19.4128 19.1167 19.3862 18.9617 19.3223 18.8208C19.2583 18.68 19.1592 18.558 19.0343 18.4666Z" fill="#6DB746"/>
<path d="M23.0317 83.0004C22.7984 82.4004 22.2984 82.1337 21.8317 82.3671C20.336 83.2596 18.6046 83.6769 16.8666 83.5638C15.1285 83.4507 13.4658 82.8125 12.0984 81.7338C11.9991 81.6651 11.8856 81.6198 11.7663 81.6013C11.647 81.5828 11.5251 81.5914 11.4097 81.6267C11.2942 81.662 11.1883 81.7229 11.0997 81.805C11.0112 81.887 10.9424 81.988 10.8984 82.1004C10.7326 82.4003 10.6721 82.7471 10.7265 83.0855C10.7808 83.4238 10.947 83.7342 11.1984 83.9671C13.0084 85.3285 15.2007 86.0865 17.4651 86.1338C19.2486 86.1273 20.9979 85.6439 22.5317 84.7338C22.801 84.5458 22.9976 84.2711 23.0886 83.9556C23.1796 83.6401 23.1595 83.3029 23.0317 83.0004Z" fill="#6DB746"/>
<path d="M50.3327 69.6332C50.1292 69.3804 49.8385 69.2129 49.5177 69.1636C49.197 69.1142 48.8694 69.1866 48.5993 69.3665C46.7196 70.6639 44.5701 71.5179 42.3125 71.8643C40.055 72.2108 37.7482 72.0405 35.566 71.3665C35.2689 71.282 34.9515 71.3061 34.6705 71.4343C34.3895 71.5626 34.1634 71.7867 34.0327 72.0665C33.9582 72.2294 33.9191 72.4063 33.918 72.5854C33.9169 72.7645 33.9538 72.9418 34.0262 73.1056C34.0987 73.2694 34.205 73.416 34.3383 73.5356C34.4716 73.6553 34.6287 73.7454 34.7993 73.7999C37.3488 74.5944 40.0459 74.7972 42.6855 74.3928C45.3252 73.9885 47.8379 72.9877 50.0327 71.4665C50.1742 71.367 50.2945 71.2403 50.3864 71.0937C50.4783 70.9471 50.5401 70.7837 50.568 70.6129C50.596 70.4422 50.5895 70.2676 50.5491 70.0993C50.5087 69.9311 50.4351 69.7726 50.3327 69.6332Z" fill="#6DB746"/>
<path d="M34.1666 36.6666C34.3215 36.7458 34.4907 36.7932 34.6642 36.8058C34.8378 36.8185 35.0121 36.7962 35.1768 36.7402C35.3416 36.6843 35.4934 36.5958 35.6233 36.4801C35.7533 36.3644 35.8586 36.2238 35.9332 36.0666C36.0742 35.7784 36.0974 35.4467 35.9978 35.1417C35.8982 34.8368 35.6838 34.5827 35.3999 34.4332C33.393 33.3455 31.6542 31.8234 30.3105 29.978C28.9669 28.1327 28.0522 26.0105 27.6332 23.7666C27.5841 23.4634 27.4236 23.1894 27.1832 22.9983C26.9428 22.8072 26.6397 22.7127 26.3332 22.7332C26.1543 22.7404 25.9789 22.7854 25.8187 22.8653C25.6584 22.9452 25.5169 23.0582 25.4035 23.1968C25.2901 23.3354 25.2074 23.4965 25.1608 23.6694C25.1142 23.8423 25.1048 24.0231 25.1332 24.1999C25.6052 26.8232 26.6625 29.3063 28.2265 31.4647C29.7904 33.623 31.8208 35.401 34.1666 36.6666Z" fill="#6DB746"/>
<path d="M42.8016 54.8001C40.6313 54.0714 38.6531 52.8628 37.0141 51.2642C35.3752 49.6657 34.1176 47.7183 33.3349 45.5668C33.2355 45.272 33.031 45.0241 32.7605 44.8704C32.49 44.7167 32.1724 44.668 31.8683 44.7334C31.6938 44.7752 31.5298 44.8527 31.3867 44.961C31.2436 45.0692 31.1245 45.2059 31.0368 45.3625C30.9492 45.519 30.8949 45.6921 30.8773 45.8706C30.8598 46.0492 30.8794 46.2295 30.9349 46.4001C31.9615 49.1804 33.6422 51.6729 35.8349 53.6668C37.6097 55.2431 39.6845 56.4449 41.9349 57.2001C42.0986 57.2616 42.2735 57.2877 42.448 57.2765C42.6225 57.2653 42.7926 57.2171 42.9471 57.1351C43.1015 57.0532 43.2368 56.9393 43.3439 56.8011C43.451 56.6629 43.5275 56.5035 43.5683 56.3334C43.6559 56.0283 43.6257 55.7013 43.4838 55.4174C43.3418 55.1334 43.0983 54.9131 42.8016 54.8001Z" fill="#6DB746"/>
<path d="M22.3999 38.0335C20.4563 36.7873 18.8199 35.1173 17.6134 33.1488C16.4069 31.1803 15.6616 28.9643 15.4333 26.6668C15.4162 26.3602 15.2823 26.0719 15.0591 25.8611C14.8358 25.6502 14.5403 25.533 14.2333 25.5335C14.0539 25.5227 13.8744 25.5512 13.7072 25.617C13.5401 25.6828 13.3893 25.7844 13.2655 25.9146C13.1417 26.0447 13.0478 26.2004 12.9904 26.3706C12.933 26.5409 12.9135 26.7216 12.9333 26.9001C13.2145 29.8556 14.2472 32.6899 15.9333 35.1335C17.2752 37.1277 18.9969 38.8381 20.9999 40.1668C21.1469 40.2611 21.3118 40.324 21.4842 40.3516C21.6566 40.3791 21.8329 40.3707 22.0019 40.3269C22.171 40.2831 22.3291 40.2048 22.4664 40.0969C22.6037 39.9891 22.7173 39.854 22.7999 39.7001C22.9542 39.4227 22.9987 39.0975 22.9246 38.7889C22.8506 38.4802 22.6633 38.2106 22.3999 38.0335Z" fill="#6DB746"/>
<path d="M45.3326 84.367C45.1397 84.1113 44.857 83.9382 44.5416 83.8826C44.2262 83.8269 43.9014 83.8928 43.6326 84.067C41.7545 85.3677 39.6063 86.2263 37.3491 86.5784C35.0919 86.9306 32.7843 86.7671 30.5993 86.1003C30.3067 85.9986 29.9865 86.0107 29.7024 86.1342C29.4183 86.2577 29.1911 86.4836 29.0659 86.767C28.9856 86.9315 28.9419 87.1114 28.9378 87.2944C28.9337 87.4774 28.9693 87.6591 29.0422 87.827C29.1151 87.9949 29.2234 88.145 29.3599 88.267C29.4963 88.389 29.6576 88.48 29.8326 88.5337C32.3849 89.3062 35.0778 89.4976 37.7138 89.0939C40.3497 88.6901 42.8618 87.7014 45.0659 86.2003C45.2087 86.1013 45.3296 85.974 45.4211 85.8263C45.5126 85.6786 45.5728 85.5136 45.5978 85.3416C45.6228 85.1697 45.6122 84.9944 45.5665 84.8267C45.5209 84.6591 45.4413 84.5026 45.3326 84.367Z" fill="#6DB746"/>
<path d="M71.7314 58.6329C71.4423 58.4876 71.1086 58.4585 70.7986 58.5515C70.4887 58.6444 70.2261 58.8525 70.0648 59.1329C68.9556 61.1203 67.4107 62.8305 65.546 64.1352C63.6812 65.44 61.5452 66.3053 59.2981 66.6663C58.9921 66.715 58.7145 66.8742 58.5179 67.1137C58.3213 67.3533 58.2194 67.6566 58.2314 67.9663C58.233 68.1471 58.2744 68.3253 58.3526 68.4884C58.4307 68.6514 58.5438 68.7953 58.6837 68.9098C58.8237 69.0243 58.9871 69.1066 59.1624 69.1509C59.3376 69.1952 59.5205 69.2005 59.6981 69.1663C62.3293 68.7419 64.8301 67.7265 67.0125 66.1965C69.1948 64.6666 71.002 62.6618 72.2981 60.3329C72.3726 60.1841 72.417 60.0221 72.4288 59.8561C72.4406 59.6901 72.4196 59.5234 72.367 59.3655C72.3144 59.2076 72.2312 59.0617 72.1221 58.936C72.0131 58.8103 71.8803 58.7073 71.7314 58.6329Z" fill="#6DB746"/>
<path d="M71.7345 73.3337C71.4414 73.1911 71.1046 73.167 70.7942 73.2663C70.4838 73.3656 70.2236 73.5808 70.0678 73.8671C68.9605 75.859 67.4167 77.5745 65.5521 78.885C63.6875 80.1954 61.5504 81.0668 59.3011 81.4337C58.9652 81.4868 58.6641 81.6711 58.464 81.9461C58.264 82.2212 58.1814 82.5645 58.2344 82.9004C58.2875 83.2363 58.4718 83.5374 58.7469 83.7375C59.0219 83.9375 59.3652 84.0201 59.7011 83.9671C62.3322 83.5297 64.831 82.5055 67.0123 80.9706C69.1935 79.4357 71.0011 77.4293 72.3011 75.1004C72.3863 74.9486 72.4393 74.7808 72.4568 74.6076C72.4743 74.4344 72.4558 74.2594 72.4026 74.0936C72.3495 73.9278 72.2627 73.7748 72.1477 73.644C72.0328 73.5133 71.8921 73.4077 71.7345 73.3337Z" fill="#6DB746"/>
<path d="M77.3679 36.2333C77.0511 36.2978 76.7722 36.4842 76.5914 36.7523C76.4106 37.0203 76.3423 37.3487 76.4013 37.6666C76.7918 39.9128 76.671 42.2181 76.0477 44.4111C75.4244 46.6041 74.3148 48.6283 72.8013 50.3333C72.6875 50.4559 72.5989 50.5997 72.5407 50.7565C72.4824 50.9132 72.4556 51.08 72.4618 51.2471C72.468 51.4143 72.5071 51.5786 72.5767 51.7306C72.6464 51.8827 72.7454 52.0195 72.8679 52.1333C72.9905 52.2471 73.1343 52.3357 73.2911 52.3939C73.4479 52.4522 73.6146 52.479 73.7817 52.4728C73.9489 52.4666 74.1132 52.4275 74.2652 52.3578C74.4173 52.2882 74.5541 52.1892 74.6679 52.0666C76.6309 49.8314 78.0259 47.1558 78.7346 44.2666C79.2657 41.9577 79.3224 39.5649 78.9013 37.2333C78.8744 37.0629 78.812 36.9 78.7182 36.7552C78.6244 36.6104 78.5013 36.4869 78.3568 36.3927C78.2123 36.2984 78.0496 36.2355 77.8793 36.2081C77.7089 36.1806 77.5347 36.1892 77.3679 36.2333Z" fill="#6DB746"/>
<path d="M84.1005 52.4996C83.7872 52.5789 83.5161 52.7749 83.3425 53.0476C83.169 53.3202 83.1063 53.6489 83.1672 53.9663C83.5492 56.2227 83.418 58.5361 82.7832 60.7347C82.1484 62.9334 81.0264 64.9608 79.5005 66.6663C79.3889 66.7911 79.303 66.9366 79.2476 67.0946C79.1922 67.2525 79.1685 67.4199 79.1777 67.587C79.187 67.7542 79.2291 67.9178 79.3017 68.0687C79.3742 68.2196 79.4758 68.3547 79.6005 68.4663C79.7253 68.5779 79.8708 68.6639 80.0288 68.7193C80.1868 68.7747 80.3541 68.7984 80.5212 68.7891C80.6884 68.7798 80.8521 68.7377 81.0029 68.6651C81.1538 68.5926 81.2889 68.4911 81.4005 68.3663C83.3715 66.1542 84.758 63.4843 85.4339 60.5996C85.96 58.2908 86.0279 55.9013 85.6339 53.5663C85.6104 53.3922 85.551 53.2249 85.4594 53.075C85.3678 52.9251 85.2461 52.7959 85.1019 52.6956C84.9577 52.5953 84.7942 52.5261 84.6218 52.4923C84.4494 52.4586 84.2719 52.4611 84.1005 52.4996Z" fill="#6DB746"/>
<path d="M78.0327 33.3337C79.9824 31.1453 81.3671 28.5133 82.0661 25.667C82.6082 23.3603 82.6762 20.9675 82.266 18.6337C82.2385 18.4625 82.1761 18.2989 82.0828 18.1529C81.9894 18.0068 81.8671 17.8815 81.7234 17.7846C81.5796 17.6878 81.4176 17.6214 81.2472 17.5897C81.0768 17.558 80.9017 17.5616 80.7327 17.6003C80.42 17.6723 80.1463 17.8604 79.9668 18.1264C79.7874 18.3925 79.7156 18.7167 79.766 19.0337C80.1574 21.2875 80.0338 23.6007 79.4046 25.8C78.7754 27.9993 77.6569 30.0278 76.1327 31.7337C75.9242 31.9611 75.8086 32.2585 75.8086 32.567C75.8086 32.8755 75.9242 33.1729 76.1327 33.4003C76.2562 33.5311 76.4062 33.634 76.5726 33.7022C76.739 33.7705 76.918 33.8025 77.0978 33.7962C77.2775 33.7899 77.4539 33.7454 77.6151 33.6657C77.7763 33.5859 77.9187 33.4727 78.0327 33.3337Z" fill="#6DB746"/>
<path d="M89.4984 27C89.2039 27.1322 88.9691 27.3692 88.8397 27.665C88.7104 27.9607 88.6956 28.294 88.7984 28.6C89.5306 30.76 89.7641 33.0577 89.4812 35.3208C89.1983 37.5838 88.4064 39.7534 87.1651 41.6667C86.9857 41.9224 86.91 42.2366 86.9533 42.546C86.9966 42.8553 87.1557 43.1367 87.3984 43.3333C87.5376 43.4483 87.6991 43.533 87.8728 43.5821C88.0464 43.6312 88.2284 43.6437 88.4072 43.6186C88.5859 43.5935 88.7574 43.5315 88.9109 43.4364C89.0643 43.3414 89.1963 43.2155 89.2984 43.0667C90.896 40.5704 91.8574 37.7206 92.0984 34.7667C92.2486 32.4082 91.943 30.0429 91.1984 27.8C91.1426 27.6335 91.0537 27.4801 90.937 27.3489C90.8203 27.2177 90.6782 27.1116 90.5193 27.0368C90.3605 26.9621 90.1881 26.9203 90.0126 26.9139C89.8372 26.9076 89.6623 26.9369 89.4984 27Z" fill="#6DB746"/>
<path d="M98.6351 23.3337C98.446 22.4743 98.201 21.628 97.9018 20.8004C97.4354 19.1187 96.7754 17.4967 95.9351 15.9671C94.9273 13.621 93.2669 11.6136 91.1515 10.1837C89.0361 8.75367 86.5545 7.96118 84.0018 7.90041C81.4553 7.49851 78.852 8.09561 76.7351 9.56707C70.9018 13.3337 66.9351 22.6004 64.9685 36.8671C61.917 37.7147 58.7102 37.8402 55.6018 37.2337C45.1351 35.0337 38.2351 24.1004 32.2685 14.4337C30.3351 11.6337 28.6685 9.00041 27.0018 6.66707C26.0281 5.25877 24.7719 4.06861 23.3131 3.17238C21.8543 2.27615 20.2248 1.69347 18.5285 1.46144C16.8322 1.22941 15.1061 1.35311 13.4602 1.82467C11.8143 2.29622 10.2846 3.10531 8.96847 4.20041C0.53514 10.2337 -3.33153 23.9671 5.86847 37.6337C12.1713 47.7834 20.4319 56.5766 30.1685 63.5004C27.7018 63.2337 25.2351 62.9004 22.8351 62.5337C19.5018 62.0671 16.4685 61.6004 13.7018 61.4004C11.9897 61.2042 10.2554 61.3699 8.61145 61.8869C6.96749 62.4039 5.4505 63.2605 4.15882 64.4013C2.86715 65.5421 1.82962 66.9417 1.11349 68.5092C0.397366 70.0767 0.0186193 71.7771 0.00180648 73.5004C-1.03153 83.7671 6.66847 95.7004 23.3351 97.5671C28.5343 98.1913 33.7653 98.5141 39.0018 98.5337C59.3018 98.5337 76.1685 92.4337 90.1018 71.8671C92.3512 68.4405 94.1863 64.7593 95.5685 60.9004C96.0351 59.6337 96.5018 58.2671 96.8685 56.9337C100.263 46.0586 100.87 34.5049 98.6351 23.3337ZM8.06847 36.1337C-1.39819 22.2671 4.30181 10.7671 10.4351 6.43374C12.4233 4.97611 14.8046 4.15138 17.2685 4.06707C18.7939 4.07935 20.2925 4.46938 21.6303 5.20229C22.9682 5.9352 24.1036 6.98817 24.9351 8.26707C26.6685 10.4337 28.1685 13.0337 30.0018 15.8004C36.0685 25.4004 43.6351 37.3671 55.1685 39.7337C58.3061 40.4483 61.5642 40.4483 64.7018 39.7337C64.7018 39.7337 64.7018 40.0004 64.7018 40.1004C63.6018 49.4004 60.6351 55.8337 55.5685 59.7004C49.8415 63.4569 42.9644 65.0521 36.1685 64.2004C25.1351 58.4337 16.6685 48.7337 8.06847 36.1337ZM93.4351 59.4671C92.9914 60.7817 92.4796 62.0723 91.9018 63.3337C90.8195 65.8412 89.5025 68.2408 87.9685 70.5004C71.3018 95.1337 50.9685 98.2004 23.6351 95.0671C6.96847 93.1671 1.96847 81.3337 2.63514 73.8671C2.6875 71.2497 3.76413 68.7573 5.63385 66.9249C7.50357 65.0926 10.0173 64.0665 12.6351 64.0671H13.6351C16.3351 64.2671 19.3685 64.7337 22.6018 65.1671C26.7685 65.8004 31.2685 66.4671 35.7685 66.7004C37.8891 66.8171 40.0145 66.8171 42.1351 66.7004C47.5371 66.5952 52.7796 64.8515 57.1685 61.7004C62.8018 57.3671 66.1018 50.3671 67.1685 40.3004L67.7685 36.0337C70.1685 20.3671 74.6685 14.2004 78.1351 11.8671C79.6188 10.7367 81.4818 10.2232 83.3351 10.4337H83.7685C85.8643 10.4916 87.8992 11.1508 89.6309 12.3328C91.3625 13.5148 92.7178 15.1697 93.5351 17.1004C94.2388 18.4766 94.8404 19.9027 95.3351 21.3671C95.5685 22.1671 95.8018 23.0337 96.0018 23.9004C98.3903 35.7208 97.4675 47.9712 93.3351 59.3004L93.4351 59.4671Z" fill="#6DB746"/>
</g>
<defs>
<clipPath id="clip0_116_673">
<rect width="100" height="100" fill="white"/>
</clipPath>
</defs>
</svg>
