<svg width="100" height="100" viewBox="0 0 100 100" fill="none" xmlns="http://www.w3.org/2000/svg">
<g clip-path="url(#clip0_114_597)">
<path d="M49.7335 34.0337C50.4827 34.0791 51.2307 33.9276 51.9032 33.5943C52.5757 33.261 53.1493 32.7574 53.5668 32.1337C56.6668 27.3004 51.2668 14.7337 50.6335 13.3337L49.7668 11.4004L48.8668 13.3337C47.7799 15.6939 46.8447 18.1211 46.0668 20.6004C44.4002 26.0337 44.2335 29.8671 45.6002 32.0337C46.0536 32.6999 46.674 33.2353 47.3994 33.5863C48.1248 33.9373 48.9297 34.0916 49.7335 34.0337ZM49.7335 16.2004C51.4668 20.6337 53.8002 28.2337 51.9668 31.0671C51.7213 31.4134 51.3884 31.6885 51.0019 31.8642C50.6154 32.0398 50.1892 32.1099 49.7668 32.0671C49.2905 32.1316 48.8056 32.0593 48.3689 31.8587C47.9321 31.658 47.5614 31.3372 47.3002 30.9337C45.4335 28.0337 47.9002 20.5671 49.7002 16.2004H49.7335Z" fill="#6DB746"/>
<path d="M36.1999 47.6C39.2172 50.0824 43.0272 51.3958 46.9332 51.3C47.5436 51.343 48.1562 51.343 48.7666 51.3V57.9667H50.7332V53.3333C51.9347 53.5279 53.1495 53.6282 54.3666 53.6333C58.1626 53.746 61.8665 52.452 64.7666 50C68.7837 45.9155 71.0549 40.4288 71.0999 34.7V33.7667H70.1666C62.4999 33.4333 56.8332 35.2667 53.3332 39.2333C52.191 40.5186 51.3081 42.0127 50.7332 43.6333V34.0667H48.7666V38.7333C48.2823 37.8182 47.7012 36.9577 47.0332 36.1667C42.9222 32.2105 37.4387 30.0003 31.7332 30H30.7999V30.9333C30.3999 38.4667 32.2332 44.1333 36.1999 47.6ZM54.8332 40.5667C57.7332 37.2333 62.5666 35.6333 69.0999 35.7667C68.8977 40.6026 66.9012 45.1898 63.4999 48.6333C62.0318 49.81 60.345 50.684 58.5369 51.2047C56.7289 51.7253 54.8357 51.8823 52.9666 51.6667L61.4332 43.3333C61.6144 43.1521 61.7162 42.9063 61.7162 42.65C61.7162 42.3937 61.6144 42.1479 61.4332 41.9667C61.252 41.7855 61.0062 41.6837 60.7499 41.6837C60.4936 41.6837 60.2478 41.7855 60.0666 41.9667L51.5666 50.1667C51.4554 46.6764 52.6164 43.2647 54.8332 40.5667ZM32.6666 31.8333C37.5025 32.0355 42.0897 34.032 45.5332 37.4333C47.8856 40.3477 48.9882 44.0749 48.5999 47.8L40.8666 39.5C40.6813 39.3266 40.437 39.2301 40.1832 39.2301C39.9295 39.2301 39.6852 39.3266 39.4999 39.5C39.3187 39.6813 39.217 39.9271 39.217 40.1833C39.217 40.4396 39.3187 40.6854 39.4999 40.8667L47.4332 49.3667C43.8002 49.5461 40.232 48.3567 37.4332 46.0333C35.6489 44.1588 34.2973 41.9158 33.4738 39.4624C32.6502 37.009 32.3747 34.4048 32.6666 31.8333Z" fill="#6DB746"/>
<path d="M83.5993 83.7334C83.2076 83.4919 82.8852 83.1532 82.6632 82.7501C82.4413 82.3471 82.3274 81.8935 82.3326 81.4334C82.3492 81.1893 82.3492 80.9443 82.3326 80.7001C82.3326 80.1001 82.3326 79.5001 82.3326 78.9668C82.6071 73.3712 83.2754 67.8018 84.3326 62.3001C85.3375 56.3415 85.5058 50.2719 84.8326 44.2668C84.5659 40.9334 84.1326 37.6001 83.6993 34.5334C83.3659 32.0668 83.0326 29.5334 82.7659 27.0334C82.4993 24.5334 82.4659 22.1001 82.4326 19.6668V18.0001C82.4579 17.72 82.5537 17.4508 82.7111 17.2177C82.8684 16.9845 83.0823 16.795 83.3326 16.6668C84.9914 15.5836 86.4077 14.1684 87.4921 12.5103C88.5764 10.8522 89.3053 8.98737 89.6326 7.03344C89.9141 6.31305 90.0038 5.53189 89.8928 4.76645C89.7817 4.001 89.4739 3.2775 88.9993 2.66678C88.3661 2.24762 87.639 1.99173 86.8829 1.92194C86.1268 1.85214 85.3651 1.97061 84.6659 2.26678C81.4062 3.13022 78.0086 3.3454 74.6659 2.90011C73.5326 2.73344 72.3993 2.46678 71.3326 2.23344C70.2659 2.00011 69.2993 1.76678 68.2659 1.60011C55.0115 -0.805717 41.4087 -0.522325 28.2659 2.43344C23.8702 3.45628 19.2898 3.37612 14.9326 2.20011C14.3062 1.94544 13.6275 1.84579 12.9543 1.90963C12.2811 1.97346 11.6333 2.1989 11.0659 2.56678C10.6362 3.08235 10.3362 3.69341 10.1912 4.34877C10.0462 5.00413 10.0604 5.6847 10.2326 6.33344C10.4728 8.2858 11.1188 10.1663 12.1292 11.8541C13.1396 13.5418 14.4919 14.9995 16.0993 16.1334C16.5979 16.411 17.0069 16.825 17.2785 17.3268C17.5501 17.8287 17.6729 18.3976 17.6326 18.9668C17.6326 19.2001 17.6326 19.4334 17.6326 19.6668C17.6659 20.1773 17.6659 20.6895 17.6326 21.2001C17.6326 22.7001 17.3326 24.2001 17.1993 25.6668C16.8326 29.5001 16.4326 33.4334 15.8659 37.2668C14.7432 45.1512 14.5754 53.1422 15.3659 61.0668C15.5659 63.2001 15.9659 65.3001 16.2993 67.3334C16.6326 69.3668 16.9659 71.0334 17.1659 72.8668C17.4326 75.2334 17.4659 77.7001 17.4993 80.0668C17.4993 80.7001 17.4993 81.3334 17.4993 81.9668C17.4993 82.6001 17.4993 83.0001 16.4659 83.5668C14.7657 84.7325 13.3253 86.2376 12.2353 87.9873C11.1453 89.737 10.4294 91.6935 10.1326 93.7334C10.027 94.3726 10.065 95.0272 10.2437 95.6499C10.4224 96.2725 10.7374 96.8476 11.1659 97.3334C11.5889 97.6392 12.0737 97.8484 12.5863 97.9463C13.0989 98.0442 13.6268 98.0284 14.1326 97.9001L15.1993 97.6668H15.6326C19.1271 96.678 22.8076 96.5409 26.3659 97.2668C32.2674 98.6507 38.2797 99.5096 44.3326 99.8334C46.3993 99.8334 48.3993 99.8334 50.3326 99.8334C57.4211 99.9041 64.493 99.132 71.3993 97.5334C75.6768 96.4554 80.155 96.4554 84.4326 97.5334C85.1648 97.721 85.9122 97.8437 86.6659 97.9001C87.0475 97.9649 87.4387 97.9437 87.811 97.8381C88.1833 97.7325 88.5273 97.5451 88.818 97.2895C89.1086 97.034 89.3386 96.7168 89.4911 96.3611C89.6435 96.0054 89.7147 95.6201 89.6993 95.2334C89.8145 94.5158 89.8145 93.7844 89.6993 93.0668C88.9739 89.2739 86.782 85.9202 83.5993 83.7334ZM87.2993 95.2334C87.3317 95.3648 87.3317 95.5021 87.2993 95.6334H86.8993C86.3028 95.585 85.7117 95.4846 85.1326 95.3334C80.462 94.1497 75.5699 94.1497 70.8993 95.3334C62.2535 97.274 53.3765 97.981 44.5326 97.4334C38.617 97.0971 32.7405 96.2608 26.9659 94.9334C25.3695 94.5698 23.7366 94.3908 22.0993 94.4001C19.749 94.4144 17.4093 94.7166 15.1326 95.3001H14.6993L13.8659 95.4668C13.6445 95.4924 13.4208 95.4924 13.1993 95.4668H12.8659C12.8659 95.4668 12.6659 95.2001 12.6659 93.8668C12.9219 92.1637 13.5279 90.5321 14.4459 89.0749C15.3638 87.6176 16.5737 86.3664 17.9993 85.4001C18.5968 85.0366 19.0932 84.5285 19.4427 83.9226C19.7923 83.3168 19.9837 82.6327 19.9993 81.9334C19.9993 81.3001 19.9993 80.6668 19.9993 80.0668C19.9993 77.6001 19.9993 75.0668 19.6659 72.6001C19.4659 70.6668 19.0993 68.7668 18.7659 66.9001C18.4326 65.0334 18.0659 62.8668 17.8659 60.8334C17.0468 53.0658 17.2148 45.2256 18.3659 37.5001C18.9326 33.6001 19.2993 29.6334 19.6993 25.7668C19.6993 24.3001 19.9659 22.8001 20.1326 21.3001C20.1826 20.6789 20.1826 20.0547 20.1326 19.4334C20.1501 19.2227 20.1501 19.0109 20.1326 18.8001C20.1613 17.8455 19.9395 16.9001 19.4892 16.0579C19.0388 15.2158 18.3757 14.5063 17.5659 14.0001C16.2376 13.0732 15.1162 11.8806 14.2727 10.4978C13.4293 9.11494 12.8821 7.57204 12.6659 5.96678C12.4659 4.70011 12.6659 4.40011 12.6659 4.40011C12.6659 4.40011 12.9659 4.20011 14.2659 4.56678C18.9852 5.82625 23.9417 5.90638 28.6993 4.80011C41.502 1.91451 54.7555 1.64241 67.6659 4.00011L70.5993 4.60011C71.7659 4.86678 72.9326 5.13344 74.1326 5.30011C77.8614 5.84056 81.6613 5.61371 85.2993 4.63344C86.9659 4.20011 87.2993 4.43344 87.2993 4.43344C87.2993 4.43344 87.5659 4.80011 87.2993 6.40011C87.0091 8.03385 86.3896 9.59148 85.4785 10.9782C84.5673 12.365 83.3836 13.5519 81.9993 14.4668C81.3603 14.8426 80.8363 15.386 80.4838 16.0381C80.1313 16.6903 79.9637 17.4263 79.9993 18.1668V19.8001C79.9993 22.2668 79.9993 24.8668 80.3326 27.4001C80.6659 29.9334 80.9326 32.4668 81.2659 34.9668C81.6993 38.1001 82.1326 41.3668 82.3993 44.5668C83.0473 50.3483 82.9015 56.1914 81.9659 61.9334C80.9242 67.5151 80.2671 73.1617 79.9993 78.8334C79.9993 79.5001 79.9993 80.1668 79.9993 80.8001C80.0158 81.0331 80.0158 81.2671 79.9993 81.5001C79.989 82.3473 80.1986 83.1826 80.6076 83.9245C81.0165 84.6665 81.6109 85.2897 82.3326 85.7334C83.6665 86.6675 84.7993 87.8598 85.6639 89.2397C86.5285 90.6196 87.1072 92.1591 87.3659 93.7668C87.4106 94.2564 87.3882 94.7499 87.2993 95.2334Z" fill="#6DB746"/>
<path d="M30.4659 66.667H69.9992C70.1624 66.6716 70.3249 66.6428 70.4766 66.5825C70.6283 66.5221 70.7661 66.4315 70.8816 66.316C70.997 66.2005 71.0877 66.0627 71.1481 65.911C71.2084 65.7593 71.2372 65.5969 71.2326 65.4337C71.237 65.2689 71.2084 65.1049 71.1484 64.9514C71.0884 64.7979 70.9983 64.658 70.8833 64.5399C70.7684 64.4219 70.6309 64.328 70.479 64.264C70.3272 64.1999 70.164 64.1669 69.9992 64.167H30.4659C30.1299 64.167 29.8078 64.3004 29.5702 64.538C29.3327 64.7755 29.1992 65.0977 29.1992 65.4337C29.1992 65.5985 29.2321 65.7616 29.2962 65.9135C29.3602 66.0653 29.4541 66.2028 29.5722 66.3178C29.6902 66.4327 29.8302 66.5229 29.9837 66.5829C30.1372 66.6428 30.3011 66.6715 30.4659 66.667Z" fill="#6DB746"/>
<path d="M69.9992 74.167C70.1624 74.1716 70.3249 74.1428 70.4766 74.0825C70.6283 74.0221 70.7661 73.9315 70.8816 73.816C70.997 73.7005 71.0877 73.5627 71.1481 73.411C71.2084 73.2593 71.2372 73.0969 71.2326 72.9337C71.237 72.7689 71.2084 72.6049 71.1484 72.4514C71.0884 72.2979 70.9983 72.158 70.8833 72.0399C70.7684 71.9219 70.6309 71.828 70.479 71.764C70.3272 71.6999 70.164 71.6669 69.9992 71.667H30.4659C30.1299 71.667 29.8078 71.8004 29.5702 72.038C29.3327 72.2755 29.1992 72.5977 29.1992 72.9337C29.1992 73.0985 29.2321 73.2616 29.2962 73.4135C29.3602 73.5653 29.4541 73.7028 29.5722 73.8178C29.6902 73.9327 29.8302 74.0229 29.9837 74.0829C30.1372 74.1428 30.3011 74.1715 30.4659 74.167H69.9992Z" fill="#6DB746"/>
<path d="M70.434 79.4005H31.034C30.8527 79.3708 30.6672 79.3808 30.4902 79.43C30.3132 79.4791 30.1491 79.5662 30.0091 79.6851C29.8691 79.804 29.7567 79.9519 29.6796 80.1186C29.6024 80.2853 29.5625 80.4668 29.5625 80.6505C29.5625 80.8341 29.6024 81.0156 29.6796 81.1823C29.7567 81.349 29.8691 81.4969 30.0091 81.6158C30.1491 81.7347 30.3132 81.8218 30.4902 81.8709C30.6672 81.9201 30.8527 81.9302 31.034 81.9005H70.434C70.7304 81.8519 71 81.6995 71.1945 81.4705C71.389 81.2416 71.4958 80.9509 71.4958 80.6505C71.4958 80.35 71.389 80.0594 71.1945 79.8304C71 79.6014 70.7304 79.449 70.434 79.4005Z" fill="#6DB746"/>
</g>
<defs>
<clipPath id="clip0_114_597">
<rect width="100" height="100" fill="white"/>
</clipPath>
</defs>
</svg>
