<svg width="100" height="100" viewBox="0 0 100 100" fill="none" xmlns="http://www.w3.org/2000/svg">
<g clip-path="url(#clip0_114_477)">
<path d="M77.8332 87.3333L69.6665 31.2C71.5589 30.9856 73.3029 30.0715 74.5559 28.6372C75.8089 27.2028 76.4804 25.3519 76.4387 23.4478C76.3969 21.5437 75.6449 19.724 74.3302 18.346C73.0155 16.968 71.2332 16.1312 69.3332 16V9.33333C69.3157 6.86337 68.3268 4.49953 66.5802 2.75296C64.8336 1.00639 62.4698 0.0174562 59.9998 0L39.9998 0C37.5269 0.0349421 35.1666 1.03965 33.4272 2.79778C31.6877 4.55591 30.7083 6.92683 30.6998 9.4V16.0667C28.8687 16.2396 27.1616 17.068 25.8925 18.3993C24.6234 19.7306 23.8777 21.4754 23.7925 23.3127C23.7074 25.15 24.2885 26.9563 25.4289 28.3993C26.5694 29.8423 28.1926 30.825 29.9998 31.1667L22.1665 87.4C21.9414 88.9691 22.057 90.5682 22.5055 92.0885C22.954 93.6089 23.7249 95.0147 24.7655 96.2104C25.8062 97.4061 27.0923 98.3635 28.5362 99.0174C29.9802 99.6713 31.5481 100.006 33.1332 100H66.8665C68.4547 99.9968 70.0237 99.6529 71.4675 98.9914C72.9114 98.3299 74.1965 97.3662 75.2361 96.1655C76.2756 94.9649 77.0454 93.5551 77.4934 92.0314C77.9415 90.5077 78.0573 88.9056 77.8332 87.3333V87.3333ZM33.1332 9.4C33.1415 7.57213 33.8646 5.82005 35.1477 4.51823C36.4308 3.21641 38.1723 2.46813 39.9998 2.43333H59.9998C61.8448 2.4421 63.6117 3.1789 64.9163 4.48351C66.2209 5.78811 66.9577 7.55503 66.9665 9.4V16.0667H33.1332V9.4ZM26.0998 23.6C26.0998 22.2209 26.6477 20.8982 27.6229 19.923C28.5981 18.9479 29.9207 18.4 31.2998 18.4H68.7332C69.4533 18.3424 70.1775 18.4345 70.8603 18.6705C71.5431 18.9066 72.1696 19.2814 72.7004 19.7714C73.2312 20.2615 73.6548 20.8561 73.9445 21.5179C74.2343 22.1796 74.3838 22.8942 74.3838 23.6167C74.3838 24.3391 74.2343 25.0537 73.9445 25.7155C73.6548 26.3772 73.2312 26.9719 72.7004 27.4619C72.1696 27.9519 71.5431 28.3268 70.8603 28.5628C70.1775 28.7988 69.4533 28.8909 68.7332 28.8333H31.2998C30.6141 28.8333 29.9352 28.6977 29.3021 28.4343C28.6691 28.1709 28.0943 27.7849 27.611 27.2985C27.1277 26.8121 26.7454 26.2349 26.486 25.6002C26.2267 24.9654 26.0954 24.2857 26.0998 23.6V23.6ZM73.3332 94.5667C72.5091 95.524 71.4849 96.2888 70.333 96.8071C69.1811 97.3255 67.9295 97.5848 66.6665 97.5667H63.3332L58.4998 60.5C58.4502 60.1729 58.2778 59.8771 58.0177 59.6727C57.7576 59.4683 57.4293 59.3708 57.0998 59.4C56.7687 59.4494 56.4706 59.628 56.2707 59.8966C56.0708 60.1652 55.9854 60.5019 56.0332 60.8333L60.9332 97.5H51.2665V60.5C51.2665 60.3337 51.2337 60.1689 51.1701 60.0153C51.1064 59.8616 51.0131 59.722 50.8955 59.6043C50.7779 59.4867 50.6382 59.3934 50.4846 59.3297C50.3309 59.2661 50.1662 59.2333 49.9998 59.2333C49.8335 59.2333 49.6688 59.2661 49.5151 59.3297C49.3614 59.3934 49.2218 59.4867 49.1042 59.6043C48.9865 59.722 48.8932 59.8616 48.8296 60.0153C48.7659 60.1689 48.7332 60.3337 48.7332 60.5V97.5667H39.0665L43.9665 60.9C44.0142 60.5686 43.9288 60.2318 43.7289 59.9632C43.529 59.6946 43.231 59.5161 42.8998 59.4667C42.5703 59.4375 42.2421 59.535 41.982 59.7394C41.7218 59.9438 41.5494 60.2396 41.4998 60.5667L36.6665 97.5667H33.3332C32.0741 97.5799 30.8269 97.3218 29.6765 96.8099C28.5261 96.298 27.4995 95.5442 26.6665 94.6C25.86 93.6659 25.2639 92.5693 24.9188 91.3844C24.5737 90.1996 24.4877 88.9544 24.6665 87.7333L32.5332 31.2667H67.2332L75.3998 87.7C75.5719 88.9259 75.4763 90.1746 75.1195 91.36C74.7628 92.5454 74.1533 93.6394 73.3332 94.5667Z" fill="#6DB746"/>
<path d="M41.8669 13.3999C43.2108 13.3999 44.3003 12.3104 44.3003 10.9665C44.3003 9.62264 43.2108 8.5332 41.8669 8.5332C40.523 8.5332 39.4336 9.62264 39.4336 10.9665C39.4336 12.3104 40.523 13.3999 41.8669 13.3999Z" fill="#6DB746"/>
<path d="M49.9997 13.3999C51.3436 13.3999 52.4331 12.3104 52.4331 10.9665C52.4331 9.62264 51.3436 8.5332 49.9997 8.5332C48.6558 8.5332 47.5664 9.62264 47.5664 10.9665C47.5664 12.3104 48.6558 13.3999 49.9997 13.3999Z" fill="#6DB746"/>
<path d="M58.1326 13.3999C59.4765 13.3999 60.5659 12.3104 60.5659 10.9665C60.5659 9.62264 59.4765 8.5332 58.1326 8.5332C56.7887 8.5332 55.6992 9.62264 55.6992 10.9665C55.6992 12.3104 56.7887 13.3999 58.1326 13.3999Z" fill="#6DB746"/>
</g>
<defs>
<clipPath id="clip0_114_477">
<rect width="100" height="100" fill="white"/>
</clipPath>
</defs>
</svg>
