<svg width="100" height="100" viewBox="0 0 100 100" fill="none" xmlns="http://www.w3.org/2000/svg">
<g clip-path="url(#clip0_114_521)">
<path d="M43.7981 7.63379C43.5334 7.73581 43.277 7.8584 43.0314 8.00046C42.3233 8.55344 41.6446 9.14314 40.9981 9.76712C37.0424 14.0026 34.1817 19.1405 32.6648 24.7338C32.6196 24.8892 32.6064 25.0521 32.6259 25.2128C32.6454 25.3735 32.6972 25.5285 32.7782 25.6686C32.8591 25.8088 32.9676 25.9311 33.097 26.0282C33.2265 26.1253 33.3742 26.1953 33.5314 26.2338C33.845 26.3045 34.1737 26.2499 34.4476 26.0818C34.7216 25.9137 34.9191 25.6453 34.9981 25.3338C35.6648 23.5005 36.2648 21.6671 37.0648 19.9005C38.4191 16.7469 40.3525 13.8751 42.7648 11.4338C43.3314 10.8671 43.9648 10.3671 44.5648 9.86712C44.7645 9.70863 44.9103 9.4921 44.9819 9.24735C45.0536 9.0026 45.0476 8.74166 44.9648 8.50046C44.875 8.25862 44.717 8.04802 44.5099 7.89419C44.3028 7.74036 44.0556 7.64991 43.7981 7.63379Z" fill="#6DB746"/>
<path d="M17.6016 43.6001C17.3361 43.6746 17.0872 43.799 16.8683 43.9668C16.1605 44.5084 15.4818 45.087 14.835 45.7001C10.9161 49.9363 8.10999 55.079 6.66829 60.6668C6.6177 60.8199 6.59939 60.9818 6.61452 61.1423C6.62965 61.3029 6.67789 61.4585 6.75619 61.5995C6.83449 61.7404 6.94116 61.8636 7.06946 61.9612C7.19776 62.0589 7.34491 62.1289 7.50163 62.1668C7.81941 62.2385 8.15259 62.1849 8.43193 62.0173C8.71128 61.8497 8.9153 61.5809 9.00163 61.2668C9.66829 59.4668 10.2683 57.6001 11.035 55.8668C12.3609 52.714 14.2724 49.8411 16.6683 47.4001C17.235 46.8335 17.8683 46.3335 18.4683 45.8001C18.6739 45.6459 18.8263 45.4313 18.9039 45.1862C18.9816 44.9412 18.9808 44.678 18.9016 44.4335C18.7982 44.1769 18.6175 43.9588 18.3845 43.8095C18.1516 43.6601 17.878 43.587 17.6016 43.6001Z" fill="#6DB746"/>
<path d="M9.06817 80.4671C8.73484 79.6004 8.46817 78.6671 8.16817 77.7671C8.1381 77.6044 8.07378 77.45 7.97947 77.3141C7.88517 77.1782 7.76304 77.0639 7.62118 76.9788C7.47933 76.8936 7.32099 76.8397 7.15668 76.8204C6.99238 76.8012 6.82586 76.8171 6.66817 76.8671C6.38294 76.922 6.12624 77.0758 5.9433 77.3015C5.76037 77.5271 5.66293 77.81 5.66817 78.1004C5.67456 78.2115 5.67456 78.3228 5.66817 78.4338C6.53881 81.8528 8.12988 85.0462 10.3348 87.8004C10.5382 88.048 10.8315 88.2046 11.1503 88.2359C11.4691 88.2671 11.7873 88.1704 12.0348 87.9671C12.2824 87.7638 12.439 87.4704 12.4703 87.1516C12.5015 86.8328 12.4048 86.5146 12.2015 86.2671C10.8563 84.512 9.7987 82.5543 9.06817 80.4671Z" fill="#6DB746"/>
<path d="M99.4335 65.2C98.4289 57.8787 95.6354 50.9179 91.3002 44.9333C89.2391 41.9041 86.5145 39.3847 83.3335 37.5666C80.4811 35.9225 77.1576 35.2884 73.9002 35.7666C73.8755 33.6993 73.686 31.6372 73.3335 29.6C72.3398 22.2982 69.5951 15.3451 65.3335 9.3333C63.2515 6.31019 60.5177 3.79279 57.3335 1.96663C55.1737 0.723577 52.7254 0.0693359 50.2335 0.0693359C47.7416 0.0693359 45.2933 0.723577 43.1335 1.96663C40.5638 3.27488 38.2937 5.10232 36.4668 7.3333C30.1788 14.8385 26.5565 24.2166 26.1668 34C26.1668 34.8 26.1668 35.5 26.1668 36.2C22.9389 35.6468 19.6189 36.2236 16.7668 37.8333C14.2177 39.1587 11.9528 40.9706 10.1002 43.1666C3.86755 50.7531 0.316779 60.1867 0.000170898 70C-0.0922874 73.1273 0.221443 76.2534 0.933504 79.3C2.28113 85.1944 5.45392 90.5135 10.0002 94.5C13.3602 97.6317 17.6609 99.5653 22.2335 100C26.8214 100.419 31.4134 99.2419 35.2335 96.6666C39.8114 93.5524 43.3063 89.0905 45.2335 83.9C47.6345 77.5984 48.2121 70.748 46.9002 64.1333H52.9002C52.2107 69.0447 52.3572 74.0374 53.3335 78.9C54.6137 84.7933 57.7157 90.1343 62.2002 94.1666C65.5901 97.2775 69.9158 99.1766 74.5002 99.5666C79.0881 99.986 83.6801 98.8085 87.5002 96.2333C92.0835 93.1104 95.579 88.6361 97.5002 83.4333C99.7889 77.644 100.457 71.3405 99.4335 65.2ZM44.2002 79.6333C42.8242 85.1288 39.6866 90.0226 35.2668 93.5666C31.9615 96.2397 27.8168 97.6567 23.5668 97.5666C19.0958 97.4692 14.8152 95.738 11.5335 92.7C7.91431 89.4602 5.28048 85.2669 3.9335 80.6C2.90517 77.1638 2.43254 73.5853 2.5335 70C2.91492 60.8153 6.29908 52.0095 12.1668 44.9333C13.531 43.2164 15.163 41.7307 17.0002 40.5333C18.3951 39.5714 19.9743 38.9089 21.638 38.5876C23.3018 38.2663 25.014 38.2932 26.6668 38.6666C27.5297 38.8772 28.3677 39.1789 29.1668 39.5666C29.798 39.8494 30.4103 40.1723 31.0002 40.5333C33.8865 42.4474 36.3393 44.9457 38.2002 47.8666C40.7792 51.7294 42.7154 55.9846 43.9335 60.4666C44.1668 61.4 44.4002 62.3 44.6002 63.2333C44.8002 64.1666 44.8335 64.4666 44.9335 65.0666C45.7763 69.9163 45.5258 74.8929 44.2002 79.6333ZM49.7335 61.6333C48.6145 61.599 47.4999 61.4764 46.4002 61.2666C45.0657 55.4973 42.583 50.0558 39.1002 45.2666C37.0379 42.2472 34.313 39.739 31.1335 37.9333C30.3597 37.512 29.5578 37.1445 28.7335 36.8333C28.7335 35.9333 28.7335 34.9666 28.7335 33.9333C29.1153 24.7446 32.486 15.9316 38.3335 8.8333C39.7696 7.17047 41.4566 5.74215 43.3335 4.59997C45.356 3.18444 47.7649 2.42519 50.2335 2.42519C52.7021 2.42519 55.111 3.18444 57.1335 4.59997C60.0449 6.49457 62.5124 8.99614 64.3668 11.9333C67.7812 17.1302 70.0535 22.9928 71.0335 29.1333C71.4475 31.5321 71.615 33.967 71.5335 36.4C70.7211 36.6879 69.9303 37.0332 69.1668 37.4333C66.6089 38.7596 64.3422 40.5843 62.5002 42.8C58.0093 48.1577 54.8662 54.5125 53.3335 61.3333C52.1479 61.5634 50.9408 61.664 49.7335 61.6333ZM96.4002 79.3C95.04 84.8383 91.8876 89.7719 87.4335 93.3333C84.1385 96.0287 79.9895 97.459 75.7335 97.3666C71.2663 97.251 66.9919 95.5223 63.7002 92.5C60.0729 89.2535 57.4381 85.0471 56.1002 80.3666C55.0554 76.8997 54.5826 73.2857 54.7002 69.6666C54.7903 67.5405 55.0354 65.4238 55.4335 63.3333C55.6002 62.4 55.8002 61.5 56.0335 60.6C57.5745 54.655 60.4086 49.1235 64.3335 44.4C65.7003 42.7322 67.3335 41.3018 69.1668 40.1666C69.838 39.7377 70.5399 39.3589 71.2668 39.0333C73.1533 38.1902 75.2264 37.8514 77.2832 38.05C79.34 38.2487 81.3099 38.978 83.0002 40.1666C85.8942 42.0714 88.3488 44.5714 90.2002 47.5C93.6311 52.6884 95.9048 58.5546 96.8668 64.7C97.7907 69.5431 97.6199 74.5314 96.3668 79.3H96.4002Z" fill="#6DB746"/>
<path d="M61.2315 80.0001C60.8982 79.1001 60.6315 78.1668 60.3315 77.2668C60.2529 76.9779 60.0691 76.7288 59.8163 76.5684C59.5634 76.4081 59.2597 76.348 58.9648 76.4001C58.6853 76.454 58.4329 76.6029 58.2507 76.8216C58.0684 77.0404 57.9674 77.3154 57.9648 77.6001C57.9648 77.6001 57.9648 77.8335 57.9648 77.9335C58.8286 81.355 60.4204 84.5499 62.6315 87.3001C62.7265 87.4438 62.8513 87.5652 62.9973 87.6564C63.1434 87.7475 63.3074 87.8061 63.4782 87.8283C63.6489 87.8504 63.8224 87.8355 63.9869 87.7847C64.1514 87.7338 64.3031 87.6481 64.4315 87.5335C64.5485 87.4215 64.6416 87.2869 64.7051 87.138C64.7687 86.989 64.8015 86.8288 64.8015 86.6668C64.8015 86.5048 64.7687 86.3446 64.7051 86.1956C64.6416 86.0467 64.5485 85.9121 64.4315 85.8001C63.0765 84.0405 61.9975 82.0848 61.2315 80.0001Z" fill="#6DB746"/>
</g>
<defs>
<clipPath id="clip0_114_521">
<rect width="100" height="100" fill="white"/>
</clipPath>
</defs>
</svg>
