<svg width="100" height="100" viewBox="0 0 100 100" fill="none" xmlns="http://www.w3.org/2000/svg">
<g clip-path="url(#clip0_114_585)">
<path d="M0.568607 15.0335C1.03277 17.8157 2.14311 20.4503 3.8104 22.7254C5.47768 25.0006 7.65542 26.8529 10.1686 28.1335C13.7597 29.8716 17.7134 30.7286 21.7019 30.6335C22.5686 30.6335 23.0019 30.3002 23.0353 29.6335C23.0686 28.9669 22.5686 28.6002 21.7019 28.5335C19.8037 28.4343 17.9122 28.234 16.0353 27.9335C13.791 27.5977 11.6459 26.7803 9.74719 25.5375C7.84848 24.2947 6.24108 22.6559 5.03527 20.7335C3.13027 17.5962 2.10549 14.0037 2.06861 10.3335C2.05433 10.2546 2.05601 10.1736 2.07356 10.0954C2.09111 10.0171 2.12416 9.94319 2.17078 9.87793C2.21739 9.81267 2.27661 9.75742 2.34494 9.71544C2.41327 9.67346 2.48933 9.64561 2.56861 9.63352C6.30115 8.50059 10.2249 8.1377 14.1019 8.56685C17.0039 8.85284 19.7321 10.0823 21.8686 12.0669C24.2419 14.5655 25.7292 17.7743 26.1019 21.2002C26.1019 22.1669 26.3019 23.1669 26.4019 24.1335H26.1686C26.0768 23.9465 25.9527 23.7773 25.8019 23.6335C22.8844 20.6369 19.3137 18.3553 15.3686 16.9669C14.5353 16.7002 13.9686 16.9669 13.7686 17.5669C13.5686 18.1669 13.7686 18.6002 14.6353 18.9669C16.4841 19.7551 18.2772 20.6683 20.0019 21.7002C24.1335 24.0658 27.2265 27.8963 28.6686 32.4335C29.6252 35.6848 29.7399 39.1258 29.0019 42.4335C29.0019 43.2335 29.1686 43.7669 29.8353 43.8669C30.5019 43.9669 30.9686 43.5669 31.0686 42.7669C31.1686 41.9669 31.3686 40.4669 31.5353 39.4335C31.5584 39.151 31.6898 38.8882 31.9019 38.7002C35.1334 36.0512 38.9501 34.2114 43.0353 33.3335C43.8353 33.3335 44.2019 32.7335 44.1019 32.0669C44.0634 31.9219 43.9964 31.7861 43.9049 31.6672C43.8134 31.5484 43.6993 31.4488 43.569 31.3744C43.4388 31.3 43.2951 31.2522 43.1463 31.2337C42.9974 31.2153 42.8464 31.2265 42.7019 31.2669C39.5618 31.8059 36.5528 32.9371 33.8353 34.6002L33.1686 35.0002C36.5019 26.1002 44.1019 24.1002 51.9019 27.4002C51.4212 29.2404 50.6804 31.0026 49.7019 32.6335C48.1804 35.1078 45.8109 36.9441 43.0353 37.8002C41.4103 38.3138 39.6962 38.484 38.0019 38.3002C37.7325 38.2619 37.4589 38.3315 37.2405 38.4938C37.0221 38.656 36.8765 38.8979 36.8353 39.1669C36.8166 39.3071 36.8261 39.4497 36.8631 39.5862C36.9 39.7228 36.9638 39.8506 37.0507 39.9623C37.1375 40.074 37.2457 40.1673 37.369 40.2367C37.4922 40.3062 37.6281 40.3504 37.7686 40.3669H38.1686C40.382 40.592 42.6165 40.2597 44.6686 39.4002C47.193 38.2404 49.3874 36.468 51.0524 34.2442C52.7173 32.0204 53.8 29.4157 54.2019 26.6669C54.2316 26.5464 54.2369 26.4213 54.2177 26.2988C54.1984 26.1763 54.1549 26.0588 54.0897 25.9533C54.0246 25.8478 53.939 25.7563 53.8381 25.6842C53.7372 25.6122 53.6229 25.5609 53.5019 25.5335C53.0119 25.3192 52.5113 25.13 52.0019 24.9669C49.0095 23.8216 45.778 23.4434 42.6019 23.8669C40.4043 24.2244 38.3257 25.1084 36.5437 26.4434C34.7618 27.7785 33.3293 29.5249 32.3686 31.5335C31.9686 32.2669 31.6353 33.0002 31.2019 33.9335C30.7693 31.7473 29.993 29.6435 28.9019 27.7002C28.6647 27.2835 28.5385 26.813 28.5353 26.3335C28.581 23.8008 28.3236 21.2717 27.7686 18.8002C27.2399 15.7531 25.7742 12.9468 23.5755 10.772C21.3768 8.59718 18.5546 7.16219 15.5019 6.66685C10.5787 5.87147 5.53438 6.33005 0.835274 8.00019C0.561809 8.0781 0.326212 8.25321 0.172759 8.49259C0.0193054 8.73198 -0.041439 9.01917 0.00194076 9.30019C0.0884205 11.22 0.27758 13.1339 0.568607 15.0335Z" fill="#6DB746"/>
<path d="M29.9985 10.9664C30.6319 10.9664 30.9652 10.5331 31.0985 9.76644C31.162 8.83944 31.3297 7.92254 31.5985 7.03311C32.0632 5.85869 32.8519 4.84042 33.8728 4.09685C34.8937 3.35329 36.1048 2.91503 37.3652 2.83311C37.782 4.52189 37.9504 6.26241 37.8652 7.99977C37.8289 9.35439 37.4991 10.685 36.8985 11.8998C36.1928 13.2448 35.0007 14.27 33.5652 14.7664C33.8959 12.9559 34.4912 11.2038 35.3319 9.56644C35.4243 9.44421 35.4902 9.304 35.5253 9.1548C35.5605 9.00561 35.564 8.85073 35.5358 8.70008C35.5075 8.54944 35.4481 8.40636 35.3613 8.28002C35.2745 8.15368 35.1623 8.04687 35.0319 7.96644C34.8954 7.89478 34.7454 7.85259 34.5916 7.8426C34.4378 7.83262 34.2836 7.85507 34.1391 7.9085C33.9945 7.96193 33.8628 8.04514 33.7524 8.15274C33.6421 8.26034 33.5556 8.38993 33.4985 8.53311C33.1511 9.17739 32.8503 9.84577 32.5985 10.5331C31.6211 13.2272 31.0155 16.042 30.7985 18.8998C30.7985 20.4998 30.5985 22.2331 30.5985 23.7331C30.6268 23.9353 30.6979 24.1291 30.8071 24.3015C30.9164 24.474 31.0612 24.6211 31.2319 24.7331C31.4122 24.7917 31.6043 24.804 31.7907 24.7691C31.977 24.7341 32.1516 24.653 32.2985 24.5331C32.5457 24.185 32.6528 23.7566 32.5985 23.3331C32.5985 21.4331 32.8652 19.5331 32.9652 17.6331C32.9652 17.1331 33.1985 16.8998 33.7319 16.7331C35.0878 16.3854 36.3271 15.6837 37.3228 14.6997C38.3185 13.7158 39.0348 12.4849 39.3985 11.1331C40.2845 7.84483 40.1919 4.36949 39.1319 1.13311C39.0428 0.918024 38.8792 0.742289 38.671 0.638188C38.4628 0.534086 38.224 0.50861 37.9985 0.56644C37.4837 0.600256 36.9715 0.667059 36.4652 0.76644C34.3513 1.09366 32.425 2.16852 31.0365 3.79563C29.6479 5.42274 28.8893 7.49407 28.8985 9.63311C28.8985 10.4331 29.2985 10.9331 29.9985 10.9664Z" fill="#6DB746"/>
<path d="M29.3685 58.6997C29.4765 58.3026 29.6101 57.9129 29.7685 57.533C30.3777 56.4262 31.3809 55.5889 32.5789 55.1875C33.7769 54.7861 35.0821 54.85 36.2352 55.3663C39.0685 56.2997 39.5685 59.333 37.0018 60.5997C35.6667 61.1268 34.2968 61.5612 32.9018 61.8997L34.3018 64.3997C35.2685 63.7663 36.1685 63.133 37.1018 62.5663C41.76 59.9368 46.913 58.3024 52.2352 57.7663C62.4079 56.2708 72.7947 57.9225 82.0018 62.4997C83.9154 63.3959 85.6537 64.6263 87.1352 66.133C87.251 66.2791 87.4108 66.384 87.591 66.432C87.7711 66.48 87.962 66.4687 88.1352 66.3997C89.2352 66.133 90.4018 65.9663 91.4685 65.6663C93.1222 65.3632 94.6385 64.5468 95.8018 63.333C95.9876 63.0576 96.2423 62.8357 96.5406 62.6895C96.8389 62.5433 97.1703 62.4778 97.5018 62.4997C97.8337 62.5073 98.1566 62.6083 98.4337 62.7911C98.7108 62.9739 98.9308 63.231 99.0685 63.533C101.402 67.433 99.2352 71.733 94.0018 73.533L92.3352 74.0997C92.9018 75.433 93.4018 76.7663 94.0018 78.0663C94.3018 78.733 95.1685 78.933 96.1018 78.9663H98.1018C99.3685 78.9663 100.135 79.733 99.9018 80.633C99.499 82.2303 98.9638 83.7912 98.3018 85.2997C97.9285 85.8737 97.4389 86.3631 96.8648 86.7363C96.2906 87.1094 95.6447 87.3582 94.9685 87.4663L88.3018 89.1997C87.2018 89.4997 87.1018 89.5997 87.2018 90.433C87.2018 92.633 87.5685 94.8663 87.7018 97.0997C87.7912 97.5281 87.7085 97.9746 87.4715 98.3426C87.2345 98.7105 86.8622 98.9705 86.4352 99.0663C85.7971 99.3195 85.1112 99.4298 84.426 99.3895C83.7407 99.3492 83.0725 99.1592 82.4685 98.833C81.9714 98.5343 81.5404 98.1373 81.2018 97.6663C79.7265 95.6861 78.6922 93.4129 78.1685 90.9997C78.1685 90.2997 77.8018 90.1997 76.4685 90.3663C76.4344 90.7545 76.4344 91.1449 76.4685 91.533C76.4685 93.333 76.4685 95.0997 76.7018 96.8997C76.9352 98.6997 75.6018 99.1997 73.6018 99.233C72.8202 99.3402 72.0242 99.2251 71.305 98.9009C70.5858 98.5766 69.9724 98.0564 69.5352 97.3997C68.4018 95.533 67.2352 93.633 66.2018 91.733C66.0887 91.4943 65.9 91.2996 65.665 91.179C65.4299 91.0585 65.1617 91.0189 64.9018 91.0663H58.6685C58.6685 92.433 58.8685 93.7663 59.0018 95.0997C59.0018 95.8663 59.3352 96.6663 59.4352 97.4663C59.5352 98.2663 58.8018 99.0997 57.3685 99.233C56.5042 99.3729 55.6191 99.307 54.7851 99.0406C53.951 98.7741 53.1916 98.3147 52.5685 97.6997C51.5324 96.4649 50.5961 95.1496 49.7685 93.7663C49.1543 92.7821 48.63 91.7446 48.2018 90.6663C47.8685 89.8663 46.9018 89.9663 46.1018 89.833C45.868 89.7825 45.6238 89.8147 45.4111 89.9241C45.1983 90.0335 45.0301 90.2134 44.9352 90.433C43.3936 92.3512 42.413 94.6586 42.1018 97.0997C42.1018 98.8997 40.8685 99.3663 38.4018 99.2997C37.6722 99.349 36.9436 99.1904 36.3005 98.8423C35.6574 98.4942 35.1262 97.9708 34.7685 97.333C33.6097 95.1762 32.5855 92.9497 31.7018 90.6663C30.1676 85.8938 29.3806 80.9127 29.3685 75.8997C29.1057 73.0831 29.8112 70.2612 31.3685 67.8997C31.594 67.7057 31.775 67.4652 31.899 67.1949C32.0231 66.9245 32.0873 66.6305 32.0873 66.333C32.0873 66.0355 32.0231 65.7415 31.899 65.4712C31.775 65.2008 31.594 64.9604 31.3685 64.7663C30.7352 63.9726 30.2805 63.0517 30.0352 62.0663C29.944 61.7784 29.7791 61.5192 29.557 61.3146C29.3348 61.1099 29.063 60.9669 28.7685 60.8997C27.5312 60.5192 26.393 59.8705 25.4352 58.9997C24.9018 58.4997 24.9018 58.133 25.4352 57.6997C25.6911 57.4503 26.0204 57.2897 26.3745 57.2417C26.7286 57.1937 27.0887 57.2608 27.4018 57.433C28.0773 57.8235 28.7336 58.2462 29.3685 58.6997ZM84.9352 67.633C84.3018 67.0997 83.7685 66.5997 83.1685 66.133C80.3997 64.2092 77.3379 62.7458 74.1018 61.7997C69.5176 60.2461 64.7088 59.4577 59.8685 59.4663C57.3823 59.4948 54.9 59.6728 52.4352 59.9997C47.9247 60.451 43.5501 61.7996 39.5685 63.9663C37.6569 64.8038 35.9984 66.1279 34.7584 67.8066C33.5184 69.4852 32.7403 71.4597 32.5018 73.533C32.2454 77.9408 32.6157 82.3626 33.6018 86.6663C34.4862 90.1829 35.8786 93.5516 37.7352 96.6663C37.7352 96.8663 38.2352 96.9663 38.4685 97.0997C38.7018 97.233 38.9685 96.7663 39.0685 96.533C39.1685 96.2997 39.0685 95.6997 39.3352 95.2997C40.114 92.7194 41.3939 90.318 43.1018 88.233C43.9018 87.1997 44.2352 87.0997 45.8352 87.4663C50.2636 88.4808 54.792 88.9951 59.3352 88.9997C61.7352 88.9997 64.1352 88.9997 66.5018 88.9997C67.2685 88.9997 67.9018 88.9997 68.2018 89.6663C68.3151 89.9319 68.4488 90.1882 68.6018 90.433C69.7685 92.4663 70.9685 94.4997 72.1685 96.533C72.2967 96.7658 72.495 96.9524 72.7352 97.0663C72.9177 97.1355 73.1193 97.1355 73.3018 97.0663L73.3352 96.6663C73.3352 95.9997 73.3352 95.3663 73.3352 94.6997C73.3352 92.8997 73.3352 91.0997 73.6352 89.2997C73.6352 88.4997 74.1685 88.233 75.3018 88.1663C78.1352 88.1663 81.0018 87.9663 83.8018 87.733C87.3793 87.4328 90.894 86.6131 94.2352 85.2997C94.5988 85.1701 94.9371 84.9784 95.2352 84.733C95.9085 83.6324 96.393 82.4269 96.6685 81.1663H96.0018C93.0352 80.9663 91.5018 80.0663 90.7018 77.9997C90.7018 77.6997 90.4685 77.3997 90.3685 77.0997C90.2426 76.4564 89.9735 75.8496 89.5811 75.3245C89.1887 74.7994 88.6831 74.3694 88.1018 74.0663C87.1018 73.533 87.5018 72.5997 88.7018 72.333H89.5685C90.9086 72.3421 92.2308 72.0252 93.4212 71.4096C94.6116 70.7941 95.6345 69.8984 96.4018 68.7997C96.6666 68.4016 96.8346 67.9471 96.8925 67.4725C96.9504 66.9979 96.8965 66.5164 96.7352 66.0663C94.5464 67.3896 92.1054 68.2411 89.5685 68.5663C88.5941 68.6794 87.6544 68.996 86.8103 69.4956C85.9662 69.9952 85.2365 70.6666 84.6685 71.4663C84.3018 72.033 84.0685 72.633 83.7685 73.1997C83.6162 73.5311 83.3531 73.7989 83.0246 73.9571C82.696 74.1153 82.3225 74.154 81.9685 74.0663C81.0352 73.8997 80.7018 73.3997 80.9352 72.5997C81.6035 70.5038 83.0299 68.7327 84.9352 67.633ZM51.3685 90.733C52.2785 93.2785 53.9264 95.495 56.1018 97.0997L55.5018 91.0663L51.3685 90.733ZM84.2352 97.0997H84.6018L84.0352 89.9997L81.1352 90.2997C81.5905 92.7877 82.6556 95.1241 84.2352 97.0997ZM32.3685 59.3997L32.6018 59.5663C33.3018 59.3997 34.0352 59.2663 34.7018 59.0663C35.3685 58.8663 35.6685 58.533 35.5685 58.033C35.4685 57.533 35.0018 57.333 34.3685 57.233C33.7352 57.133 33.1352 57.233 32.9352 57.7663C32.7167 58.3001 32.5275 58.8453 32.3685 59.3997Z" fill="#6DB746"/>
<path d="M87.7672 78.2331C88.6006 78.2331 89.3339 78.7665 89.3339 79.3998C89.3339 80.0331 88.5672 80.5665 87.7006 80.5665C86.8339 80.5665 86.1006 79.9998 86.1339 79.3331C86.1672 78.6665 86.9006 78.1998 87.7672 78.2331Z" fill="#6DB746"/>
<path d="M44.2337 59.4663C43.3062 59.7273 42.3937 60.0389 41.5003 60.3997C40.5643 59.9071 39.5246 59.6443 38.467 59.633H38.167C38.4071 59.296 38.5644 58.9073 38.6262 58.4982C38.688 58.0891 38.6525 57.6712 38.5226 57.2784C38.3928 56.8855 38.1722 56.5288 37.8787 56.2372C37.5853 55.9455 37.2273 55.7271 36.8336 55.5997C36.3728 53.7092 35.2547 52.0443 33.6793 50.9024C32.1038 49.7605 30.1736 49.216 28.2336 49.3663C27.0345 49.3291 25.8404 49.5384 24.7254 49.9813C23.6104 50.4242 22.5981 51.0913 21.7513 51.9412C20.9045 52.7911 20.2412 53.8058 19.8024 54.9225C19.3636 56.0391 19.1587 57.2339 19.2003 58.433V59.633H17.967C17.2169 59.6002 16.4682 59.7232 15.7681 59.9943C15.068 60.2654 14.4316 60.6786 13.8992 61.2079C13.3667 61.7372 12.9498 62.3711 12.6746 63.0696C12.3994 63.7681 12.272 64.5161 12.3003 65.2663V66.4663H11.1336C10.1595 66.3489 9.17138 66.4696 8.25409 66.8179C7.33679 67.1663 6.51767 67.7319 5.86698 68.4663C4.83729 70.5398 4.66953 72.9363 5.40032 75.133L3.33365 75.8997C2.8333 74.4561 2.64297 72.9233 2.77508 71.4012C2.90718 69.8792 3.35875 68.4021 4.10032 67.0663C4.80533 66.1687 5.69954 65.4374 6.7193 64.9247C7.73906 64.4119 8.85931 64.1302 10.0003 64.0996C10.1814 62.3935 10.9419 60.801 12.1551 59.5878C13.3683 58.3746 14.9608 57.614 16.667 57.433C16.8052 54.5558 18.08 51.8512 20.2114 49.9135C22.3428 47.9759 25.1563 46.9638 28.0336 47.0997C29.4611 47.0279 30.8886 47.2384 32.2346 47.7191C33.5806 48.1999 34.8185 48.9414 35.8774 49.9013C36.9363 50.8611 37.7955 52.0205 38.4058 53.3129C39.016 54.6053 39.3653 56.0054 39.4336 57.433C41.2082 57.5868 42.8885 58.2986 44.2337 59.4663Z" fill="#6DB746"/>
<path d="M38.1654 59.6329H37.2654V58.4329C37.2295 57.4751 37.0841 56.5244 36.832 55.5996C37.2256 55.7271 37.5837 55.9455 37.8771 56.2371C38.1706 56.5288 38.3911 56.8855 38.521 57.2783C38.6509 57.6711 38.6863 58.089 38.6245 58.4981C38.5628 58.9072 38.4054 59.296 38.1654 59.6329Z" fill="#6DB746"/>
</g>
<defs>
<clipPath id="clip0_114_585">
<rect width="100" height="100" fill="white"/>
</clipPath>
</defs>
</svg>
