<svg width="100" height="100" viewBox="0 0 100 100" fill="none" xmlns="http://www.w3.org/2000/svg">
<g clip-path="url(#clip0_114_593)">
<path d="M74.0344 56.0335H51.201V51.6335C52.679 51.8648 54.1719 51.9873 55.6677 52.0002C60.3255 52.1638 64.881 50.6097 68.4677 47.6335C76.1677 40.9669 76.2677 29.3335 76.2677 28.8335V27.6669H75.1344C65.6677 27.2335 58.701 29.5002 54.4344 34.3335C52.9925 35.9197 51.8618 37.7628 51.101 39.7669V27.9002H48.701V33.6335C48.1428 32.5162 47.4608 31.4651 46.6677 30.5002C40.001 22.8002 28.3677 22.7002 27.8677 22.7002H26.6677V23.8335C26.2344 33.3002 28.501 40.2669 33.3344 44.5335C37.0775 47.6232 41.8164 49.2462 46.6677 49.1002C47.601 49.1002 48.3677 49.1002 48.9344 49.1002V56.1335H25.9677C24.3145 56.1335 22.7291 56.7903 21.5601 57.9592C20.3911 59.1282 19.7344 60.7137 19.7344 62.3669C19.7344 64.02 20.3911 65.6055 21.5601 66.7745C22.7291 67.9435 24.3145 68.6002 25.9677 68.6002L32.3677 94.7335C32.7339 96.2368 33.5856 97.5774 34.7908 98.5476C35.9961 99.5178 37.4876 100.064 39.0344 100.1H62.001C63.6206 100.101 65.1901 99.5393 66.4422 98.512C67.6943 97.4848 68.5515 96.0552 68.8677 94.4669L74.0677 68.6002C75.7209 68.6002 77.3064 67.9435 78.4753 66.7745C79.6443 65.6055 80.301 64.02 80.301 62.3669C80.301 60.7137 79.6443 59.1282 78.4753 57.9592C77.3064 56.7903 75.7209 56.1335 74.0677 56.1335L74.0344 56.0335ZM56.2344 36.0335C60.001 31.8002 65.7344 30.0002 73.801 30.0002C73.533 35.9485 71.0755 41.5877 66.901 45.8335C65.1013 47.2836 63.0306 48.3606 60.81 49.0016C58.5894 49.6426 56.2634 49.8347 53.9677 49.5669L64.3677 39.5669C64.4829 39.4607 64.5748 39.3319 64.6376 39.1885C64.7005 39.045 64.7329 38.8901 64.7329 38.7335C64.7329 38.5769 64.7005 38.422 64.6376 38.2786C64.5748 38.1352 64.4829 38.0063 64.3677 37.9002C64.2562 37.7883 64.1238 37.6996 63.9779 37.639C63.832 37.5784 63.6756 37.5473 63.5177 37.5473C63.3598 37.5473 63.2034 37.5784 63.0575 37.639C62.9117 37.6996 62.7792 37.7883 62.6677 37.9002L52.2344 47.9002C52.0504 43.5449 53.4741 39.274 56.2344 35.9002V36.0335ZM48.5677 44.9335L39.101 34.7335C38.8718 34.5155 38.5675 34.3938 38.251 34.3938C37.9346 34.3938 37.6303 34.5155 37.401 34.7335C37.285 34.8426 37.1925 34.9743 37.1293 35.1205C37.0661 35.2667 37.0335 35.4243 37.0335 35.5835C37.0335 35.7428 37.0661 35.9004 37.1293 36.0466C37.1925 36.1927 37.285 36.3244 37.401 36.4335L47.0677 46.6669C42.6775 46.8901 38.3586 45.49 34.9344 42.7335C30.8344 39.1335 28.8677 33.3335 29.0344 25.1669C34.9746 25.4273 40.606 27.8866 44.8344 32.0669C46.2688 33.8364 47.3375 35.8731 47.9784 38.059C48.6193 40.2449 48.8196 42.5363 48.5677 44.8002V44.9335ZM66.6677 93.9002C66.453 94.9443 65.8848 95.8824 65.059 96.5564C64.2332 97.2304 63.2003 97.599 62.1344 97.6002H39.201C38.1622 97.6059 37.152 97.2598 36.3349 96.6183C35.5178 95.9767 34.9419 95.0774 34.701 94.0669L28.4344 68.5002H71.7677L66.6677 93.9002ZM74.1677 66.1002H25.9677C24.951 66.1002 23.976 65.6963 23.2571 64.9774C22.5382 64.2586 22.1344 63.2835 22.1344 62.2669C22.1344 61.2502 22.5382 60.2752 23.2571 59.5563C23.976 58.8374 24.951 58.4335 25.9677 58.4335H74.0344C75.051 58.4335 76.0261 58.8374 76.745 59.5563C77.4638 60.2752 77.8677 61.2502 77.8677 62.2669C77.8677 63.2835 77.4638 64.2586 76.745 64.9774C76.0261 65.6963 75.051 66.1002 74.0344 66.1002H74.1677Z" fill="#6DB746"/>
<path d="M49.9981 27.8667C50.9167 27.9191 51.8331 27.7316 52.6572 27.3225C53.4812 26.9134 54.1846 26.2968 54.6981 25.5333C58.5315 19.6 51.8648 4.13333 51.0981 2.4L49.9981 0L48.8981 2.36667C47.578 5.26223 46.4642 8.24744 45.5648 11.3C43.3315 17.9333 43.3315 22.6667 44.9315 25.3333C45.4694 26.1729 46.2242 26.8516 47.116 27.2975C48.0079 27.7435 49.0037 27.9401 49.9981 27.8667ZM49.9981 5.93333C52.0981 11.4 54.9648 20.7667 52.6981 24.2C52.413 24.6358 52.0133 24.9846 51.5428 25.2081C51.0724 25.4316 50.5494 25.521 50.0315 25.4667C49.442 25.5269 48.8471 25.429 48.3081 25.1829C47.7691 24.9368 47.3054 24.5515 46.9648 24.0667C44.6981 20.5 47.7315 11.3 49.9981 5.93333Z" fill="#6DB746"/>
</g>
<defs>
<clipPath id="clip0_114_593">
<rect width="100" height="100" fill="white"/>
</clipPath>
</defs>
</svg>
