<svg xmlns="http://www.w3.org/2000/svg" xmlns:xlink="http://www.w3.org/1999/xlink" viewBox="0 0 427.87 427.87"><defs><style>.cls-1{fill:none;}.cls-2{clip-path:url(#clip-path);}.cls-3{fill:url(#linear-gradient);}.cls-4{clip-path:url(#clip-path-2);}.cls-5{fill:url(#linear-gradient-2);}.cls-6{fill:#73b94f;}.cls-7{fill:#00904f;fill-rule:evenodd;}.cls-8{clip-path:url(#clip-path-3);}.cls-9{fill:url(#linear-gradient-3);}</style><clipPath id="clip-path"><polygon class="cls-1" points="155.75 128.91 364.18 77.19 402.1 152.8 219.91 196.02 155.75 128.91"/></clipPath><linearGradient id="linear-gradient" x1="175.25" y1="-651.23" x2="360.16" y2="-562.18" gradientTransform="translate(-75.54 940.41) scale(1.33)" gradientUnits="userSpaceOnUse"><stop offset="0" stop-color="#2a83c0"/><stop offset="1" stop-color="#78c14f"/></linearGradient><clipPath id="clip-path-2"><path class="cls-1" d="M213.93,0C309.31,0,390.09,62.41,417.7,148.62l-22.43,6A190.82,190.82,0,0,0,213.93,23.18c-105.35,0-190.75,85.41-190.75,190.76s85.4,190.75,190.75,190.75,190.76-85.41,190.76-190.75a190.74,190.74,0,0,0-3.54-36.65l22.49-5.88a215,215,0,0,1,4.23,42.53c0,118.15-95.78,213.93-213.94,213.93S0,332.09,0,213.94,95.78,0,213.93,0"/></clipPath><linearGradient id="linear-gradient-2" x1="56.54" y1="-705.18" x2="377.68" y2="-384.53" xlink:href="#linear-gradient"/><clipPath id="clip-path-3"><polygon class="cls-1" points="189.24 249.33 95.94 269.93 160.08 340.29 254.94 316.97 189.24 249.33"/></clipPath><linearGradient id="linear-gradient-3" x1="128.43" y1="-518.04" x2="247.77" y2="-449.87" xlink:href="#linear-gradient"/></defs><title>Asset 1</title><g id="Layer_2" data-name="Layer 2"><g id="svg2"><g id="g10"><g id="g12"><g class="cls-2"><g id="g14"><path id="path26" class="cls-3" d="M155.75,128.91,364.18,77.19,402.1,152.8,219.91,196Z"/></g></g></g><g id="g28"><g class="cls-4"><g id="g30"><path id="path42" class="cls-5" d="M213.93,0C309.31,0,390.09,62.41,417.7,148.62l-22.43,6A190.82,190.82,0,0,0,213.93,23.18c-105.35,0-190.75,85.41-190.75,190.76s85.4,190.75,190.75,190.75,190.76-85.41,190.76-190.75a190.74,190.74,0,0,0-3.54-36.65l22.49-5.88a215,215,0,0,1,4.23,42.53c0,118.15-95.78,213.93-213.94,213.93S0,332.09,0,213.94,95.78,0,213.93,0"/></g></g></g><path id="path44" class="cls-6" d="M155.75,128.91v83.88L219.91,196Z"/><path id="path46" class="cls-7" d="M219.91,196l31.92,33.87-62.59,19.44-33.49-36.54Z"/><path id="path48" class="cls-6" d="M189.24,249.33,254.94,317l-3.11-87.08Z"/><g id="g50"><g class="cls-8"><g id="g52"><path id="path64" class="cls-9" d="M189.24,249.33l-93.3,20.6,64.14,70.36L254.94,317Z"/></g></g></g></g></g></g></svg>