<svg xmlns="http://www.w3.org/2000/svg" xmlns:xlink="http://www.w3.org/1999/xlink" viewBox="0 0 637.84 507.36"><defs><style>.cls-1{fill:none;}.cls-2{clip-path:url(#clip-path);}.cls-3{fill:url(#linear-gradient);}.cls-4{clip-path:url(#clip-path-2);}.cls-5{fill:url(#linear-gradient-2);}.cls-6{fill:#73b94f;}.cls-7{fill:#00904f;fill-rule:evenodd;}.cls-8{clip-path:url(#clip-path-3);}.cls-9{fill:url(#linear-gradient-3);}</style><clipPath id="clip-path"><polygon class="cls-1" points="260.74 128.91 469.17 77.19 507.09 152.8 324.89 196.02 260.74 128.91"/></clipPath><linearGradient id="linear-gradient" x1="273.58" y1="-697.83" x2="458.48" y2="-608.77" gradientTransform="translate(-101.65 1002.54) scale(1.33)" gradientUnits="userSpaceOnUse"><stop offset="0" stop-color="#2a83c0"/><stop offset="1" stop-color="#78c14f"/></linearGradient><clipPath id="clip-path-2"><path class="cls-1" d="M318.92,0c95.37,0,176.15,62.41,203.77,148.62l-22.43,6A190.83,190.83,0,0,0,318.92,23.18c-105.35,0-190.75,85.41-190.75,190.76s85.4,190.75,190.75,190.75,190.75-85.41,190.75-190.75a191.54,191.54,0,0,0-3.53-36.65l22.48-5.88a214.28,214.28,0,0,1,4.24,42.53c0,118.15-95.79,213.93-213.94,213.93S105,332.09,105,213.94,200.77,0,318.92,0"/></clipPath><linearGradient id="linear-gradient-2" x1="154.85" y1="-751.78" x2="476" y2="-431.13" xlink:href="#linear-gradient"/><clipPath id="clip-path-3"><polygon class="cls-1" points="294.23 249.33 200.93 269.93 265.07 340.29 359.93 316.97 294.23 249.33"/></clipPath><linearGradient id="linear-gradient-3" x1="226.75" y1="-564.63" x2="346.09" y2="-496.46" xlink:href="#linear-gradient"/></defs><title>Asset 2</title><g id="Layer_2" data-name="Layer 2"><g id="Layer_1-2" data-name="Layer 1"><g id="g16"><g class="cls-2"><g id="g18"><path id="path30" class="cls-3" d="M260.74,128.91,469.17,77.19l37.92,75.61L324.89,196Z"/></g></g></g><g id="g48"><g class="cls-4"><g id="g50"><path id="path62" class="cls-5" d="M318.92,0c95.37,0,176.15,62.41,203.77,148.62l-22.43,6A190.83,190.83,0,0,0,318.92,23.18c-105.35,0-190.75,85.41-190.75,190.76s85.4,190.75,190.75,190.75,190.75-85.41,190.75-190.75a191.54,191.54,0,0,0-3.53-36.65l22.48-5.88a214.28,214.28,0,0,1,4.24,42.53c0,118.15-95.79,213.93-213.94,213.93S105,332.09,105,213.94,200.77,0,318.92,0"/></g></g></g><path id="path80" class="cls-6" d="M260.74,128.91v83.88L324.89,196Z"/><path id="path84" class="cls-7" d="M324.89,196l31.93,33.87-62.59,19.44-33.49-36.54Z"/><path id="path88" class="cls-6" d="M294.23,249.33,359.93,317l-3.11-87.08Z"/><g id="g92"><g class="cls-8"><g id="g94"><path id="path106" class="cls-9" d="M294.23,249.33l-93.3,20.6,64.14,70.36L359.93,317Z"/></g></g></g><path id="path124" class="cls-6" d="M31.11,494.8c7.67,0,12.12-.12,13.32-.35s1.83-1.19,1.83-2.83q0-3-2.55-3.74c-1.69-.51-5.9-.77-12.6-.77q-20,0-25.18-2.9T.71,469.89q0-10.59,6.83-13.56,5.21-2.26,23.18-2.27,16,0,20.32.88,10.05,2,10.05,17.1H45.16c0-2.76-.59-4.36-1.8-4.81s-5.39-.68-12.57-.68-11.35.14-12.45.4-1.67,1.23-1.67,2.94a3.4,3.4,0,0,0,2.83,3.48c1.9.53,5.76.79,11.61.79q19.71,0,25.39,3.12t5.69,14.34q0,10.36-6.38,13.27-5.51,2.48-24.77,2.47-14.87,0-19.29-.66-6.82-1-9.29-4.75T0,489H16q0,4.35,1.88,5.07t13.27.73Zm43.89-40v51.74H91V470.24a8.4,8.4,0,0,0-.24-1.67c-.34-1.56-.5-2.36-.5-2.4,0-.33.13-.5.42-.5s.44.24.67.73.49,1.05.78,1.67l19.85,38.48H125l18.41-38.33c.21-.5.46-1,.74-1.57s.52-.83.71-.83.46.18.46.56a9.29,9.29,0,0,1-.37,1.68,9.33,9.33,0,0,0-.36,2.32v36.17h16V454.81H133.36l-13.62,29.05c-.31,1.89-.55,3.4-.72,4.54s-.34,1.7-.53,1.7-.46-1-.69-2.88a19.82,19.82,0,0,0-.54-3.36l-13.63-29.05Zm120.62-.07H223l25.66,51.74H230.05l-4.92-8.64h-31.6l-5,8.64H170Zm14.93,11.64h-2.48l-8.6,18.05h19.64Zm46.73-11.72h46.4q8.52,0,12.11,3.12c2.55,2.26,3.81,6.25,3.81,12q0,6.66-1.59,9.84a10.06,10.06,0,0,1-5.56,4.78c2.89,1.27,4.8,2.54,5.74,3.78s1.41,3.49,1.41,6.73v11.61H303.68V497.2a5.29,5.29,0,0,0-1.1-3.39,4.87,4.87,0,0,0-4.14-1.84h-25.2v14.51h-16Zm16,13.41v10.52h25.59a5.16,5.16,0,0,0,3.72-1.13c.75-.76,1.13-2.12,1.13-4.11s-.4-3.35-1.17-4.12a5.06,5.06,0,0,0-3.68-1.16Zm62.41,0V454.66h61.68v13.41H374.5v38.41h-16V468.07Zm143.56,5.36h-16c0-3.05-.75-4.82-2.25-5.33s-6.67-.76-15.51-.76-14,.55-15.49,1.65-2.25,5-2.25,11.69.73,10.46,2.19,11.56,6.67,1.64,15.61,1.64,14.07-.22,15.52-.65,2.18-2,2.18-4.8H443.52V476.82h35.69c0,11.27-.43,18.41-1.25,21.41q-1.74,6.3-8.71,7.9-5.13,1.15-23.71,1.16-24.35,0-29.06-3.89t-4.7-22.8q0-18.93,4.56-22.69,4.86-4,29.2-4,23.37,0,28.21,2.69,5.44,3,5.46,16.82Zm35-18.69h27.38l25.66,51.74H548.64l-4.92-8.64h-31.6l-5,8.64H488.55Zm14.93,11.64h-2.48l-8.6,18.05H537.7ZM577,454.66h39q12.74,0,16.81,3.12,5.06,3.83,5.06,16.46t-5,16.35q-4.14,3.21-16.88,3.22h-23v12.67H577Zm16,25.74h23a6.36,6.36,0,0,0,4.28-1.25c1.15-1,1.73-2.61,1.73-4.91s-.58-3.94-1.73-5a6.52,6.52,0,0,0-4.28-1.21h-23Z"/></g></g></svg>